#N canvas 720 120 415 380 10;
#X obj 13 60 chline;
#X floatatom 87 40 5 0 0 0 - - -;
#X obj 314 137 mtof;
#X floatatom 123 40 5 0 0 0 - - -;
#X obj 246 138 * 100;
#X obj 331 219 bng 20 250 50 0 empty empty empty 17 7 0 10 -262144
-1 -1;
#X obj 251 214 metro;
#X obj 13 41 bng 15 250 50 0 empty empty empty 17 7 0 10 -262144 -1
-1;
#X floatatom 50 40 5 0 0 0 - - -;
#X obj 251 242 f;
#X obj 280 242 + 1;
#X obj 308 241 % 2;
#X msg 322 197 stop;
#X obj 176 137 rzero_rev~;
#X obj 176 180 rzero_rev~;
#X obj 176 223 rzero_rev~;
#X obj 176 266 rzero_rev~;
#X obj 92 305 +~;
#X obj 192 288 rpole~;
#X obj 183 245 rpole~;
#X obj 175 202 rpole~;
#X obj 172 159 rpole~;
#X obj 212 113 expr~ 0.97 - 0.6*$v1*$v1;
#X obj 212 91 expr~ abs($v1 - 0.5);
#X obj 174 64 phasor~ 0.3;
#X obj 108 321 lop~;
#X floatatom 125 74 5 0 0 0 - - -;
#X obj 248 63 osc~ 0.3;
#X obj 302 62 square~ 0.3;
#X obj 107 112 knob 50 50 0 100 0 0 empty empty empty 0 -8 0 8 -262144
-1 -1 2100 1;
#X obj 32 41 bng 15 250 50 0 empty empty empty 17 7 0 10 -262144 -1
-1;
#X text 10 24 Ply;
#X text 29 23 Stp;
#X text 52 22 Trig;
#X text 86 22 Freq;
#X text 121 22 Drtn;
#X text 122 59 Lopf;
#X obj 107 343 outlet~;
#X text 100 93 Mod freq;
#X obj 251 310 partial_bell;
#X obj 248 288 catch~ sumB;
#X obj 246 160 s durationB;
#X obj 314 160 s frequencyB;
#X obj 333 241 s triggerB;
#X obj 240 8 sqr_alt_wave;
#X obj 173 8 tri_waveII;
#X connect 0 0 13 0;
#X connect 0 0 17 0;
#X connect 1 0 2 0;
#X connect 2 0 42 0;
#X connect 3 0 4 0;
#X connect 4 0 41 0;
#X connect 5 0 43 0;
#X connect 6 0 9 0;
#X connect 7 0 6 0;
#X connect 8 0 6 1;
#X connect 9 0 10 0;
#X connect 10 0 9 1;
#X connect 10 0 11 0;
#X connect 11 0 5 0;
#X connect 12 0 6 0;
#X connect 13 0 21 0;
#X connect 14 0 20 0;
#X connect 15 0 19 0;
#X connect 16 0 18 0;
#X connect 17 0 25 0;
#X connect 18 0 17 1;
#X connect 19 0 16 0;
#X connect 20 0 15 0;
#X connect 21 0 14 0;
#X connect 22 0 13 1;
#X connect 22 0 14 1;
#X connect 22 0 15 1;
#X connect 22 0 16 1;
#X connect 22 0 19 1;
#X connect 22 0 18 1;
#X connect 22 0 20 1;
#X connect 22 0 21 1;
#X connect 23 0 22 0;
#X connect 25 0 37 0;
#X connect 26 0 25 1;
#X connect 28 0 23 0;
#X connect 29 0 28 0;
#X connect 30 0 12 0;
#X connect 40 0 0 0;
#X coords 0 -1 1 1 160 240 1 5 5;
