#N canvas 151 159 585 415 10;
#X declare -lib timestretch;
#X obj 5 157 soundfiler;
#N canvas 0 0 450 300 (subpatch) 0;
#X array sndfl 2.70496e+006 float 2;
#X coords 0 1 2.70496e+006 -1 200 140 1;
#X restore 142 98 graph;
#X msg 46 17 \; pd dsp 1;
#X msg 112 18 \; pd dsp 0;
#X msg 346 40 4096;
#X msg 385 40 8192;
#X floatatom 349 89 5 0 0 0 - - -;
#X obj 349 106 timestretch~ sndfl;
#X floatatom 454 89 5 0 0 0 - - -;
#X obj 427 41 hsl 128 15 0 2 0 0 empty empty empty -2 -8 0 10 -262144
-1 -1 0 1;
#X obj 349 229 *~;
#X obj 367 159 hsl 128 15 0 1 0 0 empty empty empty -2 -8 0 10 -262144
-1 -1 0 1;
#X obj 483 130 dac~;
#X obj 186 40 import timestretch;
#X obj 186 18 loadbang;
#X obj 186 60 print;
#X msg 41 74 symbol C:/;
#X msg 5 52 bang;
#X obj 5 101 openpanel;
#X msg 5 129 read -resize \$1 sndfl;
#X msg 41 51 symbol /Joseph/Audio;
#X obj 166 247 mixer;
#X obj 166 288 mixr;
#X obj 321 295 spats~;
#X obj 377 313 recrd;
#X obj 322 344 dac~ 1 2;
#X msg 306 40 2048;
#X connect 4 0 6 0;
#X connect 5 0 6 0;
#X connect 6 0 7 0;
#X connect 7 0 10 0;
#X connect 8 0 7 1;
#X connect 9 0 8 0;
#X connect 10 0 21 0;
#X connect 10 0 21 1;
#X connect 11 0 10 1;
#X connect 13 0 15 0;
#X connect 14 0 13 0;
#X connect 16 0 18 0;
#X connect 17 0 18 0;
#X connect 18 0 19 0;
#X connect 19 0 0 0;
#X connect 20 0 18 0;
#X connect 21 0 22 0;
#X connect 21 1 22 1;
#X connect 22 0 23 0;
#X connect 23 0 24 0;
#X connect 23 0 25 0;
#X connect 23 1 24 1;
#X connect 23 1 25 1;
#X connect 24 0 25 0;
#X connect 24 1 25 1;
#X connect 26 0 6 0;
