#N canvas 192 273 320 259 10;
#X obj 45 54 vu 15 120 empty empty -1 -8 0 10 -66577 -1 1 0;
#X obj 117 106 *~;
#X msg 132 41 \$1 20;
#X obj 132 67 line~;
#X obj 162 122 env~ 128;
#X obj 162 145 - 100;
#X floatatom 16 25 5 0 0 0 - - -;
#X obj 16 50 vsl 15 128 0 1 0 0 empty empty empty 0 -9 0 10 -262144
-1 -1 12700 1;
#X obj 118 19 inlet~;
#X obj 117 197 outlet~ ch-\$0;
#X connect 1 0 4 0;
#X connect 1 0 9 0;
#X connect 2 0 3 0;
#X connect 3 0 1 1;
#X connect 4 0 5 0;
#X connect 5 0 0 0;
#X connect 6 0 2 0;
#X connect 7 0 6 0;
#X connect 8 0 1 0;
#X coords 0 -1 1 1 85 180 1 10 5;
