#N canvas 370 121 536 495 10;
#X obj 298 168 gemhead;
#X obj 95 313 part_velocity;
#X obj 113 281 part_source 5 point;
#X msg 275 309 sphere;
#X obj 95 247 part_color;
#X obj 184 193 r lb;
#X obj 144 375 part_killold 20;
#X obj 143 352 part_size;
#X floatatom 156 97 5 0 1 0 - - -;
#X obj 144 401 part_render;
#X obj 138 443 square;
#X msg 11 195 draw fill;
#X msg 10 217 draw line;
#X msg 32 168 speed \$1;
#X floatatom 9 76 5 0 4 0 - - -;
#X msg 299 204 0 -3 0 4;
#X floatatom 58 116 5 0 0 0 - - -;
#X msg 299 225 0 -3 0 0;
#X obj 159 76 hsl 128 15 0 1 0 0 empty empty empty -2 -8 0 10 -262144
-1 -1 0 1;
#X obj 95 185 part_head 200;
#X obj 95 443 sphere;
#X msg 10 240 draw point;
#X floatatom 58 75 5 -1 1 0 - - -;
#X floatatom 94 76 5 -10 1 0 - - -;
#X msg 275 332 -0.2 0.3 0.2 0.3;
#X msg 275 352 0 0.3 0 0.3;
#X msg 274 373 0.2 0.3 0.2 0.3;
#X msg 298 246 0 -8 -3 0;
#X msg 184 230 \$1 \$1 \$1;
#X msg 123 210 \$1 \$1 \$1;
#X obj 12 36 bng 15 250 50 0 empty empty empty 17 7 0 10 -262144 -1
-1;
#X obj 32 36 bng 15 250 50 0 empty empty empty 17 7 0 10 -262144 -1
-1;
#X obj 51 36 bng 15 250 50 0 empty empty empty 17 7 0 10 -262144 -1
-1;
#X obj 80 36 bng 15 250 50 0 empty empty empty 17 7 0 10 -262144 -1
-1;
#X obj 99 36 bng 15 250 50 0 empty empty empty 17 7 0 10 -262144 -1
-1;
#X obj 118 36 bng 15 250 50 0 empty empty empty 17 7 0 10 -262144 -1
-1;
#X obj 227 36 bng 15 250 50 0 empty empty empty 17 7 0 10 -262144 -1
-1;
#X obj 155 36 bng 15 250 50 0 empty empty empty 17 7 0 10 -262144 -1
-1;
#X obj 192 36 bng 15 250 50 0 empty empty empty 17 7 0 10 -262144 -1
-1;
#X obj 210 36 bng 15 250 50 0 empty empty empty 17 7 0 10 -262144 -1
-1;
#X text 50 59 Colour Range;
#X text 6 58 Speed;
#X text 7 19 Draw;
#X text 78 19 Latitude;
#X text 189 19 Longitude;
#X text 145 20 Sphere;
#X text 7 101 No. of Square Particles;
#X text 155 58 Partical Size;
#X obj 298 25 r GEMobj;
#X obj 311 48 r speed;
#X obj 322 73 r colour;
#X obj 341 99 r spt;
#X connect 0 0 19 0;
#X connect 1 0 7 0;
#X connect 2 0 1 0;
#X connect 3 0 1 1;
#X connect 4 0 2 0;
#X connect 5 0 29 0;
#X connect 5 0 28 0;
#X connect 6 0 9 0;
#X connect 7 0 6 0;
#X connect 8 0 7 1;
#X connect 8 0 20 1;
#X connect 9 0 20 0;
#X connect 9 0 10 0;
#X connect 11 0 10 0;
#X connect 11 0 20 0;
#X connect 12 0 10 0;
#X connect 12 0 20 0;
#X connect 13 0 19 0;
#X connect 14 0 13 0;
#X connect 15 0 2 3;
#X connect 16 0 10 1;
#X connect 16 0 20 2;
#X connect 17 0 2 3;
#X connect 18 0 8 0;
#X connect 19 0 4 0;
#X connect 21 0 10 0;
#X connect 21 0 20 0;
#X connect 22 0 29 0;
#X connect 23 0 28 0;
#X connect 24 0 1 2;
#X connect 25 0 1 2;
#X connect 26 0 1 2;
#X connect 27 0 2 3;
#X connect 28 0 4 2;
#X connect 29 0 4 1;
#X connect 30 0 11 0;
#X connect 31 0 12 0;
#X connect 32 0 21 0;
#X connect 33 0 15 0;
#X connect 34 0 17 0;
#X connect 35 0 27 0;
#X connect 36 0 26 0;
#X connect 37 0 3 0;
#X connect 38 0 24 0;
#X connect 39 0 25 0;
#X connect 48 0 0 0;
#X connect 49 0 14 0;
#X connect 50 0 22 0;
#X connect 51 0 16 0;
#X coords 0 -1 1 1 290 135 1 1 5;
