#N canvas 685 10 590 539 10;
#X obj 43 19 inlet trigA;
#X obj 127 20 inlet trigB;
#X obj 43 54 t b f;
#X floatatom 127 71 5 0 0 0 - - -;
#X floatatom 70 117 5 0 0 0 - - -;
#X obj 70 148 expr (pow (2 \, ( $f2/12 ) ) - 1 ) * ( 44100/$f1 );
#X obj 127 100 t b f;
#X floatatom 70 178 5 0 0 0 - - -;
#X obj 105 168 / 44.1;
#X floatatom 151 185 5 0 0 0 - - -;
#X obj 39 207 phasor~;
#X obj 212 198 inlet freq;
#X obj 280 198 inlet freqOffset;
#X obj 19 249 *~ -1;
#X obj 19 282 +~ 1;
#X obj 18 314 *~;
#X obj 98 201 sig~;
#X obj 75 298 samphold~;
#X obj 140 298 sig~ 1;
#X obj 188 298 cos~;
#X obj 141 326 -~;
#X obj 19 340 vd~ b1;
#X obj 20 366 *~;
#X obj 385 198 inlet wrapLvl;
#X obj 351 251 wrap~;
#X obj 246 298 *~ -1;
#X obj 304 298 sig~;
#X obj 288 327 samphold~;
#X obj 259 327 +~ 1;
#X obj 285 365 *~;
#X obj 360 348 sig~ 1;
#X obj 408 349 cos~;
#X obj 360 376 -~;
#X obj 285 403 vd~ b1;
#X obj 114 437 *~;
#X obj 170 439 *~;
#X obj 284 435 *~;
#X obj 283 462 *~;
#X obj 442 445 inlet ramp;
#X obj 446 479 delwrite~ b1 5000;
#X obj 114 485 outlet~;
#X obj 169 484 outlet~;
#X obj 511 447 inlet~;
#X floatatom 18 83 5 0 0 0 - - -;
#X obj 352 223 +~ 0.1;
#X obj 359 404 *~ 0.1;
#X obj 140 350 *~ 0.1;
#X connect 0 0 2 0;
#X connect 0 0 43 0;
#X connect 1 0 3 0;
#X connect 2 0 3 0;
#X connect 2 1 4 0;
#X connect 3 0 6 0;
#X connect 4 0 5 0;
#X connect 4 0 8 0;
#X connect 5 0 7 0;
#X connect 6 0 4 0;
#X connect 6 1 5 1;
#X connect 7 0 10 0;
#X connect 8 0 9 0;
#X connect 9 0 16 0;
#X connect 9 0 26 0;
#X connect 10 0 13 0;
#X connect 10 0 17 1;
#X connect 10 0 19 0;
#X connect 10 0 44 0;
#X connect 11 0 13 1;
#X connect 11 0 25 1;
#X connect 12 0 14 1;
#X connect 12 0 28 1;
#X connect 13 0 14 0;
#X connect 14 0 15 0;
#X connect 15 0 21 0;
#X connect 16 0 17 0;
#X connect 17 0 15 1;
#X connect 18 0 20 0;
#X connect 19 0 20 1;
#X connect 20 0 46 0;
#X connect 21 0 22 0;
#X connect 22 0 34 0;
#X connect 22 0 35 0;
#X connect 23 0 44 1;
#X connect 24 0 25 0;
#X connect 24 0 27 1;
#X connect 24 0 31 0;
#X connect 25 0 28 0;
#X connect 26 0 27 0;
#X connect 27 0 29 1;
#X connect 28 0 29 0;
#X connect 29 0 33 0;
#X connect 29 0 35 1;
#X connect 29 0 34 1;
#X connect 30 0 32 0;
#X connect 31 0 32 1;
#X connect 32 0 45 0;
#X connect 33 0 36 0;
#X connect 34 0 40 0;
#X connect 35 0 41 0;
#X connect 36 0 37 0;
#X connect 37 0 39 0;
#X connect 38 0 37 1;
#X connect 42 0 39 0;
#X connect 44 0 24 0;
#X connect 45 0 36 1;
#X connect 46 0 22 1;
