#N canvas 716 299 450 300 10;
#X obj 15 44 vsl 15 120 100 30000 0 0 empty empty empty 0 -9 0 10 -262144
-1 -1 200 1;
#X obj 33 92 vsl 15 72 -36 36 0 0 empty empty empty 0 -9 0 10 -262144
-1 -1 3200 1;
#X text 13 26 Window Width;
#X text 31 72 Transposition;
#X floatatom 52 128 5 0 0 0 - - -;
#X floatatom 88 128 5 0 0 0 - - -;
#X text 50 110 Freq;
#X text 85 110 Freq Offset;
#X obj 294 171 freeverb~;
#X obj 355 200 +~;
#X msg 264 69 roomsize \$1;
#X msg 265 88 damping \$1;
#X obj 195 54 hsl 60 15 0 1 0 0 empty empty empty -2 -8 0 10 -262144
-1 -1 4700 1;
#X obj 195 73 hsl 60 15 0 1 0 0 empty empty empty -2 -8 0 10 -262144
-1 -1 5900 1;
#X obj 195 111 hsl 60 15 0 1 0 0 empty empty empty -2 -8 0 10 -262144
-1 -1 5200 1;
#X obj 195 92 hsl 60 15 0 1 0 0 empty empty empty -2 -8 0 10 -262144
-1 -1 5900 1;
#X obj 195 130 hsl 60 15 0 0.5 0 0 empty empty empty -2 -8 0 10 -262144
-1 -1 3600 1;
#X msg 265 126 width \$1;
#X msg 265 107 wet \$1;
#X msg 265 145 dry \$1;
#X obj 46 216 GranSynLF;
#X obj 128 15 hsl 128 15 0 1 0 0 empty empty empty -2 -8 0 10 -262144
-1 -1 11800 1;
#X obj 403 30 line;
#X floatatom 89 15 5 0 0 0 - - -;
#X obj 369 8 inlet~ inst2;
#X obj 288 8 inlet~ inst1;
#X obj 92 152 hsl 128 15 0 1 0 0 empty empty empty -2 -8 0 10 -262144
-1 -1 5700 1;
#X floatatom 225 151 5 0 0 0 - - -;
#X obj 46 251 outlet~;
#X obj 97 251 outlet~;
#X obj 128 34 hsl 128 15 0 1 0 0 empty empty empty -2 -8 0 10 -262144
-1 -1 900 1;
#X floatatom 89 34 5 0 0 0 - - -;
#X obj 347 34 line;
#X obj 346 60 *~ 0.1;
#X obj 394 61 *~ 0.1;
#X connect 0 0 20 0;
#X connect 1 0 20 1;
#X connect 4 0 20 2;
#X connect 5 0 20 3;
#X connect 8 0 9 0;
#X connect 9 0 20 6;
#X connect 10 0 8 0;
#X connect 11 0 8 0;
#X connect 12 0 10 0;
#X connect 13 0 11 0;
#X connect 14 0 17 0;
#X connect 15 0 18 0;
#X connect 16 0 19 0;
#X connect 17 0 8 0;
#X connect 18 0 8 0;
#X connect 19 0 8 0;
#X connect 20 0 28 0;
#X connect 20 1 29 0;
#X connect 21 0 22 0;
#X connect 21 0 23 0;
#X connect 22 0 34 1;
#X connect 24 0 34 0;
#X connect 25 0 33 0;
#X connect 26 0 20 4;
#X connect 27 0 20 5;
#X connect 30 0 31 0;
#X connect 30 0 32 0;
#X connect 32 0 33 1;
#X connect 33 0 8 1;
#X connect 34 0 9 1;
#X connect 34 0 8 1;
#X coords 0 -1 1 1 250 160 1 10 10;
