#N canvas 200 94 1077 505 10;
#N canvas 0 0 450 300 (subpatch) 0;
#X array bdR 10278 float 2;
#X coords 0 1 10278 -1 160 100 1 0 0;
#X restore 665 344 graph;
#X obj 21 138 soundfiler;
#X floatatom 20 272 5 0 0 0 - - -;
#X obj 21 364 +~;
#X floatatom 21 163 5 0 0 0 - - -;
#X obj 21 187 expr 44100 / $f1;
#X obj 21 229 phasor~;
#X obj 20 302 square~;
#X obj 21 394 delay~ 100;
#X obj 21 330 *~ 356;
#X obj 105 347 hip~;
#X obj 142 330 +;
#X obj 21 429 tabread4~ bdR;
#X obj 672 151 metro;
#X obj 672 183 f;
#X obj 722 185 + 1;
#X obj 672 217 % 8;
#X obj 672 249 hradio 15 1 0 8 empty empty empty 0 -8 0 10 -262144
-1 -1 0;
#X obj 672 280 sel 0 1 2 3 4 5 6 7 8;
#X msg 153 187 0;
#X obj 446 297 tgl 15 0 empty empty empty 17 7 0 10 -262144 -1 -1 0
1;
#X floatatom 549 313 5 0 0 0 - - -;
#X obj 519 311 +;
#X msg 488 311 50;
#X obj 401 312 bng 15 250 50 0 empty empty empty 17 7 0 10 -262144
-1 -1;
#X obj 151 265 square~;
#X floatatom 177 347 5 0 0 0 - - -;
#X obj 106 282 *~;
#X obj 647 121 inlet;
#X obj 22 463 outlet~;
#X obj 153 142 inlet;
#X obj 199 186 inlet;
#X floatatom 230 235 5 0 0 0 - - -;
#X obj 529 134 inlet;
#X msg 21 19 read -resize C:/Joseph/Lowriders/EmuSP12/BASSDRUM/Bassdrum-01.wav
bdR;
#X msg 373 19 read -resize C:/Joseph/Lowriders/EmuSP12/BASSDRUM/Bassdrum-02.wav
bdR;
#X msg 28 56 read -resize C:/Joseph/Lowriders/EmuSP12/BASSDRUM/Bassdrum-04.wav
bdR;
#X msg 723 20 read -resize C:/Joseph/Lowriders/EmuSP12/BASSDRUM/Bassdrum-03.wav
bdR;
#X msg 378 56 read -resize C:/Joseph/Lowriders/EmuSP12/BASSDRUM/Bassdrum-05.wav
bdR;
#X msg 727 56 read -resize C:/Joseph/Lowriders/EmuSP12/BASSDRUM/Bassdrum-06.wav
bdR;
#X connect 1 0 4 0;
#X connect 2 0 7 0;
#X connect 2 0 11 0;
#X connect 3 0 8 0;
#X connect 4 0 5 0;
#X connect 5 0 6 0;
#X connect 6 0 27 0;
#X connect 7 0 9 0;
#X connect 8 0 12 0;
#X connect 9 0 3 0;
#X connect 10 0 3 1;
#X connect 11 0 10 1;
#X connect 11 0 26 0;
#X connect 12 0 29 0;
#X connect 13 0 14 0;
#X connect 14 0 15 0;
#X connect 14 0 16 0;
#X connect 15 0 14 1;
#X connect 16 0 17 0;
#X connect 17 0 18 0;
#X connect 18 0 20 0;
#X connect 18 1 34 0;
#X connect 18 2 36 0;
#X connect 18 4 35 0;
#X connect 18 5 38 0;
#X connect 18 6 39 0;
#X connect 18 7 37 0;
#X connect 19 0 2 0;
#X connect 20 0 23 0;
#X connect 20 0 24 0;
#X connect 21 0 11 1;
#X connect 21 0 9 1;
#X connect 22 0 21 0;
#X connect 23 0 22 0;
#X connect 25 0 27 1;
#X connect 27 0 10 0;
#X connect 28 0 13 0;
#X connect 30 0 19 0;
#X connect 31 0 25 0;
#X connect 31 0 6 1;
#X connect 31 0 32 0;
#X connect 33 0 13 1;
#X connect 33 0 22 1;
#X connect 33 0 2 0;
#X connect 34 0 1 0;
#X connect 35 0 1 0;
#X connect 36 0 1 0;
#X connect 37 0 1 0;
#X connect 38 0 1 0;
#X connect 39 0 1 0;
