#N canvas 89 14 686 389 10;
#X obj 41 222 mixer;
#X obj 41 262 mixr;
#X obj 186 267 spats~;
#X obj 236 283 recrd;
#X obj 185 313 dac~ 1 2;
#X msg 11 2 \; pd dsp 1;
#X msg 76 2 \; pd dsp 0;
#X obj 41 54 flanger;
#X floatatom 41 37 5 0 0 0 - - -;
#X floatatom 399 37 5 0 0 0 - - -;
#X text 11 362 ** Sampler and local_delay too much memory;
#X obj 232 36 loadbang;
#X connect 0 0 1 0;
#X connect 0 1 1 1;
#X connect 1 0 2 0;
#X connect 2 0 4 0;
#X connect 2 0 3 0;
#X connect 2 1 4 1;
#X connect 2 1 3 1;
#X connect 3 0 4 0;
#X connect 3 1 4 1;
#X connect 7 0 0 0;
#X connect 7 0 0 1;
#X connect 8 0 7 0;
#X connect 9 0 7 2;
#X connect 11 0 7 1;
