#N canvas 702 2 649 463 10;
#X obj 127 218 sig~;
#X obj 130 201 hsl 128 15 0 0.5 0 0 empty empty empty -2 -8 0 10 -262144
-1 -1 8400 1;
#X floatatom 158 218 5 0 0 0 - - -;
#X obj 113 249 *~;
#X obj 278 260 *~;
#X floatatom 161 -29 5 0 0 0 - - -;
#X obj 137 -6 bng 15 250 50 0 empty empty empty 17 7 0 10 -262144 -1
-1;
#X floatatom 298 -29 5 0 0 0 - - -;
#X obj 222 -4 bng 15 250 50 0 empty empty empty 17 7 0 10 -262144 -1
-1;
#X floatatom 176 -9 5 0 0 0 - - -;
#X obj 49 38 granSynA;
#X obj 137 22 GrnSynBassDrm;
#X obj 222 21 GrnSynBassSnr;
#X floatatom 135 394 5 0 0 0 - - -;
#X obj 119 379 hsl 220 15 0 120 0 0 empty empty empty -2 -8 0 10 -262144
-1 -1 0 1;
#X obj -10 -30 hradio 15 1 0 2 empty empty empty 0 -8 0 10 -262144
-1 -1 1;
#N canvas 569 284 266 43 sndONOFF 0;
#X text 28 6 OFF;
#X text 103 5 ON;
#X obj 22 -73 inlet;
#X obj 22 -39 sel 0 1;
#X msg 22 23 \; pd dsp 0;
#X msg 97 22 \; pd dsp 1;
#X connect 2 0 3 0;
#X connect 3 0 4 0;
#X connect 3 1 5 0;
#X restore -10 -14 pd sndONOFF;
#X text 7 -49 On;
#X text -14 -49 Off;
#X obj 69 -30 hradio 15 1 0 2 empty empty empty 0 -8 0 10 -262144 -1
-1 1;
#N canvas 192 291 450 300 setGEM 0;
#X obj 116 30 inlet load;
#X obj 194 94 gemwin;
#X obj 28 30 inlet set/del;
#X obj 194 129 outlet;
#X obj 194 31 r lb;
#X obj 196 155 loadbang;
#X obj 196 180 s lb;
#X obj 28 60 sel 0 1;
#X msg 67 84 create;
#X msg 65 109 destroy;
#X msg 194 55 dimen 800 600;
#X connect 0 0 1 0;
#X connect 1 0 3 0;
#X connect 2 0 7 0;
#X connect 4 0 10 0;
#X connect 5 0 6 0;
#X connect 7 0 9 0;
#X connect 7 1 8 0;
#X connect 8 0 1 0;
#X connect 9 0 1 0;
#X connect 10 0 1 0;
#X restore 69 -14 pd setGEM;
#X obj 120 -30 tgl 15 0 empty empty empty 17 7 0 10 -262144 -1 -1 1
1;
#X text 65 -49 GEM SET;
#X obj 45 225 / 4;
#X obj 114 311 *~;
#X obj 144 288 knob 32 32 0 1 0 0 empty empty empty 0 -8 0 8 -262144
-1 -1 1900 1;
#X obj 75 294 env~;
#X floatatom 75 317 5 0 0 0 - - -;
#X floatatom 3 292 5 0 0 0 - - -;
#X obj 3 225 / 20;
#X floatatom 2 364 5 0 0 0 - - -;
#X obj 2 339 expr $f1 * 0.5;
#X obj 115 357 dac~;
#X obj 162 327 recrd;
#X obj 114 278 *~;
#X obj 69 4 s GEMobj;
#X obj 2 387 s speed;
#X obj 3 313 s colour;
#X obj 3 272 s spt;
#X obj 212 -30 tgl 15 0 empty empty empty 17 7 0 10 -262144 -1 -1 1
1;
#X obj 305 166 gem-box-gen;
#X msg 529 49 4000;
#X obj 420 70 tgl 10 0 empty g1 empty 17 7 0 10 -262144 -1 -1 0 1;
#X obj 430 70 tgl 10 0 empty g2 empty 17 7 0 10 -262144 -1 -1 1 1;
#X obj 450 70 tgl 10 0 empty g4 empty 17 7 0 10 -262144 -1 -1 0 1;
#X obj 460 70 tgl 10 0 lt2 g5 empty 17 7 0 10 -262144 -1 -1 0 1;
#X obj 470 70 tgl 10 0 empty g6 empty 17 7 0 10 -262144 -1 -1 0 1;
#X obj 440 70 tgl 10 0 empty g3 empty 17 7 0 10 -262144 -1 -1 1 1;
#X obj 480 70 tgl 10 0 empty g7 empty 17 7 0 10 -262144 -1 -1 0 1;
#X obj 490 70 tgl 10 0 empty g8 empty 17 7 0 10 -262144 -1 -1 0 1;
#X obj 510 70 tgl 10 0 empty g10 empty 17 7 0 10 -262144 -1 -1 0 1
;
#X obj 500 70 tgl 10 0 empty g9 empty 17 7 0 10 -262144 -1 -1 1 1;
#X text 346 320 Randomiser row could be used for \; track/sound aggrangement/synthesis.
;
#X text 181 295 Vary BPM on/off;
#X text 182 307 Feedback Loop on Timing;
#X obj 460 -29 bpmclkmod;
#X obj 422 49 ca-cell-set-front;
#X obj 314 118 spigot;
#X obj 330 139 spigot;
#X obj 305 93 spigot;
#X obj 413 117 spigot;
#X obj 458 103 spigot;
#X obj 380 136 spigot;
#X obj 520 122 spigot;
#X obj 562 139 spigot;
#X obj 503 100 spigot;
#X connect 0 0 3 1;
#X connect 0 0 4 0;
#X connect 1 0 0 0;
#X connect 1 0 2 0;
#X connect 3 0 34 0;
#X connect 4 0 34 1;
#X connect 5 0 11 1;
#X connect 6 0 11 0;
#X connect 7 0 12 1;
#X connect 8 0 12 0;
#X connect 9 0 11 2;
#X connect 10 0 3 0;
#X connect 10 1 4 1;
#X connect 11 0 10 0;
#X connect 12 0 10 1;
#X connect 14 0 13 0;
#X connect 15 0 16 0;
#X connect 19 0 20 0;
#X connect 20 0 35 0;
#X connect 21 0 20 1;
#X connect 23 0 28 0;
#X connect 23 0 31 0;
#X connect 24 0 33 0;
#X connect 24 0 33 1;
#X connect 24 0 32 0;
#X connect 24 0 32 1;
#X connect 25 0 24 1;
#X connect 26 0 27 0;
#X connect 27 0 29 0;
#X connect 27 0 23 0;
#X connect 28 0 37 0;
#X connect 29 0 38 0;
#X connect 30 0 36 0;
#X connect 31 0 30 0;
#X connect 33 0 32 0;
#X connect 33 1 32 1;
#X connect 34 0 24 0;
#X connect 34 0 26 0;
#X connect 39 0 11 3;
#X connect 39 0 56 0;
#X connect 41 0 56 1;
#X connect 42 0 59 0;
#X connect 42 0 59 1;
#X connect 43 0 57 1;
#X connect 43 0 57 0;
#X connect 44 0 62 0;
#X connect 44 0 62 1;
#X connect 45 0 55 0;
#X connect 46 0 60 0;
#X connect 46 0 60 1;
#X connect 47 0 58 1;
#X connect 47 0 58 0;
#X connect 48 0 61 0;
#X connect 48 0 61 1;
#X connect 49 0 65 0;
#X connect 49 0 65 1;
#X connect 50 0 64 0;
#X connect 50 0 64 1;
#X connect 51 0 63 0;
#X connect 51 0 63 1;
#X connect 55 1 56 1;
#X connect 57 0 40 1;
#X connect 58 0 40 2;
#X connect 59 0 40 0;
#X connect 60 0 40 5;
#X connect 61 0 40 6;
#X connect 62 0 40 3;
#X connect 63 0 40 8;
#X connect 64 0 40 9;
#X connect 65 0 40 7;
