#N canvas 178 200 600 424 10;
#X obj 20 42 metro;
#X obj 21 21 bng 15 250 50 0 empty empty empty 17 7 0 10 -262144 -1
-1;
#X floatatom 47 20 5 0 0 0 - - -;
#X obj 19 63 f;
#X obj 48 63 + 1;
#X obj 76 62 % 2;
#X msg 90 25 stop;
#X obj 145 79 bng 20 250 50 0 empty empty empty 17 7 0 10 -262144 -1
-1;
#X obj 145 103 s trigger;
#X text 145 61 PLAY;
#X floatatom 147 191 5 0 0 0 - - -;
#X obj 147 213 mtof;
#X obj 147 236 s frequency;
#X floatatom 148 126 5 0 0 0 - - -;
#X obj 148 146 * 100;
#X obj 148 168 s duration;
#X obj 22 154 metro;
#X obj 21 175 f;
#X obj 50 175 + 1;
#X obj 78 174 % 137;
#X msg 78 137 stop;
#X obj 22 134 bng 15 250 50 0 empty empty empty 17 7 0 10 -262144 -1
-1;
#X msg 49 134 80;
#X floatatom 76 101 5 0 0 0 - - -;
#X obj 307 45 chline;
#X obj 306 244 *~;
#X obj 378 229 tgl 15 0 empty empty empty 17 7 0 10 -262144 -1 -1 0
1;
#X obj 331 311 dac~ 1 2;
#X obj 78 202 plist03;
#X obj 307 20 catch~ sumIII;
#X obj 26 204 plist01;
#X obj 219 21 catch~ sum;
#X obj 221 243 *~;
#X obj 220 45 chline;
#X obj 289 228 tgl 15 0 empty empty empty 17 7 0 10 -262144 -1 -1 0
1;
#X obj 259 260 *~;
#X obj 27 227 plist04;
#X obj 81 227 plist05;
#X obj 397 45 chline;
#X obj 486 46 chline;
#X obj 483 245 *~;
#X obj 555 230 tgl 15 0 empty empty empty 17 7 0 10 -262144 -1 -1 0
1;
#X obj 398 244 *~;
#X obj 466 229 tgl 15 0 empty empty empty 17 7 0 10 -262144 -1 -1 0
1;
#X obj 436 261 *~;
#X obj 347 277 *~;
#X obj 397 20 catch~ sumIV;
#X obj 486 20 catch~ sumV;
#X connect 0 0 3 0;
#X connect 1 0 0 0;
#X connect 2 0 0 1;
#X connect 3 0 4 0;
#X connect 4 0 3 1;
#X connect 4 0 5 0;
#X connect 5 0 7 0;
#X connect 5 0 23 0;
#X connect 6 0 0 0;
#X connect 7 0 8 0;
#X connect 10 0 11 0;
#X connect 11 0 12 0;
#X connect 13 0 14 0;
#X connect 14 0 15 0;
#X connect 16 0 17 0;
#X connect 17 0 18 0;
#X connect 18 0 17 1;
#X connect 18 0 19 0;
#X connect 19 0 10 0;
#X connect 20 0 16 0;
#X connect 21 0 16 0;
#X connect 22 0 16 1;
#X connect 24 0 25 0;
#X connect 25 0 35 1;
#X connect 26 0 25 1;
#X connect 29 0 24 0;
#X connect 31 0 33 0;
#X connect 32 0 35 0;
#X connect 33 0 32 0;
#X connect 34 0 32 1;
#X connect 35 0 45 0;
#X connect 38 0 42 0;
#X connect 39 0 40 0;
#X connect 40 0 44 1;
#X connect 41 0 40 1;
#X connect 42 0 44 0;
#X connect 43 0 42 1;
#X connect 44 0 45 1;
#X connect 45 0 27 0;
#X connect 45 0 27 1;
#X connect 46 0 38 0;
#X connect 47 0 39 0;
