#N canvas 459 103 630 403 10;
#X obj 4 192 mixer;
#X obj 4 232 mixr;
#X obj 149 237 spats~;
#X obj 199 253 recrd;
#X obj 148 283 dac~ 1 2;
#X msg 345 242 \; pd dsp 1;
#X msg 344 276 \; pd dsp 0;
#X obj 3 10 flanger;
#X floatatom 3 -7 5 0 0 0 - - -;
#X floatatom 361 -7 5 0 0 0 - - -;
#X obj 194 -8 loadbang;
#X obj 404 176 *~;
#X text 204 287 + fm_syn (OK);
#X floatatom 407 311 5 0 0 0 - - -;
#X text 203 296 + paf-gen-wavshpr (OK);
#X text 203 308 + partial0103UI (OK/Border NG);
#X obj 432 8 all-pass-phaser;
#X text 203 320 + all-pass-phaser (OK);
#X connect 0 0 1 0;
#X connect 0 1 1 1;
#X connect 1 0 2 0;
#X connect 2 0 4 0;
#X connect 2 0 3 0;
#X connect 2 1 4 1;
#X connect 2 1 3 1;
#X connect 3 0 4 0;
#X connect 3 1 4 1;
#X connect 7 0 11 0;
#X connect 8 0 7 0;
#X connect 9 0 7 2;
#X connect 10 0 7 1;
#X connect 11 0 0 0;
#X connect 11 0 0 1;
#X connect 16 0 11 1;
