#N canvas 71 129 631 463 10;
#X obj 126 215 sig~;
#X obj 129 198 hsl 128 15 0 0.5 0 0 empty empty empty -2 -8 0 10 -262144
-1 -1 0 1;
#X floatatom 157 215 5 0 0 0 - - -;
#X obj 112 246 *~;
#X obj 277 257 *~;
#X floatatom 161 -40 5 0 0 0 - - -;
#X obj 136 -16 bng 15 250 50 0 empty empty empty 17 7 0 10 -262144
-1 -1;
#X floatatom 343 -15 5 0 0 0 - - -;
#X obj 268 -13 bng 15 250 50 0 empty empty empty 17 7 0 10 -262144
-1 -1;
#X floatatom 175 -19 5 0 0 0 - - -;
#X obj 48 35 granSynA;
#X obj 136 19 GrnSynBassDrm;
#X obj 268 19 GrnSynBassSnr;
#X floatatom 227 -25 5 0 0 0 - - -;
#X obj 214 -40 hsl 220 15 0 120 0 0 empty empty empty -2 -8 0 10 -262144
-1 -1 0 1;
#X obj -11 -33 hradio 15 1 0 2 empty empty empty 0 -8 0 10 -262144
-1 -1 0;
#N canvas 569 284 266 43 sndONOFF 0;
#X text 28 6 OFF;
#X text 103 5 ON;
#X obj 22 -73 inlet;
#X obj 22 -39 sel 0 1;
#X msg 22 23 \; pd dsp 0;
#X msg 97 22 \; pd dsp 1;
#X connect 2 0 3 0;
#X connect 3 0 4 0;
#X connect 3 1 5 0;
#X restore -11 -17 pd sndONOFF;
#X text 7 -49 On;
#X text -14 -49 Off;
#X obj 68 -33 hradio 15 1 0 2 empty empty empty 0 -8 0 10 -262144 -1
-1 0;
#N canvas 192 291 450 300 setGEM 0;
#X obj 116 30 inlet load;
#X obj 194 94 gemwin;
#X obj 28 30 inlet set/del;
#X obj 194 129 outlet;
#X obj 194 31 r lb;
#X obj 196 155 loadbang;
#X obj 196 180 s lb;
#X obj 28 60 sel 0 1;
#X msg 67 84 create;
#X msg 65 109 destroy;
#X msg 194 55 dimen 800 600;
#X connect 0 0 1 0;
#X connect 1 0 3 0;
#X connect 2 0 7 0;
#X connect 4 0 10 0;
#X connect 5 0 6 0;
#X connect 7 0 9 0;
#X connect 7 1 8 0;
#X connect 8 0 1 0;
#X connect 9 0 1 0;
#X connect 10 0 1 0;
#X restore 68 -17 pd setGEM;
#X obj 119 -33 tgl 15 0 empty empty empty 17 7 0 10 -262144 -1 -1 0
1;
#X text 65 -49 GEM SET;
#X obj 44 222 / 4;
#X obj 113 308 *~;
#X obj 143 285 knob 32 32 0 1 0 0 empty empty empty 0 -8 0 8 -262144
-1 -1 0 1;
#X obj 74 291 env~;
#X floatatom 74 314 5 0 0 0 - - -;
#X floatatom 2 289 5 0 0 0 - - -;
#X obj 2 222 / 20;
#X floatatom 1 361 5 0 0 0 - - -;
#X obj 1 336 expr $f1 * 0.5;
#X obj 114 354 dac~;
#X obj 200 324 recrd;
#X obj 113 275 *~;
#X obj 308 37 gem-box;
#X obj 68 1 s GEMobj;
#X obj 1 384 s speed;
#X obj 2 310 s colour;
#X obj 2 269 s spt;
#X obj 211 -9 tgl 15 0 empty empty empty 17 7 0 10 -262144 -1 -1 0
1;
#X connect 0 0 3 1;
#X connect 0 0 4 0;
#X connect 1 0 0 0;
#X connect 1 0 2 0;
#X connect 3 0 34 0;
#X connect 4 0 34 1;
#X connect 5 0 11 1;
#X connect 6 0 11 0;
#X connect 7 0 12 1;
#X connect 8 0 12 0;
#X connect 9 0 11 2;
#X connect 10 0 3 0;
#X connect 10 1 4 1;
#X connect 11 0 10 0;
#X connect 12 0 10 1;
#X connect 14 0 13 0;
#X connect 15 0 16 0;
#X connect 19 0 20 0;
#X connect 20 0 36 0;
#X connect 21 0 20 1;
#X connect 23 0 28 0;
#X connect 23 0 31 0;
#X connect 24 0 33 0;
#X connect 24 0 33 1;
#X connect 24 0 32 0;
#X connect 24 0 32 1;
#X connect 25 0 24 1;
#X connect 26 0 27 0;
#X connect 27 0 29 0;
#X connect 27 0 23 0;
#X connect 28 0 38 0;
#X connect 29 0 39 0;
#X connect 30 0 37 0;
#X connect 31 0 30 0;
#X connect 33 0 32 0;
#X connect 33 1 32 1;
#X connect 34 0 24 0;
#X connect 34 0 26 0;
#X connect 40 0 11 3;
