#N canvas 438 187 446 431 10;
#X obj 25 14 all-pass-phaser;
#X obj 25 253 mixer;
#X obj 25 293 mixr;
#X obj 170 298 spats~;
#X obj 220 314 recrd;
#X obj 169 344 dac~ 1 2;
#X msg 194 18 \; pd dsp 1;
#X msg 192 55 \; pd dsp 0;
#X connect 0 0 1 0;
#X connect 0 0 1 1;
#X connect 1 0 2 0;
#X connect 1 1 2 1;
#X connect 2 0 3 0;
#X connect 3 0 5 0;
#X connect 3 0 4 0;
#X connect 3 1 5 1;
#X connect 3 1 4 1;
#X connect 4 0 5 0;
#X connect 4 1 5 1;
