#N canvas 564 132 754 433 10;
#X declare -lib timestretch;
#X obj 260 28 ts_abs;
#X obj 506 28 paf-gen-wavshpr;
#X obj 305 221 local_delay;
#X obj 11 29 partialBellAnd07UI;
#X obj 305 262 mixer;
#X obj 305 302 mixr;
#X obj 450 307 spats~;
#X obj 500 323 recrd;
#X obj 449 353 dac~ 1 2;
#X floatatom 507 8 5 0 0 0 - - -;
#X floatatom 612 8 5 0 0 0 - - -;
#X floatatom 719 8 5 0 0 0 - - -;
#X obj 261 157 *~;
#X obj 246 250 *~;
#X obj 12 251 *~;
#X obj 28 233 tgl 15 0 empty empty empty 17 7 0 10 -262144 -1 -1 0
1;
#X obj 261 231 tgl 15 0 empty empty empty 17 7 0 10 -262144 -1 -1 0
1;
#X obj 230 268 *~;
#X obj 266 204 *~;
#X msg 11 -4 \; pd dsp 1;
#X msg 76 -4 \; pd dsp 0;
#X connect 0 0 12 0;
#X connect 1 0 12 1;
#X connect 2 0 4 0;
#X connect 2 0 4 1;
#X connect 3 0 14 0;
#X connect 3 1 13 0;
#X connect 4 0 5 0;
#X connect 4 1 5 1;
#X connect 5 0 6 0;
#X connect 6 0 8 0;
#X connect 6 0 7 0;
#X connect 6 1 8 1;
#X connect 6 1 7 1;
#X connect 7 0 8 0;
#X connect 7 1 8 1;
#X connect 9 0 1 0;
#X connect 10 0 1 1;
#X connect 11 0 1 2;
#X connect 12 0 18 1;
#X connect 13 0 17 1;
#X connect 14 0 17 0;
#X connect 15 0 14 1;
#X connect 16 0 13 1;
#X connect 17 0 18 0;
#X connect 18 0 2 0;
