#N canvas 380 184 507 424 10;
#X declare -lib timestretch;
#X obj 250 227 *~;
#X obj 265 191 tgl 15 0 empty empty empty 17 7 0 10 -262144 -1 -1 0
1;
#X obj 98 390 dac~ 1 2;
#X obj 14 227 *~;
#X obj 33 210 tgl 15 0 empty empty empty 17 7 0 10 -262144 -1 -1 0
1;
#X obj 126 243 *~;
#X obj 157 335 recrd;
#X obj 14 7 partialBellAnd07UI;
#X obj 158 304 spats~;
#X msg 270 10 \; pd dsp 1;
#X msg 270 46 \; pd dsp 0;
#X obj 35 333 spats~;
#X obj 152 248 ts_abs;
#X obj 97 275 *~;
#X connect 0 0 5 1;
#X connect 1 0 0 1;
#X connect 3 0 5 0;
#X connect 4 0 3 1;
#X connect 5 0 13 1;
#X connect 6 0 2 0;
#X connect 6 1 2 1;
#X connect 7 0 3 0;
#X connect 7 1 0 0;
#X connect 8 0 6 0;
#X connect 8 1 6 1;
#X connect 11 0 2 0;
#X connect 11 1 2 1;
#X connect 12 0 13 0;
#X connect 13 0 11 0;
#X connect 13 0 8 0;
