#N canvas 0 0 605 488 10;
#X obj 36 189 phasor~;
#X obj 110 116 pack 0 50;
#X obj 110 144 line~;
#X text 149 137 smooth line out;
#X obj 163 252 wrap~;
#X obj 109 268 -~;
#X obj 36 298 *~;
#X obj 109 297 +~;
#X obj 35 326 cos~;
#X obj 109 326 cos~;
#X obj 107 367 -~;
#X obj 35 399 +~;
#X obj 147 383 *~;
#X text 140 271 Subtract to get the integer part "k";
#X text 142 297 Multiply phase by "k" and "k + 1";
#X text 143 321 Synthesize two partials "c1" and "c2";
#X obj 110 227 samphold~;
#X obj 110 93 mtof;
#X obj 165 180 expr 1/$f1;
#X obj 36 163 mtof;
#X obj 110 174 *~;
#X obj 36 21 inlet;
#X obj 110 21 inlet;
#X obj 480 116 pack 0 50;
#X obj 480 146 line~;
#X obj 480 93 mtof;
#X text 513 93 comment;
#X text 477 -2 Bandwidth;
#X obj 480 197 *~;
#X obj 403 227 *~ 0.5;
#X obj 403 252 -~ 0.25;
#X obj 402 277 cos~;
#X obj 401 305 *~;
#X obj 480 289 *~ 25;
#X text 479 304 range for table;
#X obj 400 334 +~ 100;
#X text 398 350 Offset to middle of table;
#X obj 312 370 tabread4~ bell-curve;
#X text 441 367 Waveshaper;
#X obj 296 415 *~;
#X text 200 365 c2 - c1;
#X text 171 381 q * (c2 - c1);
#X text 170 398 q * c2 + (1 - q) * c1;
#N canvas 0 0 450 300 (subpatch) 0;
#X array bell-curve 100 float 3;
#A 0 0 0 0 0 0 0 0 0 0 0 0 0 0 0 0 0 0 0 0 0 0 0 0 0 0 0 0 0 0 0 0
0 0 0 0 0 0 0 0 0 0 0 0 0 0 0 0 0 0 0 0 0 0 0 0 0 0 0 0 0 0 0 0 0 0
0 0 0 0 0 0 0 0 0 0 0 0 0 0 0 0 0 0 0 0 0 0 0 0 0 0 0 0 0 0 0 0 0 0
0;
#X coords 0 1 99 -1 195 140 1 0 0;
#X restore 263 48 graph;
#X text 33 -1 Fundamental;
#X text 108 -1 Fundamental (MIDI) to Freq;
#X obj 480 19 inlet;
#X obj 296 447 outlet~;
#X text 519 139;
#X connect 0 0 7 1;
#X connect 0 0 6 0;
#X connect 0 0 16 1;
#X connect 0 0 29 0;
#X connect 1 0 2 0;
#X connect 2 0 20 0;
#X connect 4 0 5 1;
#X connect 4 0 12 1;
#X connect 5 0 6 1;
#X connect 6 0 7 0;
#X connect 6 0 8 0;
#X connect 7 0 9 0;
#X connect 8 0 10 1;
#X connect 8 0 11 0;
#X connect 9 0 10 0;
#X connect 10 0 12 0;
#X connect 11 0 39 0;
#X connect 12 0 11 1;
#X connect 16 0 5 0;
#X connect 16 0 4 0;
#X connect 17 0 1 0;
#X connect 18 0 20 1;
#X connect 18 0 28 1;
#X connect 19 0 18 0;
#X connect 19 0 0 0;
#X connect 20 0 16 0;
#X connect 21 0 19 0;
#X connect 22 0 17 0;
#X connect 23 0 24 0;
#X connect 24 0 28 0;
#X connect 25 0 23 0;
#X connect 28 0 33 0;
#X connect 29 0 30 0;
#X connect 30 0 31 0;
#X connect 31 0 32 0;
#X connect 32 0 35 0;
#X connect 33 0 32 1;
#X connect 35 0 37 0;
#X connect 37 0 39 1;
#X connect 39 0 47 0;
#X connect 46 0 25 0;
#X coords 0 -1 1 1 220 180 1 250 16;
