#N canvas 481 218 455 298 10;
#X obj 260 72 metro;
#X obj 196 57 bng 15 250 50 0 empty empty empty 17 7 0 10 -262144 -1
-1;
#X floatatom 196 77 5 0 0 0 - - -;
#X obj 259 93 f;
#X obj 288 93 + 1;
#X obj 316 92 % 2;
#X msg 260 52 stop;
#X obj 342 90 bng 20 250 50 0 empty empty empty 17 7 0 10 -262144 -1
-1;
#X text 342 72 PLAY;
#X floatatom 194 163 5 0 0 0 - - -;
#X obj 339 179 mtof;
#X floatatom 195 203 5 0 0 0 - - -;
#X obj 260 219 * 100;
#X obj 261 137 metro;
#X obj 260 158 f;
#X obj 289 158 + 1;
#X obj 317 157 % 137;
#X msg 261 116 stop;
#X obj 196 122 bng 15 250 50 0 empty empty empty 17 7 0 10 -262144
-1 -1;
#X msg 305 138 80;
#X obj 105 39 chline;
#X obj 18 39 chline;
#X text 193 186 Duration;
#X text 193 35 Trigger;
#X text 194 100 Freq;
#X obj 19 250 outlet~;
#X obj 106 252 outlet~;
#X obj 213 122 bng 15 250 50 0 empty empty empty 17 7 0 10 -262144
-1 -1;
#X obj 116 231 plist07;
#X obj 105 3 catch~ sumVII;
#X obj 29 231 partial_bell;
#X obj 17 4 catch~ sumB;
#X obj 234 57 bng 15 250 50 0 empty empty empty 17 7 0 10 -262144 -1
-1;
#X obj 234 122 bng 15 250 50 0 empty empty empty 17 7 0 10 -262144
-1 -1;
#X obj 342 129 s trigger7;
#X obj 296 203 s frequency7;
#X obj 260 241 s duration7;
#X obj 336 241 s durationB;
#X obj 375 203 s frequencyB;
#X obj 375 110 s triggerB;
#X connect 0 0 3 0;
#X connect 1 0 0 0;
#X connect 2 0 0 1;
#X connect 3 0 4 0;
#X connect 4 0 3 1;
#X connect 4 0 5 0;
#X connect 5 0 7 0;
#X connect 6 0 0 0;
#X connect 7 0 34 0;
#X connect 7 0 39 0;
#X connect 9 0 10 0;
#X connect 10 0 35 0;
#X connect 10 0 38 0;
#X connect 11 0 12 0;
#X connect 12 0 36 0;
#X connect 12 0 37 0;
#X connect 13 0 14 0;
#X connect 14 0 15 0;
#X connect 15 0 14 1;
#X connect 15 0 16 0;
#X connect 16 0 9 0;
#X connect 17 0 13 0;
#X connect 18 0 13 0;
#X connect 19 0 13 1;
#X connect 20 0 26 0;
#X connect 21 0 25 0;
#X connect 27 0 19 0;
#X connect 29 0 20 0;
#X connect 31 0 21 0;
#X connect 32 0 6 0;
#X connect 33 0 17 0;
#X coords 0 -1 1 1 242 200 1 10 22;
