#N canvas 265 130 575 428 10;
#X obj 65 75 bng 15 250 50 0 empty empty empty 17 7 0 10 -262144 -1
-1;
#X text 275 12 \$1 amplitude \$2 relative duration \$3 relative frequency
\$4 detune;
#X text 83 95 Relative Frequqncy;
#X text 402 87 ATTACK;
#X text 242 125 DECAY;
#X obj 200 90 t b b;
#X obj 65 125 f \$3;
#X obj 65 179 *;
#X obj 65 212 + \$4;
#X obj 65 249 osc~;
#X floatatom 15 249 5 0 0 0 - - -;
#X obj 65 286 *~;
#X obj 200 122 del 5;
#X obj 406 107 f \$1;
#X obj 200 151 f \$2;
#X obj 200 200 *;
#X msg 200 228 0 \$1;
#X obj 200 261 line~;
#X obj 201 294 *~;
#X obj 201 331 *~;
#X obj 406 139 * 0.3;
#X obj 406 170 sqrt;
#X obj 406 200 sqrt;
#X msg 406 234 \$1 5;
#X text 408 258 Attack Time 5 (msec);
#X text 234 324 Quadratic amplitude curve;
#X text 236 156 relative duration;
#X text 68 359 Add to GLOBAL (sum)ming bus;
#X obj 66 328 throw~ sumVII;
#X obj 80 149 r frequency7;
#X obj 215 173 r duration7;
#X obj 65 46 r trigger7;
#X connect 0 0 5 0;
#X connect 0 0 6 0;
#X connect 5 0 12 0;
#X connect 5 1 13 0;
#X connect 6 0 7 0;
#X connect 7 0 8 0;
#X connect 8 0 9 0;
#X connect 8 0 10 0;
#X connect 9 0 11 0;
#X connect 11 0 28 0;
#X connect 12 0 14 0;
#X connect 13 0 20 0;
#X connect 14 0 15 0;
#X connect 15 0 16 0;
#X connect 16 0 17 0;
#X connect 17 0 18 0;
#X connect 17 0 18 1;
#X connect 18 0 19 0;
#X connect 18 0 19 1;
#X connect 19 0 11 1;
#X connect 20 0 21 0;
#X connect 21 0 22 0;
#X connect 22 0 23 0;
#X connect 23 0 17 0;
#X connect 29 0 7 1;
#X connect 30 0 15 1;
#X connect 31 0 0 0;
