#N canvas 456 229 455 298 10;
#X obj 260 72 metro;
#X obj 196 57 bng 15 250 50 0 empty empty empty 17 7 0 10 -262144 -1
-1;
#X floatatom 196 77 5 0 0 0 - - -;
#X obj 259 93 f;
#X obj 288 93 + 1;
#X obj 316 92 % 2;
#X msg 216 53 stop;
#X obj 345 109 bng 20 250 50 0 empty empty empty 17 7 0 10 -262144
-1 -1;
#X obj 345 133 s trigger;
#X text 345 91 PLAY;
#X floatatom 194 163 5 0 0 0 - - -;
#X obj 339 179 mtof;
#X obj 339 202 s frequency;
#X floatatom 195 203 5 0 0 0 - - -;
#X obj 260 219 * 100;
#X obj 260 241 s duration;
#X obj 261 137 metro;
#X obj 260 158 f;
#X obj 289 158 + 1;
#X obj 317 157 % 137;
#X msg 218 119 stop;
#X obj 196 122 bng 15 250 50 0 empty empty empty 17 7 0 10 -262144
-1 -1;
#X msg 221 141 80;
#X obj 105 39 chline;
#X obj 18 39 chline;
#X text 193 186 Duration;
#X text 193 35 Trigger;
#X text 194 100 Freq;
#X obj 19 250 outlet~;
#X obj 106 252 outlet~;
#X obj 195 140 bng 15 250 50 0 empty empty empty 17 7 0 10 -262144
-1 -1;
#X obj 105 3 catch~ sumV;
#X obj 143 232 plist05;
#X obj 55 230 plist04;
#X obj 17 4 catch~ sumIV;
#X connect 0 0 3 0;
#X connect 1 0 0 0;
#X connect 2 0 0 1;
#X connect 3 0 4 0;
#X connect 4 0 3 1;
#X connect 4 0 5 0;
#X connect 5 0 7 0;
#X connect 6 0 0 0;
#X connect 7 0 8 0;
#X connect 10 0 11 0;
#X connect 11 0 12 0;
#X connect 13 0 14 0;
#X connect 14 0 15 0;
#X connect 16 0 17 0;
#X connect 17 0 18 0;
#X connect 18 0 17 1;
#X connect 18 0 19 0;
#X connect 19 0 10 0;
#X connect 20 0 16 0;
#X connect 21 0 16 0;
#X connect 22 0 16 1;
#X connect 23 0 29 0;
#X connect 24 0 28 0;
#X connect 30 0 22 0;
#X connect 31 0 23 0;
#X connect 34 0 24 0;
#X coords 0 -1 1 1 242 200 1 10 22;
