#N canvas 348 104 343 300 10;
#X obj 60 112 *~ 0.2;
#X obj 197 24 phasor~;
#X obj 150 79 *~ 2;
#X obj 151 110 -~ 1;
#X obj 150 149 abs~;
#X obj 150 180 *~ -1;
#X obj 66 231 *~;
#X obj 115 229 *~;
#X obj 150 211 +~ 1;
#X obj 47 264 outlet~;
#X obj 124 263 outlet~;
#X obj 150 24 inlet~;
#X connect 0 0 7 0;
#X connect 0 0 6 0;
#X connect 2 0 3 0;
#X connect 3 0 4 0;
#X connect 4 0 5 0;
#X connect 4 0 6 1;
#X connect 5 0 8 0;
#X connect 6 0 9 0;
#X connect 7 0 10 0;
#X connect 8 0 7 1;
#X connect 11 0 2 0;
#X connect 11 0 0 0;
