#N canvas 517 87 602 503 10;
#X declare -lib timestretch;
#X obj 77 478 dac~ 1 2;
#X obj 135 432 recrd;
#X obj 31 415 spats~;
#X msg -14 7 \; pd dsp 1;
#X msg -15 45 \; pd dsp 0;
#X obj 84 234 local_delay;
#X obj 84 275 mixer;
#X obj 59 217 *~;
#X obj 83 315 mixr;
#X obj 309 38 paf-gen-wavshpr;
#X floatatom 309 11 5 0 0 0 - - -;
#X floatatom 415 10 5 0 0 0 - - -;
#X floatatom 522 9 5 0 0 0 - - -;
#X obj 60 9 ts_abs;
#X connect 1 0 0 0;
#X connect 1 1 0 1;
#X connect 2 0 0 0;
#X connect 2 0 1 0;
#X connect 2 1 0 1;
#X connect 2 1 1 1;
#X connect 5 0 6 0;
#X connect 5 0 6 1;
#X connect 6 0 8 0;
#X connect 6 1 8 1;
#X connect 7 0 5 0;
#X connect 8 0 2 0;
#X connect 9 0 7 1;
#X connect 10 0 9 0;
#X connect 11 0 9 1;
#X connect 12 0 9 2;
#X connect 13 0 7 0;
