#N canvas 494 153 699 456 10;
#X obj 286 92 pix_video;
#X obj 286 122 pix_blob 4;
#X obj 286 149 pix_film;
#X obj 351 150 f;
#X obj 286 176 pix_contrast;
#X obj 181 50 vsl 15 40 0 10 0 0 empty empty empty 0 -9 0 10 -262144
-1 -1 0 1;
#X obj 203 50 vsl 15 40 0 10 0 0 empty empty empty 0 -9 0 10 -262144
-1 -1 0 1;
#X obj 452 107 render_trigger;
#X msg 547 141 snap;
#X obj 286 281 translateXYZ;
#X obj 287 375 rotateXYZ;
#X obj 172 111 hsl 40 15 0 2 0 0 empty empty empty -2 -8 0 10 -262144
-1 -1 0 1;
#X obj 452 175 pix_snap 0 0 512 512;
#X obj 452 214 pix_texture;
#X obj 452 270 translateXYZ;
#X obj 452 312 rotateXYZ;
#X obj 452 357 rectangle 4 3;
#X obj 490 336 * 4;
#X obj 526 335 * 3;
#X obj 77 64 hsl 40 15 0 127 0 0 empty empty empty -2 -8 0 10 -262144
-1 -1 0 1;
#X obj 173 142 hsl 40 15 0 1 0 0 empty empty empty -2 -8 0 10 -262144
-1 -1 0 1;
#X obj 452 392 spigot;
#X obj 230 142 tgl 15 0 empty empty empty 17 7 0 10 -262144 -1 -1 0
1;
#X obj 125 80 tgl 15 0 empty empty empty 17 7 0 10 -262144 -1 -1 0
1;
#X obj 306 325 metro 10;
#X obj 308 348 f;
#X obj 337 348 + 1;
#X obj 153 286 metro;
#X floatatom 29 66 5 0 0 0 - - -;
#X obj 10 66 tgl 15 0 empty empty empty 17 7 0 10 -262144 -1 -1 0 1
;
#X obj 155 308 f;
#X obj 148 342 counter;
#X obj 166 377 % 360;
#N canvas 626 401 549 300 colorCh 0;
#X obj 45 11 inlet;
#X obj 109 58 hsl 128 15 0 1 0 0 empty empty empty -2 -8 0 10 -258113
-1 -1 0 1;
#X floatatom 106 110 5 0 0 0 - - -;
#X obj 247 57 hsl 128 15 0 1 0 0 empty empty empty -2 -8 0 10 -4034
-1 -1 0 1;
#X obj 388 57 hsl 128 15 0 1 0 0 empty empty empty -2 -8 0 10 -4160
-1 -1 0 1;
#X obj 47 171 color;
#X obj 225 154 pack f f f;
#X obj 244 106 trigger b f;
#X obj 385 107 trigger b f;
#X obj 47 228 outlet;
#X obj 103 13 inlet;
#X obj 145 30 / 20;
#X obj 243 12 inlet;
#X obj 385 29 / 20;
#X obj 185 11 inlet;
#X obj 219 30 / 20;
#X connect 0 0 5 0;
#X connect 1 0 2 0;
#X connect 1 0 6 0;
#X connect 3 0 7 0;
#X connect 4 0 8 0;
#X connect 5 0 9 0;
#X connect 6 0 5 1;
#X connect 7 0 6 0;
#X connect 7 1 6 1;
#X connect 8 0 6 0;
#X connect 8 1 6 2;
#X connect 10 0 11 0;
#X connect 11 0 1 0;
#X connect 12 0 13 0;
#X connect 13 0 4 0;
#X connect 14 0 15 0;
#X connect 15 0 3 0;
#X restore 286 223 pd colorCh;
#X obj 157 423 % 20;
#X obj 285 252 pix_texture;
#X obj 287 418 cube 0.34;
#X obj 14 121 hsl 128 15 0 30 0 0 empty empty empty -2 -8 0 10 -262144
-1 -1 0 1;
#X msg 453 55 set \$1;
#X floatatom 506 70 5 0 0 0 - - -;
#X obj 452 78 gemhead;
#X obj 13 140 hsl 128 15 0 50 0 0 empty empty empty -2 -8 0 10 -262144
-1 -1 0 1;
#X msg 556 110 set \$1;
#X obj 480 140 gemhead;
#X obj 285 65 gemhead 5;
#X obj 451 417 cube 5;
#X obj 20 10 r o1;
#X obj 50 10 r o2;
#X obj 10 45 bng 15 250 50 0 empty empty empty 17 7 0 10 -262144 -1
-1;
#X obj 125 47 bng 15 250 50 0 empty empty empty 17 7 0 10 -262144 -1
-1;
#X obj 21 325 f;
#X obj 17 388 counter;
#X obj 39 414 % 30;
#X obj 76 45 bng 15 250 50 0 empty empty empty 17 7 0 10 -262144 -1
-1;
#X obj 85 336 f;
#X obj 81 399 counter;
#X obj 85 366 + 10;
#X obj 103 425 % 120;
#X obj 21 356 + 5;
#X obj 562 413 s r1;
#X obj 613 413 s r2;
#X floatatom 588 334 5 0 0 0 - - -;
#X obj 80 10 r o3;
#X obj 125 11 r o4;
#X text 177 31 Contrast;
#X text 165 95 Cube Size;
#X text 122 64 XY Timer;
#X text 121 30 GEMhead;
#X text 6 29 Rotate XY;
#X text 70 29 Rotate Z;
#X msg 370 358 draw line;
#X msg 371 381 draw fill;
#X obj 205 17 bng 15 250 50 0 empty empty empty 17 7 0 10 -262144 -1
-1;
#X obj 224 17 bng 15 250 50 0 empty empty empty 17 7 0 10 -262144 -1
-1;
#X text 176 14 Draw;
#X text 203 2 L;
#X text 224 2 F;
#X text 11 101 Set gemheadII (monitor);
#X text 166 126 Set rectangle;
#X connect 0 0 1 0;
#X connect 1 0 2 0;
#X connect 2 0 4 0;
#X connect 2 2 3 0;
#X connect 3 0 2 1;
#X connect 4 0 33 0;
#X connect 5 0 4 1;
#X connect 6 0 4 2;
#X connect 7 0 12 0;
#X connect 7 2 8 0;
#X connect 8 0 12 0;
#X connect 9 0 10 0;
#X connect 10 0 36 0;
#X connect 11 0 36 1;
#X connect 12 0 13 0;
#X connect 13 0 14 0;
#X connect 14 0 15 0;
#X connect 15 0 16 0;
#X connect 16 0 21 0;
#X connect 17 0 16 1;
#X connect 18 0 16 2;
#X connect 18 0 61 0;
#X connect 19 0 15 3;
#X connect 20 0 17 0;
#X connect 20 0 18 0;
#X connect 21 0 45 0;
#X connect 22 0 21 1;
#X connect 23 0 24 0;
#X connect 24 0 25 0;
#X connect 25 0 26 0;
#X connect 25 0 10 1;
#X connect 25 0 10 2;
#X connect 26 0 25 1;
#X connect 27 0 30 0;
#X connect 28 0 27 1;
#X connect 29 0 27 0;
#X connect 30 0 31 0;
#X connect 31 0 32 0;
#X connect 31 0 34 0;
#X connect 32 0 15 1;
#X connect 32 0 15 2;
#X connect 32 0 10 3;
#X connect 33 0 35 0;
#X connect 34 0 33 1;
#X connect 34 0 33 2;
#X connect 35 0 9 0;
#X connect 37 0 38 0;
#X connect 37 0 39 0;
#X connect 38 0 40 0;
#X connect 39 0 59 0;
#X connect 40 0 7 0;
#X connect 41 0 42 0;
#X connect 42 0 43 0;
#X connect 43 0 12 0;
#X connect 44 0 0 0;
#X connect 46 0 48 0;
#X connect 47 0 28 0;
#X connect 48 0 29 0;
#X connect 49 0 50 0;
#X connect 50 0 58 0;
#X connect 51 0 52 0;
#X connect 52 0 37 0;
#X connect 53 0 54 0;
#X connect 54 0 56 0;
#X connect 55 0 57 0;
#X connect 56 0 55 0;
#X connect 57 0 19 0;
#X connect 58 0 51 0;
#X connect 61 0 60 0;
#X connect 62 0 53 0;
#X connect 63 0 49 0;
#X connect 70 0 36 0;
#X connect 70 0 45 0;
#X connect 71 0 36 0;
#X connect 71 0 45 0;
#X connect 72 0 70 0;
#X connect 73 0 71 0;
#X coords 0 -1 1 1 245 160 1 5 5;
