#N canvas 310 7 607 663 10;
#X obj 97 82 t b f;
#X obj 202 132 t b f;
#X floatatom 202 107 5 0 0 0 - - -;
#X floatatom 47 110 10 0 0 0 - - -;
#X floatatom 135 149 10 0 0 0 - - -;
#X obj 134 174 expr (pow (2 \, ( $f2/12 ) ) - 1 ) * ( 44100/$f1 );
#X floatatom 109 206 5 0 0 0 - - -;
#X obj 179 202 / 44.1;
#X floatatom 179 229 5 0 0 0 - - -;
#X obj 65 240 phasor~;
#X obj 65 282 *~ -1;
#X obj 64 357 *~;
#X obj 331 298 wrap~;
#X obj 65 314 +~ 1;
#X obj 111 317 sig~;
#X obj 111 341 samphold~;
#X obj 280 366 *~ -1;
#X obj 310 441 *~;
#X obj 281 401 +~ 1;
#X obj 324 367 sig~;
#X obj 325 391 samphold~;
#X obj 74 387 vd~ b1;
#X obj 310 469 vd~ b1;
#X obj 426 414 cos~;
#X obj 365 412 sig~ 1;
#X obj 366 439 -~;
#X obj 310 498 *~;
#X obj 230 342 cos~;
#X obj 182 341 sig~ 1;
#X obj 182 373 -~;
#X obj 75 434 *~;
#X floatatom 341 500 5 0 1 0 - - -;
#X obj 104 504 *~;
#X floatatom 178 438 5 0 0 0 - - -;
#X text 258 211 Freq;
#X text 300 212 Freq Offset;
#X obj 168 510 *~;
#X obj 309 525 *~;
#X obj 97 37 inlet;
#X obj 202 37 inlet;
#X obj 380 522 inlet~;
#X obj 105 568 outlet~;
#X obj 167 566 outlet~;
#X obj 302 231 inlet;
#X obj 258 231 inlet;
#X obj 309 555 delwrite~ b1 5000;
#X obj 332 274 +~ 0.2;
#X obj 182 399 *~ 0.2;
#X obj 366 465 *~ 0.2;
#X connect 0 0 2 0;
#X connect 0 1 4 0;
#X connect 1 0 4 0;
#X connect 1 1 5 1;
#X connect 2 0 1 0;
#X connect 4 0 5 0;
#X connect 4 0 7 0;
#X connect 5 0 6 0;
#X connect 6 0 9 0;
#X connect 7 0 8 0;
#X connect 8 0 14 0;
#X connect 8 0 19 0;
#X connect 9 0 10 0;
#X connect 9 0 27 0;
#X connect 9 0 15 1;
#X connect 9 0 46 0;
#X connect 10 0 13 0;
#X connect 11 0 21 0;
#X connect 12 0 16 0;
#X connect 12 0 20 1;
#X connect 12 0 23 0;
#X connect 13 0 11 0;
#X connect 14 0 15 0;
#X connect 15 0 11 1;
#X connect 16 0 18 0;
#X connect 17 0 22 0;
#X connect 17 0 32 1;
#X connect 17 0 36 1;
#X connect 18 0 17 0;
#X connect 19 0 20 0;
#X connect 20 0 17 1;
#X connect 21 0 30 0;
#X connect 22 0 26 0;
#X connect 23 0 25 1;
#X connect 24 0 25 0;
#X connect 25 0 48 0;
#X connect 26 0 37 0;
#X connect 27 0 29 1;
#X connect 28 0 29 0;
#X connect 29 0 47 0;
#X connect 30 0 32 0;
#X connect 30 0 36 0;
#X connect 31 0 37 1;
#X connect 32 0 41 0;
#X connect 36 0 42 0;
#X connect 37 0 45 0;
#X connect 38 0 0 0;
#X connect 38 0 3 0;
#X connect 39 0 2 0;
#X connect 40 0 45 0;
#X connect 43 0 18 1;
#X connect 43 0 13 1;
#X connect 44 0 16 1;
#X connect 44 0 10 1;
#X connect 46 0 12 0;
#X connect 47 0 30 1;
#X connect 48 0 26 1;
