#N canvas 200 94 1077 505 10;
#N canvas 0 0 450 300 (subpatch) 0;
#X array bdR 10278 float 2;
#X coords 0 1 10278 -1 160 100 1 0 0;
#X restore 674 343 graph;
#X msg 30 19 read -resize C:/Joseph/Lowriders/ModernKits/Kicks/Kick16.wav
bdR;
#X msg 355 18 read -resize C:/Joseph/Lowriders/ModernKits/Kicks/Kick01.wav
bdR;
#X msg 680 16 read -resize C:/Joseph/Lowriders/ModernKits/Kicks/Kick10.wav
bdR;
#X obj 31 108 soundfiler;
#X floatatom 30 248 5 0 0 0 - - -;
#X obj 31 339 +~;
#X floatatom 31 133 5 0 0 0 - - -;
#X obj 31 163 expr 44100 / $f1;
#X obj 31 205 phasor~;
#X obj 30 278 square~;
#X obj 31 369 delay~ 100;
#X obj 31 305 *~ 356;
#X obj 115 322 hip~;
#X obj 152 305 +;
#X obj 33 404 tabread4~ bdR;
#X obj 681 127 metro;
#X obj 681 159 f;
#X obj 731 161 + 1;
#X obj 681 193 % 8;
#X obj 681 225 hradio 15 1 0 8 empty empty empty 0 -8 0 10 -262144
-1 -1 7;
#X obj 681 256 sel 0 1 2 3 4 5 6 7 8;
#X msg 163 163 0;
#X obj 456 273 tgl 15 0 empty empty empty 17 7 0 10 -262144 -1 -1 1
1;
#X floatatom 559 289 5 0 0 0 - - -;
#X obj 529 287 +;
#X msg 498 287 50;
#X obj 411 288 bng 15 250 50 0 empty empty empty 17 7 0 10 -262144
-1 -1;
#X msg 44 56 read -resize C:/Joseph/Lowriders/ModernKits/Kicks/Kick06.wav
bdR;
#X msg 369 55 read -resize C:/Joseph/Lowriders/ModernKits/Kicks/Kick19.wav
bdR;
#X msg 694 53 read -resize C:/Joseph/Lowriders/ModernKits/Kicks/Kick20.wav
bdR;
#X obj 161 241 square~;
#X floatatom 187 322 5 0 0 0 - - -;
#X obj 116 258 *~;
#X obj 656 97 inlet;
#X obj 34 438 outlet~;
#X obj 163 118 inlet;
#X obj 209 164 inlet;
#X floatatom 240 211 5 0 0 0 - - -;
#X obj 539 110 inlet;
#X connect 1 0 4 0;
#X connect 2 0 4 0;
#X connect 3 0 4 0;
#X connect 4 0 7 0;
#X connect 5 0 10 0;
#X connect 5 0 14 0;
#X connect 6 0 11 0;
#X connect 7 0 8 0;
#X connect 8 0 9 0;
#X connect 9 0 33 0;
#X connect 10 0 12 0;
#X connect 11 0 15 0;
#X connect 12 0 6 0;
#X connect 13 0 6 1;
#X connect 14 0 13 1;
#X connect 14 0 32 0;
#X connect 15 0 35 0;
#X connect 16 0 17 0;
#X connect 17 0 18 0;
#X connect 17 0 19 0;
#X connect 18 0 17 1;
#X connect 19 0 20 0;
#X connect 20 0 21 0;
#X connect 21 0 23 0;
#X connect 21 1 1 0;
#X connect 21 2 28 0;
#X connect 21 4 2 0;
#X connect 21 5 29 0;
#X connect 21 6 30 0;
#X connect 21 7 3 0;
#X connect 22 0 5 0;
#X connect 23 0 26 0;
#X connect 23 0 27 0;
#X connect 24 0 14 1;
#X connect 24 0 12 1;
#X connect 25 0 24 0;
#X connect 26 0 25 0;
#X connect 28 0 4 0;
#X connect 29 0 4 0;
#X connect 30 0 4 0;
#X connect 31 0 33 1;
#X connect 33 0 13 0;
#X connect 34 0 16 0;
#X connect 36 0 22 0;
#X connect 37 0 31 0;
#X connect 37 0 9 1;
#X connect 37 0 38 0;
#X connect 39 0 16 1;
#X connect 39 0 25 1;
#X connect 39 0 5 0;
