#N canvas 145 113 1087 505 10;
#N canvas 0 0 450 300 (subpatch) 0;
#X array snR 6095 float 2;
#X coords 0 1 6095 -1 160 100 1 0 0;
#X restore 676 316 graph;
#X obj 33 81 soundfiler;
#X floatatom 32 221 5 0 0 0 - - -;
#X obj 33 312 +~;
#X floatatom 33 106 5 0 0 0 - - -;
#X obj 33 136 expr 44100 / $f1;
#X obj 34 354 delay~ 100;
#X obj 33 278 *~ 356;
#X floatatom 163 170 5 0 0 0 - - -;
#X obj 154 278 +;
#X obj 683 100 metro;
#X obj 683 132 f;
#X obj 733 134 + 1;
#X obj 683 166 % 8;
#X obj 683 198 hradio 15 1 0 8 empty empty empty 0 -8 0 10 -262144
-1 -1 0;
#X obj 683 229 sel 0 1 2 3 4 5 6 7 8;
#X msg 165 136 0;
#X obj 458 246 tgl 15 0 empty empty empty 17 7 0 10 -262144 -1 -1 0
1;
#X floatatom 561 262 5 0 0 0 - - -;
#X obj 531 260 +;
#X msg 500 260 50;
#X obj 413 261 bng 15 250 50 0 empty empty empty 17 7 0 10 -262144
-1 -1;
#X floatatom 546 84 5 0 0 0 - - -;
#X floatatom 189 295 5 0 0 0 - - -;
#X obj 118 231 *~;
#X obj 117 295 lop~;
#X obj 33 333 lop~ 2600;
#X obj 33 178 osc~;
#X obj 163 213 triangle~;
#X obj 32 251 phasor~;
#X obj 35 377 tabread4~ snR;
#X msg 32 -7 read -resize C:/Joseph/Lowriders/ModernKits/Snares/Snare02.wav
snR;
#X msg 46 29 read -resize C:/Joseph/Lowriders/ModernKits/Snares/Snare06.wav
snR;
#X msg 373 -9 read -resize C:/Joseph/Lowriders/ModernKits/Snares/Snare01.wav
snR;
#X msg 371 28 read -resize C:/Joseph/Lowriders/ModernKits/Snares/Snare05.wav
snR;
#X msg 696 -9 read -resize C:/Joseph/Lowriders/ModernKits/Snares/Snare03.wav
snR;
#X msg 695 28 read -resize C:/Joseph/Lowriders/ModernKits/Snares/Snare04.wav
snR;
#X obj 35 414 outlet~;
#X obj 165 100 inlet;
#X obj 664 71 inlet;
#X connect 1 0 4 0;
#X connect 2 0 8 0;
#X connect 2 0 9 0;
#X connect 2 0 22 0;
#X connect 2 0 29 0;
#X connect 3 0 26 0;
#X connect 4 0 5 0;
#X connect 5 0 27 0;
#X connect 6 0 30 0;
#X connect 7 0 3 0;
#X connect 8 0 27 1;
#X connect 8 0 28 0;
#X connect 9 0 23 0;
#X connect 9 0 25 1;
#X connect 10 0 11 0;
#X connect 11 0 12 0;
#X connect 11 0 13 0;
#X connect 12 0 11 1;
#X connect 13 0 14 0;
#X connect 14 0 15 0;
#X connect 15 0 17 0;
#X connect 15 1 31 0;
#X connect 15 2 32 0;
#X connect 15 4 33 0;
#X connect 15 5 34 0;
#X connect 15 6 36 0;
#X connect 15 7 35 0;
#X connect 16 0 2 0;
#X connect 17 0 20 0;
#X connect 17 0 21 0;
#X connect 18 0 9 1;
#X connect 18 0 7 1;
#X connect 19 0 18 0;
#X connect 20 0 19 0;
#X connect 22 0 10 1;
#X connect 22 0 19 1;
#X connect 24 0 25 0;
#X connect 25 0 3 1;
#X connect 26 0 6 0;
#X connect 27 0 24 0;
#X connect 28 0 24 1;
#X connect 29 0 7 0;
#X connect 30 0 37 0;
#X connect 31 0 1 0;
#X connect 32 0 1 0;
#X connect 33 0 1 0;
#X connect 34 0 1 0;
#X connect 35 0 1 0;
#X connect 36 0 1 0;
#X connect 38 0 16 0;
#X connect 39 0 10 1;
