#N canvas 500 15 881 570 10;
#X obj 110 280 triangle~;
#X msg 11 193 20;
#X msg 73 192 40;
#X obj 195 264 sig~;
#X msg 104 192 1 1000;
#X obj 233 211 hsl 128 15 0 1 0 0 empty empty empty -2 -8 0 10 -262144
-1 -1 5080 1;
#X obj 161 492 sig~;
#X obj 164 466 hsl 128 15 0 1 0 0 empty empty empty -2 -8 0 10 -262144
-1 -1 0 1;
#X obj 62 473 *~;
#X obj 62 518 dac~ 1 2;
#X obj 138 11 tgl 15 0 empty empty empty 17 7 0 10 -262144 -1 -1 0
1;
#X obj 138 35 metro 200;
#X obj 138 62 f;
#X obj 138 88 counter;
#X obj 60 161 bng 15 250 50 0 empty empty empty 17 7 0 10 -262144 -1
-1;
#X msg 10 44 \; pd dsp 1;
#X msg 11 11 \; pd dsp 0;
#X floatatom 229 284 5 0 0 0 - - -;
#X msg 42 192 200;
#X obj 21 278 lop~;
#X obj 60 318 *~;
#X obj 62 372 *~;
#X obj 138 124 % 10;
#X obj 151 194 / 10;
#X floatatom 201 8 5 0 0 0 - - -;
#X obj 61 405 *~;
#X obj 251 141 bng 15 250 50 0 empty empty empty 17 7 0 10 -262144
-1 -1;
#X obj 515 170 phasor~;
#X obj 523 229 *~ 256;
#X obj 569 171 osc~;
#X obj 522 257 +~;
#X obj 521 288 delay~ 100;
#X obj 461 169 square~;
#X msg 554 16 1 1000;
#X obj 377 224 lop~;
#X obj 411 341 *~;
#X obj 357 387 *~;
#X obj 426 306 triangle~;
#X msg 397 17 42;
#X msg 497 16 62;
#X msg 442 16 200;
#X obj 410 225 triangle~ 200;
#X obj 373 176 osc~;
#X obj 119 237 square~ 200;
#X obj 674 161 line~;
#X obj 610 177 *~;
#X obj 610 121 square~;
#X obj 611 239 lop~ 200;
#X msg 674 120 1 \, 0 200;
#X msg 634 16 120;
#X obj 304 300 triangle~ 201;
#X obj 56 235 phasor~;
#X obj 229 356 triangle~ 200;
#X obj 487 404 line~;
#X obj 448 420 *~;
#X obj 447 454 lop~ 200;
#X obj 447 375 osc~;
#X obj 62 438 *~;
#X msg 487 374 1 \, 0 200;
#X msg 447 341 220;
#X obj 613 500 *~ 0.1;
#X obj 649 432 hsl 128 15 0 1 0 0 empty empty empty -2 -8 0 10 -262144
-1 -1 0 1;
#X obj 646 457 line;
#X obj 659 275 hsl 128 15 0 300 0 0 empty empty empty -2 -8 0 10 -262144
-1 -1 0 1;
#X obj 656 305 line~;
#X obj 655 378 hip~ 200;
#X obj 614 394 *~;
#X obj 655 339 osc~;
#X msg 229 59 8;
#X msg 259 59 10;
#X msg 288 59 12;
#X msg 319 59 16;
#X floatatom 700 304 5 0 0 0 - - -;
#X floatatom 683 456 5 0 0 0 - - -;
#N canvas 555 23 781 640 vis 1;
#X obj 27 16 inlet;
#X msg 314 94 \$1;
#X obj 49 183 rotateXYZ;
#X obj 47 314 square;
#X obj 50 249 color;
#X msg 20 560 1 1 1 0;
#X msg 75 559 0 0 0 0;
#X obj 467 69 knob 32 32 0 1 0 0 empty empty empty 0 -8 0 8 -262144
-1 -1 1240 1;
#X obj 50 215 translateXYZ 0 0 0;
#X obj 199 190 rotateXYZ;
#X obj 196 314 square;
#X obj 199 252 color;
#X obj 327 189 rotateXYZ;
#X obj 330 310 square;
#X obj 329 254 color;
#X obj 465 188 rotateXYZ;
#X obj 468 312 square;
#X obj 467 254 color;
#X obj 599 191 rotateXYZ;
#X obj 604 318 square;
#X obj 602 256 color;
#X obj 740 188 rotateXYZ;
#X obj 741 316 square;
#X obj 738 261 color;
#X obj 414 363 rotateXYZ;
#X obj 414 484 square;
#X obj 414 433 color;
#X obj 558 367 rotateXYZ;
#X obj 557 486 square;
#X obj 558 435 color;
#X obj 707 370 rotateXYZ;
#X obj 707 491 square;
#X obj 707 438 color;
#X obj 327 218 translateXYZ 6 0 0;
#X obj 465 221 translateXYZ -6 3 0;
#X obj 602 222 translateXYZ 3 0 0;
#X obj 738 219 translateXYZ 3 0 0;
#X obj 558 403 translateXYZ 3 0 0;
#X obj 707 405 translateXYZ 3 0 0;
#X obj 414 402 translateXYZ -6 -6 0;
#X msg 131 558 1 1 1 0;
#X msg 187 559 0 0 0 0;
#X msg 243 559 1 1 1 0;
#X msg 299 559 0 0 0 0;
#X msg 356 559 1 1 1 0;
#X msg 411 558 0 0 0 0;
#X obj 125 257 rectangle;
#X obj 125 283 triangle;
#X obj 125 312 circle;
#X obj 277 279 triangle;
#X obj 277 308 circle;
#X obj 394 254 rectangle;
#X obj 394 280 triangle;
#X obj 394 309 circle;
#X obj 533 259 rectangle;
#X obj 533 285 triangle;
#X obj 533 314 circle;
#X obj 663 265 rectangle;
#X obj 663 291 triangle;
#X obj 663 315 circle;
#X obj 493 432 rectangle;
#X obj 493 458 triangle;
#X obj 493 484 circle;
#X obj 638 434 rectangle;
#X obj 641 458 triangle;
#X obj 642 485 circle;
#X obj 317 72 hsl 128 15 0 20 0 0 empty empty empty -2 -8 0 10 -262144
-1 -1 2540 1;
#X obj 199 218 translateXYZ -3 0 0;
#X floatatom 529 104 5 0 0 0 - - -;
#X obj 36 60 bng 15 250 50 0 empty empty empty 17 7 0 10 -262144 -1
-1;
#X obj 87 249 color;
#X obj 314 120 gemhead 20;
#X obj 21 92 sel 0 1 2 3 4 5 6 7 8 9 10 11 12 13 14 15 16;
#X floatatom 63 59 5 0 0 0 - - -;
#X obj 82 15 inlet;
#X obj 933 181 rotateXYZ;
#X obj 933 303 square;
#X obj 933 243 color;
#X obj 987 45 knob 32 32 0 1 0 0 empty empty empty 0 -8 0 8 -262144
-1 -1 1240 1;
#X floatatom 1049 80 5 0 0 0 - - -;
#X obj 226 15 inlet;
#X obj 166 16 inlet;
#X msg 862 86 \$1;
#X obj 838 57 hsl 128 15 0 20 0 0 empty empty empty -2 -8 0 10 -262144
-1 -1 2540 1;
#X obj 971 103 gemhead 20;
#X obj 1074 180 rotateXYZ;
#X obj 1074 302 square;
#X obj 1074 242 color;
#X msg 795 557 1 1 1 0;
#X msg 850 556 0 0 0 0;
#X msg 906 555 1 1 1 0;
#X msg 962 556 0 0 0 0;
#X msg 1018 556 1 1 1 0;
#X msg 1074 556 0 0 0 0;
#X msg 1131 556 1 1 1 0;
#X msg 1186 555 0 0 0 0;
#X obj 562 65 sel 0 1 2 3 4 5 6 7 8 9 10 11 12 13 14 15 16;
#X obj 1074 209 translateXYZ 3 0 0;
#X obj 932 208 translateXYZ -1.5 1.5 0;
#X obj 934 364 rotateXYZ;
#X obj 934 486 square;
#X obj 934 426 color;
#X obj 1075 363 rotateXYZ;
#X obj 1075 485 square;
#X obj 1075 425 color;
#X obj 933 391 translateXYZ -3 -3 0;
#X obj 1075 391 translateXYZ 3 0 0;
#X msg 537 540 1 1 1 0;
#X msg 650 541 1 1 1 0;
#X msg 770 537 1 1 1 0;
#X msg 372 515 0.5 0.3 0.4 0;
#X msg 420 537 1 1 1 0;
#X msg 488 517 0.5 0.3 0.4 0;
#X msg 599 515 0.5 0.3 0.4 0;
#X msg 702 516 0.5 0.3 0.4 0;
#X connect 0 0 69 0;
#X connect 0 0 72 0;
#X connect 0 0 73 0;
#X connect 0 0 66 0;
#X connect 1 0 71 0;
#X connect 2 0 8 0;
#X connect 4 0 3 0;
#X connect 7 0 3 1;
#X connect 7 0 10 1;
#X connect 7 0 13 1;
#X connect 7 0 16 1;
#X connect 7 0 22 1;
#X connect 7 0 25 1;
#X connect 7 0 28 1;
#X connect 7 0 31 1;
#X connect 7 0 19 1;
#X connect 7 0 68 0;
#X connect 7 0 55 1;
#X connect 8 0 4 0;
#X connect 8 0 70 0;
#X connect 9 0 67 0;
#X connect 11 0 10 0;
#X connect 12 0 33 0;
#X connect 14 0 13 0;
#X connect 15 0 34 0;
#X connect 17 0 16 0;
#X connect 18 0 35 0;
#X connect 20 0 19 0;
#X connect 21 0 36 0;
#X connect 23 0 22 0;
#X connect 24 0 39 0;
#X connect 26 0 25 0;
#X connect 27 0 37 0;
#X connect 29 0 28 0;
#X connect 30 0 38 0;
#X connect 32 0 31 0;
#X connect 33 0 14 0;
#X connect 34 0 17 0;
#X connect 35 0 20 0;
#X connect 36 0 23 0;
#X connect 37 0 29 0;
#X connect 38 0 32 0;
#X connect 39 0 26 0;
#X connect 66 0 1 0;
#X connect 67 0 11 0;
#X connect 71 0 2 0;
#X connect 71 0 9 0;
#X connect 71 0 12 0;
#X connect 71 0 15 0;
#X connect 71 0 18 0;
#X connect 71 0 21 0;
#X connect 71 0 24 0;
#X connect 71 0 27 0;
#X connect 71 0 30 0;
#X connect 72 0 5 0;
#X connect 72 1 6 0;
#X connect 72 2 40 0;
#X connect 72 3 41 0;
#X connect 72 4 42 0;
#X connect 72 5 43 0;
#X connect 72 6 44 0;
#X connect 72 7 45 0;
#X connect 72 8 5 0;
#X connect 72 9 6 0;
#X connect 72 10 40 0;
#X connect 72 11 41 0;
#X connect 72 12 42 0;
#X connect 72 13 43 0;
#X connect 72 14 44 0;
#X connect 72 15 45 0;
#X connect 74 0 7 0;
#X connect 75 0 98 0;
#X connect 77 0 76 0;
#X connect 78 0 79 0;
#X connect 79 0 76 1;
#X connect 79 0 86 1;
#X connect 79 0 100 1;
#X connect 79 0 103 1;
#X connect 80 0 78 0;
#X connect 81 0 83 0;
#X connect 81 0 96 0;
#X connect 82 0 84 0;
#X connect 83 0 82 0;
#X connect 84 0 75 0;
#X connect 84 0 85 0;
#X connect 84 0 99 0;
#X connect 84 0 102 0;
#X connect 85 0 97 0;
#X connect 87 0 86 0;
#X connect 96 0 88 0;
#X connect 96 0 110 0;
#X connect 96 1 89 0;
#X connect 96 1 112 0;
#X connect 96 2 90 0;
#X connect 96 3 91 0;
#X connect 96 3 111 0;
#X connect 96 4 92 0;
#X connect 96 4 107 0;
#X connect 96 5 93 0;
#X connect 96 6 94 0;
#X connect 96 6 113 0;
#X connect 96 7 95 0;
#X connect 96 7 114 0;
#X connect 96 8 88 0;
#X connect 96 9 89 0;
#X connect 96 9 108 0;
#X connect 96 10 90 0;
#X connect 96 11 91 0;
#X connect 96 11 109 0;
#X connect 96 12 92 0;
#X connect 96 13 93 0;
#X connect 96 14 94 0;
#X connect 96 15 95 0;
#X connect 97 0 87 0;
#X connect 98 0 77 0;
#X connect 99 0 105 0;
#X connect 101 0 100 0;
#X connect 102 0 106 0;
#X connect 104 0 103 0;
#X connect 105 0 101 0;
#X connect 106 0 104 0;
#X connect 107 0 87 1;
#X connect 108 0 101 1;
#X connect 109 0 104 1;
#X connect 110 0 77 1;
#X connect 111 0 77 1;
#X connect 112 0 87 1;
#X connect 113 0 101 1;
#X connect 114 0 104 1;
#X restore 269 275 pd vis;
#X floatatom 150 218 5 0 0 0 - - -;
#X obj 77 11 tgl 15 0 empty empty empty 17 7 0 10 -262144 -1 -1 0 1
;
#X msg 86 34 create;
#X msg 83 86 destroy;
#X obj 60 121 gemwin;
#X obj 231 192 hsl 128 15 0 1 0 0 empty empty empty -2 -8 0 10 -262144
-1 -1 5080 1;
#X obj 341 145 % 4;
#X obj 292 162 / 4;
#X msg 254 31 8;
#X msg 284 31 10;
#X msg 313 31 12;
#X msg 344 31 16;
#X msg 199 59 4;
#X msg 224 32 4;
#X connect 0 0 20 1;
#X connect 1 0 51 0;
#X connect 2 0 43 0;
#X connect 2 0 51 0;
#X connect 3 0 0 1;
#X connect 4 0 0 0;
#X connect 5 0 3 0;
#X connect 5 0 17 0;
#X connect 5 0 74 1;
#X connect 6 0 8 1;
#X connect 7 0 6 0;
#X connect 8 0 9 0;
#X connect 8 0 9 1;
#X connect 10 0 11 0;
#X connect 11 0 12 0;
#X connect 12 0 13 0;
#X connect 13 0 22 0;
#X connect 13 0 81 0;
#X connect 14 0 1 0;
#X connect 14 0 2 0;
#X connect 14 0 4 0;
#X connect 14 0 18 0;
#X connect 17 0 50 0;
#X connect 17 0 52 0;
#X connect 18 0 19 1;
#X connect 19 0 20 0;
#X connect 20 0 21 0;
#X connect 21 0 25 0;
#X connect 22 0 14 0;
#X connect 22 0 23 0;
#X connect 22 0 26 0;
#X connect 22 0 74 0;
#X connect 23 0 5 0;
#X connect 23 0 75 0;
#X connect 24 0 11 1;
#X connect 25 0 57 0;
#X connect 26 0 38 0;
#X connect 26 0 40 0;
#X connect 26 0 39 0;
#X connect 26 0 33 0;
#X connect 26 0 49 0;
#X connect 26 0 59 0;
#X connect 27 0 28 0;
#X connect 27 0 52 1;
#X connect 28 0 30 0;
#X connect 29 0 28 0;
#X connect 30 0 31 0;
#X connect 31 0 37 1;
#X connect 32 0 28 0;
#X connect 32 0 41 1;
#X connect 32 0 50 1;
#X connect 33 0 37 0;
#X connect 34 0 35 0;
#X connect 35 0 36 0;
#X connect 36 0 25 1;
#X connect 37 0 35 1;
#X connect 38 0 32 0;
#X connect 38 0 42 0;
#X connect 38 0 48 0;
#X connect 39 0 41 0;
#X connect 39 0 42 0;
#X connect 39 0 48 0;
#X connect 40 0 34 1;
#X connect 40 0 27 0;
#X connect 40 0 29 0;
#X connect 41 0 37 0;
#X connect 42 0 34 0;
#X connect 43 0 0 0;
#X connect 44 0 45 1;
#X connect 45 0 47 0;
#X connect 46 0 45 0;
#X connect 47 0 30 1;
#X connect 47 0 66 0;
#X connect 48 0 44 0;
#X connect 49 0 46 0;
#X connect 49 0 32 0;
#X connect 49 0 51 0;
#X connect 50 0 36 1;
#X connect 51 0 19 0;
#X connect 52 0 21 1;
#X connect 53 0 54 1;
#X connect 54 0 55 0;
#X connect 55 0 57 1;
#X connect 56 0 54 0;
#X connect 57 0 8 0;
#X connect 58 0 53 0;
#X connect 59 0 56 0;
#X connect 59 0 58 0;
#X connect 60 0 9 0;
#X connect 60 0 9 1;
#X connect 61 0 62 0;
#X connect 61 0 73 0;
#X connect 62 0 60 1;
#X connect 63 0 64 0;
#X connect 63 0 72 0;
#X connect 64 0 67 0;
#X connect 65 0 66 1;
#X connect 66 0 60 0;
#X connect 67 0 65 0;
#X connect 68 0 22 1;
#X connect 68 0 23 1;
#X connect 69 0 22 1;
#X connect 69 0 23 1;
#X connect 70 0 22 1;
#X connect 70 0 23 1;
#X connect 71 0 22 1;
#X connect 71 0 23 1;
#X connect 76 0 79 0;
#X connect 77 0 79 0;
#X connect 78 0 79 0;
#X connect 80 0 74 3;
#X connect 81 0 74 2;
#X connect 81 0 82 0;
#X connect 82 0 80 0;
#X connect 83 0 81 1;
#X connect 83 0 82 1;
#X connect 84 0 81 1;
#X connect 84 0 82 1;
#X connect 85 0 81 1;
#X connect 85 0 82 1;
#X connect 86 0 81 1;
#X connect 86 0 82 1;
#X connect 87 0 22 1;
#X connect 87 0 23 1;
#X connect 88 0 81 1;
#X connect 88 0 82 1;
