#N canvas 296 47 1062 614 10;
#X obj 39 -9 tgl 15 0 empty empty empty 17 7 0 10 -262144 -1 -1 0 1
;
#X msg 61 -5 create;
#X msg 70 19 destroy;
#X obj 37 40 gemwin;
#X msg 281 12 \$1;
#X obj 278 35 gemhead;
#X obj 162 225 rotateXYZ;
#X obj 159 343 square;
#X obj 42 400 hradio 15 1 0 8 empty empty empty 0 -8 0 10 -262144 -1
-1 1;
#X obj 40 322 f;
#X obj 40 347 counter;
#X obj 40 295 metro;
#X floatatom 87 269 5 0 0 0 - - -;
#X obj 40 270 tgl 15 0 empty empty empty 17 7 0 10 -262144 -1 -1 0
1;
#X obj 162 278 color;
#X msg 36 560 1 1 1 0;
#X msg 92 561 0 0 0 0;
#X obj 41 440 sel 0 1 2 3 4 5 6 7;
#X obj 42 372 % 8;
#X obj 35 119 f;
#X obj 35 144 counter;
#X obj 35 92 metro;
#X floatatom 82 66 5 0 0 0 - - -;
#X obj 34 69 tgl 15 0 empty empty empty 17 7 0 10 -262144 -1 -1 0 1
;
#X obj 23 196 hradio 15 1 0 8 empty empty empty 0 -8 0 10 -262144 -1
-1 1;
#X obj 38 169 % 8;
#X obj 51 233 / 8;
#X obj 506 -3 knob 32 32 0 1 0 0 empty empty empty 0 -8 0 8 -262144
-1 -1 387 1;
#X obj 162 252 translateXYZ 0 0 0;
#X obj 301 217 rotateXYZ;
#X obj 298 341 square;
#X obj 301 279 color;
#X obj 439 216 rotateXYZ;
#X obj 442 337 square;
#X obj 441 281 color;
#X obj 585 216 rotateXYZ;
#X obj 588 340 square;
#X obj 587 282 color;
#X obj 727 217 rotateXYZ;
#X obj 733 346 square;
#X obj 730 282 color;
#X obj 870 213 rotateXYZ;
#X obj 871 341 square;
#X obj 868 286 color;
#X obj 523 435 rotateXYZ;
#X obj 521 548 square;
#X obj 521 497 color;
#X obj 667 439 rotateXYZ;
#X obj 664 550 square;
#X obj 665 499 color;
#X obj 816 442 rotateXYZ;
#X obj 814 555 square;
#X obj 814 502 color;
#X obj 439 245 translateXYZ 6 0 0;
#X obj 585 249 translateXYZ -6 3 0;
#X obj 730 248 translateXYZ 3 0 0;
#X obj 868 244 translateXYZ 3 0 0;
#X obj 665 467 translateXYZ 3 0 0;
#X obj 814 469 translateXYZ 3 0 0;
#X obj 521 468 translateXYZ -6 -6 0;
#X msg 148 561 1 1 1 0;
#X msg 204 562 0 0 0 0;
#X msg 260 562 1 1 1 0;
#X msg 316 563 0 0 0 0;
#X msg 373 563 1 1 1 0;
#X msg 429 564 0 0 0 0;
#X obj 237 286 rectangle;
#X obj 237 312 triangle;
#X obj 237 341 circle;
#X obj 379 306 triangle;
#X obj 379 335 circle;
#X obj 518 282 rectangle;
#X obj 518 308 triangle;
#X obj 518 337 circle;
#X obj 665 288 rectangle;
#X obj 665 314 triangle;
#X obj 665 343 circle;
#X obj 808 290 rectangle;
#X obj 808 316 triangle;
#X obj 808 340 circle;
#X obj 944 289 rectangle;
#X obj 944 315 triangle;
#X obj 944 344 circle;
#X obj 600 496 rectangle;
#X obj 600 522 triangle;
#X obj 600 548 circle;
#X obj 745 498 rectangle;
#X obj 748 522 triangle;
#X obj 752 555 circle;
#X obj 915 502 rectangle;
#X obj 915 528 triangle;
#X obj 917 554 circle;
#X obj 284 -12 hsl 128 15 0 20 0 0 empty empty empty -2 -8 0 10 -262144
-1 -1 11500 1;
#X obj 301 245 translateXYZ -3 0 0;
#X obj 278 63 pix_video;
#X obj 159 108 pix_blob 4;
#X obj 159 135 pix_film;
#X obj 224 136 f;
#X obj 159 162 pix_contrast;
#X obj 253 137 vsl 15 40 0 10 0 0 empty empty empty 0 -9 0 10 -262144
-1 -1 400 1;
#X obj 275 137 vsl 15 40 0 10 0 0 empty empty empty 0 -9 0 10 -262144
-1 -1 400 1;
#X obj 159 311 pix_texture;
#X obj 300 307 pix_texture;
#X obj 303 113 pix_blob 4;
#X obj 303 140 pix_film;
#X obj 368 141 f;
#X obj 303 167 pix_contrast;
#X obj 397 142 vsl 15 40 0 10 0 0 empty empty empty 0 -9 0 10 -262144
-1 -1 300 1;
#X obj 419 142 vsl 15 40 0 10 0 0 empty empty empty 0 -9 0 10 -262144
-1 -1 2500 1;
#X obj 438 115 pix_blob 4;
#X obj 438 142 pix_film;
#X obj 503 143 f;
#X obj 438 169 pix_contrast;
#X obj 532 144 vsl 15 40 0 10 0 0 empty empty empty 0 -9 0 10 -262144
-1 -1 600 1;
#X obj 554 144 vsl 15 40 0 10 0 0 empty empty empty 0 -9 0 10 -262144
-1 -1 2500 1;
#X obj 588 116 pix_blob 4;
#X obj 588 143 pix_film;
#X obj 653 144 f;
#X obj 588 170 pix_contrast;
#X obj 682 145 vsl 15 40 0 10 0 0 empty empty empty 0 -9 0 10 -262144
-1 -1 400 1;
#X obj 704 145 vsl 15 40 0 10 0 0 empty empty empty 0 -9 0 10 -262144
-1 -1 1300 1;
#X obj 731 118 pix_blob 4;
#X obj 731 145 pix_film;
#X obj 796 146 f;
#X obj 731 172 pix_contrast;
#X obj 825 147 vsl 15 40 0 10 0 0 empty empty empty 0 -9 0 10 -262144
-1 -1 600 1;
#X obj 847 147 vsl 15 40 0 10 0 0 empty empty empty 0 -9 0 10 -262144
-1 -1 1700 1;
#X obj 872 121 pix_blob 4;
#X obj 872 148 pix_film;
#X obj 937 149 f;
#X obj 872 175 pix_contrast;
#X obj 966 150 vsl 15 40 0 10 0 0 empty empty empty 0 -9 0 10 -262144
-1 -1 1800 1;
#X obj 988 150 vsl 15 40 0 10 0 0 empty empty empty 0 -9 0 10 -262144
-1 -1 3400 1;
#X obj 442 308 pix_texture;
#X obj 587 312 pix_texture;
#X obj 727 315 pix_texture;
#X obj 864 315 pix_texture;
#X obj 521 522 pix_texture;
#X obj 672 525 pix_texture;
#X obj 812 528 pix_texture;
#X obj 522 359 pix_blob 4;
#X obj 522 386 pix_film;
#X obj 587 387 f;
#X obj 522 413 pix_contrast;
#X obj 616 388 vsl 15 40 0 10 0 0 empty empty empty 0 -9 0 10 -262144
-1 -1 0 1;
#X obj 638 388 vsl 15 40 0 10 0 0 empty empty empty 0 -9 0 10 -262144
-1 -1 1800 1;
#X obj 666 364 pix_blob 4;
#X obj 666 391 pix_film;
#X obj 731 392 f;
#X obj 666 418 pix_contrast;
#X obj 760 393 vsl 15 40 0 10 0 0 empty empty empty 0 -9 0 10 -262144
-1 -1 0 1;
#X obj 777 394 vsl 15 40 0 10 0 0 empty empty empty 0 -9 0 10 -262144
-1 -1 1300 1;
#X obj 813 365 pix_blob 4;
#X obj 813 392 pix_film;
#X obj 878 393 f;
#X obj 813 419 pix_contrast;
#X obj 907 394 vsl 15 40 0 10 0 0 empty empty empty 0 -9 0 10 -262144
-1 -1 700 1;
#X obj 929 394 vsl 15 40 0 10 0 0 empty empty empty 0 -9 0 10 -262144
-1 -1 2700 1;
#X connect 0 0 3 0;
#X connect 1 0 3 0;
#X connect 2 0 3 0;
#X connect 4 0 5 0;
#X connect 5 0 94 0;
#X connect 6 0 28 0;
#X connect 8 0 17 0;
#X connect 9 0 10 0;
#X connect 10 0 18 0;
#X connect 11 0 9 0;
#X connect 12 0 11 1;
#X connect 13 0 11 0;
#X connect 14 0 101 0;
#X connect 15 0 40 1;
#X connect 15 0 14 1;
#X connect 16 0 40 1;
#X connect 16 0 14 1;
#X connect 17 0 15 0;
#X connect 17 1 16 0;
#X connect 17 2 60 0;
#X connect 17 3 61 0;
#X connect 17 4 62 0;
#X connect 17 5 63 0;
#X connect 17 6 64 0;
#X connect 17 7 65 0;
#X connect 18 0 8 0;
#X connect 19 0 20 0;
#X connect 20 0 25 0;
#X connect 21 0 19 0;
#X connect 22 0 21 1;
#X connect 23 0 21 0;
#X connect 24 0 26 0;
#X connect 25 0 24 0;
#X connect 26 0 27 0;
#X connect 27 0 7 1;
#X connect 27 0 30 1;
#X connect 27 0 33 1;
#X connect 27 0 36 1;
#X connect 27 0 42 1;
#X connect 27 0 45 1;
#X connect 27 0 51 1;
#X connect 27 0 39 1;
#X connect 27 0 91 1;
#X connect 27 0 87 1;
#X connect 28 0 14 0;
#X connect 29 0 93 0;
#X connect 31 0 102 0;
#X connect 32 0 53 0;
#X connect 34 0 133 0;
#X connect 35 0 54 0;
#X connect 37 0 134 0;
#X connect 38 0 55 0;
#X connect 40 0 135 0;
#X connect 41 0 56 0;
#X connect 43 0 136 0;
#X connect 44 0 59 0;
#X connect 46 0 137 0;
#X connect 47 0 57 0;
#X connect 49 0 138 0;
#X connect 50 0 58 0;
#X connect 52 0 139 0;
#X connect 53 0 34 0;
#X connect 54 0 37 0;
#X connect 55 0 40 0;
#X connect 56 0 43 0;
#X connect 57 0 49 0;
#X connect 58 0 52 0;
#X connect 59 0 46 0;
#X connect 60 0 31 1;
#X connect 60 0 43 1;
#X connect 60 0 52 1;
#X connect 61 0 31 1;
#X connect 61 0 43 1;
#X connect 61 0 52 1;
#X connect 62 0 34 1;
#X connect 62 0 46 1;
#X connect 63 0 34 1;
#X connect 63 0 46 1;
#X connect 64 0 37 1;
#X connect 64 0 49 1;
#X connect 65 0 37 1;
#X connect 65 0 49 1;
#X connect 92 0 4 0;
#X connect 93 0 31 0;
#X connect 94 0 95 0;
#X connect 94 0 103 0;
#X connect 94 0 109 0;
#X connect 94 0 115 0;
#X connect 94 0 121 0;
#X connect 94 0 127 0;
#X connect 94 0 140 0;
#X connect 94 0 146 0;
#X connect 94 0 152 0;
#X connect 95 0 96 0;
#X connect 96 0 98 0;
#X connect 96 2 97 0;
#X connect 97 0 96 1;
#X connect 98 0 6 0;
#X connect 99 0 98 1;
#X connect 100 0 98 2;
#X connect 101 0 7 0;
#X connect 102 0 30 0;
#X connect 103 0 104 0;
#X connect 104 0 106 0;
#X connect 104 2 105 0;
#X connect 105 0 104 1;
#X connect 106 0 29 0;
#X connect 107 0 106 1;
#X connect 108 0 106 2;
#X connect 109 0 110 0;
#X connect 110 0 112 0;
#X connect 110 2 111 0;
#X connect 111 0 110 1;
#X connect 112 0 32 0;
#X connect 113 0 112 1;
#X connect 114 0 112 2;
#X connect 115 0 116 0;
#X connect 116 0 118 0;
#X connect 116 2 117 0;
#X connect 117 0 116 1;
#X connect 118 0 35 0;
#X connect 119 0 118 1;
#X connect 120 0 118 2;
#X connect 121 0 122 0;
#X connect 122 0 124 0;
#X connect 122 2 123 0;
#X connect 123 0 122 1;
#X connect 124 0 38 0;
#X connect 125 0 124 1;
#X connect 126 0 124 2;
#X connect 127 0 128 0;
#X connect 128 0 130 0;
#X connect 128 2 129 0;
#X connect 129 0 128 1;
#X connect 130 0 41 0;
#X connect 131 0 130 1;
#X connect 132 0 130 2;
#X connect 133 0 33 0;
#X connect 134 0 36 0;
#X connect 135 0 39 0;
#X connect 136 0 42 0;
#X connect 137 0 45 0;
#X connect 138 0 87 0;
#X connect 139 0 91 0;
#X connect 140 0 141 0;
#X connect 141 0 143 0;
#X connect 141 2 142 0;
#X connect 142 0 141 1;
#X connect 143 0 44 0;
#X connect 144 0 143 1;
#X connect 145 0 143 2;
#X connect 146 0 147 0;
#X connect 147 0 149 0;
#X connect 147 2 148 0;
#X connect 148 0 147 1;
#X connect 149 0 47 0;
#X connect 150 0 149 1;
#X connect 151 0 149 2;
#X connect 152 0 153 0;
#X connect 153 0 155 0;
#X connect 153 2 154 0;
#X connect 154 0 153 1;
#X connect 155 0 50 0;
#X connect 156 0 155 1;
#X connect 157 0 155 2;
