#N canvas 681 144 450 300 10;
#X obj 51 47 tgl 15 0 empty empty empty 17 7 0 10 -262144 -1 -1 1 1
;
#X msg 83 24 create;
#X msg 99 53 destroy;
#X obj 55 85 gemwin;
#X obj 210 55 gemhead;
#X obj 210 93 pix_video;
#X obj 208 121 pix_blob 4;
#X obj 194 197 pix_texture;
#X obj 228 172 color;
#X obj 298 267 rotateXYZ;
#X obj 370 150 metro;
#X floatatom 394 117 5 0 0 0 - - -;
#X obj 365 106 tgl 15 0 empty empty empty 17 7 0 10 -262144 -1 -1 1
1;
#X obj 372 177 f;
#X obj 371 207 counter;
#X obj 338 233 % 360;
#X floatatom 305 180 5 0 0 0 - - -;
#X obj 193 230 translateXYZ 0 -1.5 0;
#X msg 306 142 1 0 0 1;
#X obj 206 272 cube 4;
#X obj 61 206 osc~;
#X obj 51 169 * 400;
#X obj 109 166 * 400;
#X obj 149 182 * 400;
#X obj 100 211 osc~;
#X obj 141 225 osc~;
#X obj 92 274 dac~;
#X floatatom 23 211 5 0 0 0 - - -;
#X obj 67 237 *~ 0.5;
#X obj 120 249 *~ 0.5;
#X connect 0 0 3 0;
#X connect 1 0 3 0;
#X connect 2 0 3 0;
#X connect 4 0 5 0;
#X connect 5 0 6 0;
#X connect 6 0 8 0;
#X connect 6 1 21 0;
#X connect 6 2 22 0;
#X connect 6 3 23 0;
#X connect 7 0 17 0;
#X connect 8 0 7 0;
#X connect 9 0 19 0;
#X connect 10 0 13 0;
#X connect 11 0 10 1;
#X connect 12 0 10 0;
#X connect 13 0 14 0;
#X connect 14 0 15 0;
#X connect 15 0 9 1;
#X connect 15 0 9 2;
#X connect 15 0 9 3;
#X connect 17 0 9 0;
#X connect 18 0 8 1;
#X connect 20 0 28 0;
#X connect 21 0 20 0;
#X connect 21 0 27 0;
#X connect 22 0 24 0;
#X connect 23 0 25 0;
#X connect 24 0 29 0;
#X connect 28 0 26 0;
#X connect 28 0 26 1;
#X connect 29 0 26 0;
#X connect 29 0 26 1;
