#N canvas 64 7 1075 544 10;
#N canvas 0 0 450 300 (subpatch) 0;
#X array bd 10278 float 2;
#X coords 0 1 10278 -1 160 100 1 0 0;
#X restore 506 227 graph;
#X obj 23 50 soundfiler;
#X obj 113 318 samphold~;
#X floatatom 22 211 5 0 0 0 - - -;
#X obj 23 303 +~;
#X floatatom 23 82 5 0 0 0 - - -;
#X obj 112 195 *~;
#X obj 130 275 samphold~;
#X obj 170 194 *~;
#X obj 121 227 osc~;
#N canvas 0 0 450 300 (subpatch) 0;
#X array sn 11982 float 2;
#X coords 0 1 11982 -1 160 100 1 0 0;
#X restore 505 345 graph;
#X obj 94 83 soundfiler;
#X floatatom 94 114 5 0 0 0 - - -;
#X obj 23 140 expr 44100 / $f1;
#X obj 135 130 expr 44100 / $f1;
#X obj 24 367 tabread4~ bd;
#X obj 108 367 tabread4~ sn;
#X obj 160 108 soundfiler;
#X obj 199 193 phasor~;
#X floatatom 261 125 5 0 0 0 - - -;
#X obj 199 159 expr 44100 / $f1;
#X obj 236 313 samphold~;
#X obj 236 227 *~;
#X floatatom 189 227 5 0 0 0 - - -;
#X obj 190 294 *~ 256;
#X obj 191 326 +~;
#X obj 188 255 phasor~;
#X obj 192 366 tabread4~ mc;
#N canvas 0 0 450 300 (subpatch) 0;
#X array mc 8646 float 2;
#X coords 0 1 8646 -1 160 100 1 0 0;
#X restore 696 230 graph;
#X obj 302 118 soundfiler;
#X obj 303 213 phasor~;
#X floatatom 365 145 5 0 0 0 - - -;
#X obj 303 179 expr 44100 / $f1;
#X obj 350 326 samphold~;
#X obj 350 247 *~;
#X obj 298 369 delay~ 100;
#X floatatom 271 237 5 0 0 0 - - -;
#X obj 297 302 *~ 256;
#X obj 297 339 +~;
#X obj 299 399 tabread4~ chh;
#N canvas 0 0 450 300 (subpatch) 0;
#X array chh 16088 float 2;
#X coords 0 1 16088 -1 160 100 1 0 0;
#X restore 696 343 graph;
#X obj 109 479 dac~;
#X obj 215 476 s~ smpls;
#X obj 23 177 phasor~;
#X obj 135 177 phasor~;
#X obj 22 241 square~;
#X obj 23 332 delay~ 100;
#X obj 883 53 metro;
#X floatatom 1023 33 5 0 0 0 - - -;
#X obj 882 29 tgl 15 0 empty empty empty 17 7 0 10 -262144 -1 -1 0
1;
#X obj 884 85 f;
#X obj 934 87 + 1;
#X obj 884 119 % 8;
#X obj 882 151 hradio 15 1 0 8 empty empty empty 0 -8 0 10 -262144
-1 -1 4;
#X obj 511 167 tgl 15 0 empty empty empty 17 7 0 10 -262144 -1 -1 0
1;
#X obj 881 180 sel 0 1 2 3 4 5 6 7 8;
#X obj 296 266 square~;
#X obj 23 273 *~ 356;
#X floatatom 450 271 5 0 0 0 - - -;
#X obj 447 217 +;
#X msg 447 182 50;
#X msg 94 18 read -resize C:/Joseph/Lowriders/ModernKits/Snares/Snare04.wav
sn;
#X msg 22 -18 read -resize C:/Joseph/Lowriders/ModernKits/Kicks/Kick16.wav
bd;
#X msg 256 87 read -resize C:/Joseph/Lowriders/ModernKits/Percussion/Perc50.wav
chh;
#X msg 347 -19 read -resize C:/Joseph/Lowriders/ModernKits/Kicks/Kick01.wav
bd;
#X msg 672 -21 read -resize C:/Joseph/Lowriders/ModernKits/Kicks/Kick10.wav
bd;
#X msg 160 51 read -resize C:/Joseph/Lowriders/ModernKits/Hihats/HiHat09.wav
mc;
#X msg 426 19 read -resize C:/Joseph/Lowriders/ModernKits/Snares/Snare02.wav
sn;
#X msg 497 54 read -resize C:/Joseph/Lowriders/ModernKits/Hihats/HiHat06.wav
mc;
#X msg 512 123 read -resize C:/Joseph/Lowriders/ModernKits/Percussion/Perc49.wav
chh;
#X obj 424 154 bng 15 250 50 0 empty empty empty 17 7 0 10 -262144
-1 -1;
#X msg 626 188 0;
#X connect 1 0 5 0;
#X connect 2 0 4 1;
#X connect 3 0 9 0;
#X connect 3 0 45 0;
#X connect 3 0 48 0;
#X connect 4 0 46 0;
#X connect 5 0 6 1;
#X connect 5 0 8 1;
#X connect 5 0 13 0;
#X connect 6 0 2 0;
#X connect 8 0 7 0;
#X connect 9 0 7 1;
#X connect 9 0 57 0;
#X connect 11 0 12 0;
#X connect 12 0 14 0;
#X connect 13 0 43 0;
#X connect 13 0 44 0;
#X connect 14 0 43 0;
#X connect 14 0 44 0;
#X connect 15 0 42 0;
#X connect 15 0 41 0;
#X connect 15 0 41 1;
#X connect 16 0 42 0;
#X connect 16 0 41 0;
#X connect 16 0 41 1;
#X connect 17 0 19 0;
#X connect 18 0 22 0;
#X connect 19 0 20 0;
#X connect 19 0 22 1;
#X connect 20 0 18 0;
#X connect 21 0 25 1;
#X connect 22 0 21 0;
#X connect 23 0 26 0;
#X connect 24 0 25 0;
#X connect 25 0 27 0;
#X connect 26 0 24 0;
#X connect 26 0 21 1;
#X connect 27 0 42 0;
#X connect 27 0 41 0;
#X connect 27 0 41 1;
#X connect 29 0 31 0;
#X connect 30 0 34 0;
#X connect 31 0 32 0;
#X connect 31 0 34 1;
#X connect 32 0 30 0;
#X connect 33 0 38 1;
#X connect 34 0 33 0;
#X connect 35 0 39 0;
#X connect 36 0 56 0;
#X connect 37 0 38 0;
#X connect 38 0 35 0;
#X connect 39 0 42 0;
#X connect 39 0 41 0;
#X connect 39 0 41 1;
#X connect 43 0 6 0;
#X connect 44 0 8 0;
#X connect 45 0 2 1;
#X connect 45 0 57 0;
#X connect 46 0 15 0;
#X connect 46 0 16 0;
#X connect 47 0 50 0;
#X connect 48 0 47 1;
#X connect 48 0 59 1;
#X connect 49 0 47 0;
#X connect 50 0 51 0;
#X connect 50 0 52 0;
#X connect 51 0 50 1;
#X connect 52 0 53 0;
#X connect 53 0 55 0;
#X connect 54 0 62 0;
#X connect 54 0 60 0;
#X connect 54 0 70 0;
#X connect 55 0 54 0;
#X connect 55 1 61 0;
#X connect 55 2 64 0;
#X connect 55 3 69 0;
#X connect 55 4 65 0;
#X connect 55 5 66 0;
#X connect 55 5 67 0;
#X connect 55 6 68 0;
#X connect 55 7 63 0;
#X connect 56 0 33 1;
#X connect 56 0 37 0;
#X connect 57 0 4 0;
#X connect 58 0 57 1;
#X connect 58 0 24 1;
#X connect 58 0 37 1;
#X connect 59 0 58 0;
#X connect 60 0 59 0;
#X connect 61 0 11 0;
#X connect 62 0 1 0;
#X connect 63 0 29 0;
#X connect 64 0 1 0;
#X connect 65 0 1 0;
#X connect 66 0 17 0;
#X connect 67 0 11 0;
#X connect 68 0 17 0;
#X connect 69 0 29 0;
#X connect 70 0 3 0;
#X connect 70 0 23 0;
#X connect 70 0 36 0;
#X connect 71 0 3 0;
#X connect 71 0 23 0;
#X connect 71 0 36 0;
