#N canvas 468 245 651 407 10;
#X obj 367 258 bng 15 250 50 0 empty empty empty 17 7 0 10 -262144
-1 -1;
#X obj 394 257 bng 15 250 50 0 empty empty empty 17 7 0 10 -262144
-1 -1;
#X obj 424 257 bng 15 250 50 0 empty empty empty 17 7 0 10 -262144
-1 -1;
#X text 364 242 On;
#X text 422 241 Playbk;
#X text 338 243 REC;
#X obj 339 259 tgl 15 0 empty empty empty 17 7 0 10 -262144 -1 -1 0
1;
#X text 391 241 Stop;
#X text 336 228 RECORDING;
#X obj 220 355 dac~ 1 2;
#X obj 294 274 *~;
#X obj 220 257 *~;
#X obj 293 300 rec_file;
#X msg 19 311 roomsize \$1;
#X msg 20 268 damping \$1;
#X obj 22 290 hsl 60 15 0 1 0 0 empty empty empty -2 -8 0 10 -262144
-1 -1 0 1;
#X obj 23 249 hsl 60 15 0 1 0 0 empty empty empty -2 -8 0 10 -262144
-1 -1 0 1;
#X obj 104 291 hsl 60 15 0 1 0 0 empty empty empty -2 -8 0 10 -262144
-1 -1 0 1;
#X obj 103 248 hsl 60 15 0 1 0 0 empty empty empty -2 -8 0 10 -262144
-1 -1 0 1;
#X obj 104 331 hsl 60 15 0 0.5 0 0 empty empty empty -2 -8 0 10 -262144
-1 -1 0 1;
#X msg 100 310 width \$1;
#X msg 100 267 wet \$1;
#X msg 101 349 dry \$1;
#X obj 218 162 freeverb~;
#X obj 250 240 sig~;
#X obj 253 195 hsl 128 15 0 1 0 0 empty empty empty -2 -8 0 10 -262144
-1 -1 0 1;
#X floatatom 282 241 5 0 0 0 - - -;
#X obj 219 200 +~;
#X msg 20 16 \; pd dsp 0;
#X msg 21 -18 \; pd dsp 1;
#X obj 95 -18 GrnSynBassDrm;
#X obj 22 81 r~ Bds;
#X obj 81 81 hsl 128 15 0 1 0 0 empty empty empty -2 -8 0 10 -262144
-1 -1 0 1;
#X obj 78 115 line;
#X floatatom 111 115 5 0 0 0 - - -;
#X obj 23 132 *~ 0.1;
#X obj 239 80 r~ Sns;
#X obj 239 131 *~ 0.1;
#X obj 299 80 hsl 128 15 0 1 0 0 empty empty empty -2 -8 0 10 -262144
-1 -1 0 1;
#X obj 296 114 line;
#X floatatom 329 114 5 0 0 0 - - -;
#X obj 95 3 GrnSynBassSnr;
#X connect 0 0 12 2;
#X connect 1 0 12 3;
#X connect 2 0 12 4;
#X connect 6 0 10 1;
#X connect 10 0 12 1;
#X connect 10 0 12 0;
#X connect 11 0 9 0;
#X connect 11 0 9 1;
#X connect 11 0 10 0;
#X connect 12 0 9 0;
#X connect 12 1 9 1;
#X connect 13 0 23 0;
#X connect 14 0 23 0;
#X connect 15 0 13 0;
#X connect 16 0 14 0;
#X connect 17 0 20 0;
#X connect 18 0 21 0;
#X connect 19 0 22 0;
#X connect 20 0 23 0;
#X connect 21 0 23 0;
#X connect 22 0 23 0;
#X connect 23 0 27 0;
#X connect 24 0 11 1;
#X connect 25 0 24 0;
#X connect 25 0 26 0;
#X connect 27 0 11 0;
#X connect 31 0 35 0;
#X connect 32 0 33 0;
#X connect 32 0 34 0;
#X connect 33 0 35 1;
#X connect 35 0 23 0;
#X connect 36 0 37 0;
#X connect 37 0 23 1;
#X connect 38 0 39 0;
#X connect 38 0 40 0;
#X connect 39 0 37 1;
