#N canvas 678 123 565 431 10;
#X obj 13 104 f;
#X obj 40 104 + 1;
#X obj 68 103 % 20;
#X floatatom 89 80 5 0 20 0 - - -;
#X floatatom 108 117 5 0 20 0 - - -;
#X obj 3 72 bng 15 250 50 0 empty empty empty 17 7 0 10 -262144 -1
-1;
#X text 123 72 CA: set col no. (depth) \; default = 20;
#X text 143 111 CA: set row no. (length) \; default = 20;
#X text 18 163 I could use the list pd serialiser or...;
#X obj 293 177 struct;
#X text 16 183 For now - due to issues about arrays \; memory and structs
UPPER LIMIT = 20 for COLS and ROWS;
#X obj 3 219 unpack 0 0 0 0 0 0 0 0 0 0;
#X floatatom -35 253 5 0 0 0 - - -;
#X obj -35 276 s g1;
#X floatatom 1 253 5 0 0 0 - - -;
#X floatatom 37 254 5 0 0 0 - - -;
#X floatatom 72 254 5 0 0 0 - - -;
#X floatatom 107 254 5 0 0 0 - - -;
#X floatatom 179 254 5 0 0 0 - - -;
#X floatatom 214 254 5 0 0 0 - - -;
#X floatatom 143 254 5 0 0 0 - - -;
#X floatatom 249 254 5 0 0 0 - - -;
#X floatatom 284 254 5 0 0 0 - - -;
#X obj 1 276 s g2;
#X obj 38 277 s g3;
#X obj 73 276 s g4;
#X obj 109 276 s g5;
#X obj 146 277 s g6;
#X obj 180 276 s g7;
#X obj 216 276 s g8;
#X obj 253 277 s g9;
#X obj 287 277 s g10;
#X obj 3 44 metro 4000;
#X text 71 44 Set back to INIT;
#X obj 3 18 inlet;
#X obj 60 18 inlet mtimer;
#X obj 3 145 ca-set-row-abstrct;
#X connect 0 0 1 0;
#X connect 1 0 0 1;
#X connect 1 0 2 0;
#X connect 3 0 2 1;
#X connect 4 0 36 1;
#X connect 5 0 0 0;
#X connect 5 0 36 0;
#X connect 11 0 12 0;
#X connect 11 1 14 0;
#X connect 11 2 15 0;
#X connect 11 3 16 0;
#X connect 11 4 17 0;
#X connect 11 5 20 0;
#X connect 11 6 18 0;
#X connect 11 7 19 0;
#X connect 11 8 21 0;
#X connect 11 9 22 0;
#X connect 12 0 13 0;
#X connect 14 0 23 0;
#X connect 15 0 24 0;
#X connect 16 0 25 0;
#X connect 17 0 26 0;
#X connect 18 0 28 0;
#X connect 19 0 29 0;
#X connect 20 0 27 0;
#X connect 21 0 30 0;
#X connect 22 0 31 0;
#X connect 32 0 5 0;
#X connect 34 0 32 0;
#X connect 35 0 32 1;
#X connect 36 0 11 0;
