#N canvas 820 54 509 404 10;
#X obj 111 74 metro 100;
#X obj 111 95 f;
#X obj 138 95 + 1;
#X obj 63 59 tgl 15 0 empty empty empty 17 7 0 10 -262144 -1 -1 0 1
;
#X obj 166 131 bng 15 250 50 0 empty empty empty 17 7 0 10 -262144
-1 -1;
#X obj 187 146 random 2;
#X msg 233 172 0;
#X obj 166 94 % 20;
#X obj 63 157 bng 15 250 50 0 empty empty empty 17 7 0 10 -262144 -1
-1;
#X obj 125 140 sel 0;
#X floatatom 208 35 5 0 0 0 - - -;
#X text 186 131 Give me a 0 or 1;
#X text 121 54 My iterative list counter 1 lvl depth;
#X text 47 257 This "tab" (trigger) grows the list;
#X obj 187 189 list;
#X obj 187 241 t a l;
#X obj 316 206 list length;
#X floatatom 316 224 5 0 0 0 - - -;
#X obj 404 310 print l;
#X obj 328 293 spigot;
#X obj 316 261 moses 22;
#X msg 376 261 0;
#X obj 376 224 bng 15 250 50 0 empty empty empty 17 7 0 10 -262144
-1 -1;
#X obj 63 12 inlet toggle;
#X obj 186 11 inlet row-limit;
#X obj 320 366 outlet list;
#X obj 234 366 print my_pack;
#X obj 234 338 pack 0 0 0 0 0 0 0 0 0 0;
#X connect 0 0 1 0;
#X connect 1 0 2 0;
#X connect 2 0 1 1;
#X connect 2 0 7 0;
#X connect 3 0 0 0;
#X connect 4 0 5 0;
#X connect 5 0 14 0;
#X connect 6 0 14 0;
#X connect 6 0 14 1;
#X connect 7 0 4 0;
#X connect 7 0 9 0;
#X connect 8 0 3 0;
#X connect 8 0 6 0;
#X connect 9 0 8 0;
#X connect 14 0 15 0;
#X connect 14 0 16 0;
#X connect 14 0 19 0;
#X connect 15 0 14 1;
#X connect 16 0 17 0;
#X connect 17 0 20 0;
#X connect 19 0 22 0;
#X connect 19 0 27 0;
#X connect 19 0 27 1;
#X connect 19 0 27 7;
#X connect 19 0 27 6;
#X connect 19 0 27 5;
#X connect 19 0 27 4;
#X connect 19 0 27 3;
#X connect 19 0 27 2;
#X connect 19 0 27 8;
#X connect 19 0 27 9;
#X connect 20 1 19 1;
#X connect 21 0 19 1;
#X connect 22 0 21 0;
#X connect 23 0 3 0;
#X connect 24 0 7 1;
#X connect 24 0 10 0;
#X connect 27 0 25 0;
#X connect 27 0 26 0;
