#N canvas 151 2 1059 652 10;
#X msg 80 261 20;
#X msg 142 260 40;
#X msg 174 258 1 1000;
#X obj 326 230 hsl 128 15 0 1 0 0 empty empty empty -2 -8 0 10 -262144
-1 -1 0 1;
#X obj 110 30 tgl 15 0 empty empty empty 17 7 0 10 -262144 -1 -1 1
1;
#X obj 110 54 metro 200;
#X obj 110 81 f;
#X obj 144 98 counter;
#X obj 183 196 bng 15 250 50 0 empty empty empty 17 7 0 10 -262144
-1 -1;
#X msg 12 67 \; pd dsp 1;
#X msg 12 33 \; pd dsp 0;
#X msg 111 260 200;
#X obj 182 136 % 10;
#X obj 283 212 / 10;
#X floatatom 161 29 5 0 0 0 - - -;
#X msg 235 55 8;
#X msg 268 54 10;
#X msg 300 53 12;
#X msg 333 52 16;
#X floatatom 404 331 5 0 0 0 - - -;
#X obj 325 212 hsl 128 15 0 1 0 0 empty empty empty -2 -8 0 10 -262144
-1 -1 0 1;
#X obj 343 168 % 4;
#X obj 389 185 / 4;
#X msg 397 51 8;
#X msg 429 51 10;
#X msg 461 51 12;
#X msg 495 52 16;
#X msg 203 55 4;
#X msg 365 52 4;
#X obj 410 541 bng 15 250 50 0 empty empty empty 17 7 0 10 -262144
-1 -1;
#X obj 437 540 bng 15 250 50 0 empty empty empty 17 7 0 10 -262144
-1 -1;
#X obj 467 540 bng 15 250 50 0 empty empty empty 17 7 0 10 -262144
-1 -1;
#X text 407 525 On;
#X text 465 524 Playbk;
#X text 381 526 REC;
#X obj 382 542 tgl 15 0 empty empty empty 17 7 0 10 -262144 -1 -1 0
1;
#X text 434 524 Stop;
#X text 379 511 RECORDING;
#X msg 543 149 1 1000;
#X msg 447 151 42;
#X msg 513 149 62;
#X msg 480 150 200;
#X msg 619 215 1 \, 0 200;
#X msg 595 148 120;
#X floatatom 728 239 5 0 0 0 - - -;
#X obj 762 267 * -1;
#X obj 797 279 * -2;
#X msg 771 238 1;
#X msg 874 148 1 \, 0 190;
#X msg 751 148 120;
#X msg 780 148 220;
#X msg 810 148 320;
#X msg 839 148 420;
#X obj 665 32 notein;
#X obj 665 62 mtof;
#X floatatom 619 49 5 0 0 0 - - -;
#X floatatom 702 63 5 0 0 0 - - -;
#X floatatom 747 49 5 0 0 0 - - -;
#X obj 185 355 hsl 128 15 0 1 0 0 empty empty empty -2 -8 0 10 -262144
-1 -1 12600 1;
#X floatatom 194 385 5 0 0 0 - - -;
#X obj 689 522 hsl 128 15 0 1 0 0 empty empty empty -2 -8 0 10 -262144
-1 -1 12700 1;
#X obj 670 573 line;
#X floatatom 709 571 5 0 0 0 - - -;
#X obj 634 310 hsl 128 15 0 1 0 0 empty empty empty -2 -8 0 10 -262144
-1 -1 12700 1;
#X obj 608 347 line;
#X floatatom 641 347 5 0 0 0 - - -;
#X obj 899 237 hsl 128 15 0 0.4 0 0 empty empty empty -2 -8 0 10 -262144
-1 -1 1900 1;
#N canvas 516 207 475 368 chainIV 0;
#X obj 390 254 sig~;
#X obj 29 69 phasor~;
#X obj 107 67 phasor~;
#X obj 30 178 clip~ 0 1;
#X obj 106 179 clip~ 0 1;
#X obj 90 227 +~;
#X obj 30 143 -~ -1;
#X obj 106 144 -~ -1;
#X obj 182 181 clip~ 0 1;
#X obj 166 243 +~;
#X obj 183 69 osc~;
#X obj 182 146 -~ -1;
#X obj 183 107 *~ -1;
#X obj 107 105 *~ -1;
#X obj 30 107 *~ -1;
#X obj 289 260 *~;
#X obj 294 69 line~;
#X obj 268 102 *~;
#X obj 303 119 lop~ 200;
#X obj 241 67 osc~;
#X obj 346 293 *~;
#X obj 132 42 inlet;
#X obj 183 40 inlet;
#X obj 241 38 inlet;
#X obj 294 37 inlet;
#X obj 348 37 inlet;
#X obj 390 36 inlet;
#X obj 29 39 inlet;
#X obj 345 330 outlet~;
#X obj 73 40 inlet;
#X connect 0 0 20 1;
#X connect 1 0 14 0;
#X connect 2 0 13 0;
#X connect 3 0 5 0;
#X connect 4 0 5 1;
#X connect 5 0 9 0;
#X connect 6 0 3 0;
#X connect 7 0 4 0;
#X connect 8 0 9 1;
#X connect 9 0 15 0;
#X connect 10 0 12 0;
#X connect 11 0 8 0;
#X connect 12 0 11 0;
#X connect 13 0 7 0;
#X connect 14 0 6 0;
#X connect 15 0 20 0;
#X connect 16 0 17 1;
#X connect 17 0 18 0;
#X connect 18 0 15 1;
#X connect 19 0 17 0;
#X connect 20 0 28 0;
#X connect 21 0 2 0;
#X connect 22 0 10 0;
#X connect 23 0 19 0;
#X connect 24 0 16 0;
#X connect 25 0 18 1;
#X connect 26 0 0 0;
#X connect 27 0 1 0;
#X connect 29 0 1 1;
#X restore 847 439 pd chainIV;
#N canvas 420 54 882 443 CHAIN_CORE_II 0;
#X obj 464 97 phasor~;
#X obj 464 161 *~ 256;
#X obj 518 98 osc~;
#X obj 465 196 +~;
#X obj 464 227 delay~ 100;
#X obj 390 98 square~;
#X obj 218 219 lop~;
#X obj 286 305 *~;
#X obj 286 361 *~;
#X obj 316 243 triangle~;
#X obj 315 140 triangle~ 200;
#X obj 217 134 osc~;
#X obj 718 118 line~;
#X obj 629 134 *~;
#X obj 630 78 square~;
#X obj 175 311 triangle~ 201;
#X obj 87 312 triangle~ 200;
#X obj 775 118 line~;
#X obj 776 213 hip~ 200;
#X obj 629 230 *~;
#X obj 776 174 osc~;
#X obj 630 180 lop~ 220;
#X obj 315 50 inlet;
#X obj 390 48 inlet;
#X obj 436 48 inlet;
#X obj 478 48 inlet;
#X obj 518 48 inlet;
#X obj 560 48 inlet;
#X obj 630 46 inlet;
#X obj 718 45 inlet;
#X obj 821 43 inlet;
#X obj 775 45 inlet;
#X obj 87 52 inlet;
#X obj 217 53 inlet;
#X obj 675 46 inlet;
#X obj 87 404 outlet~;
#X obj 627 400 outlet~;
#X obj 260 52 inlet;
#X obj 174 52 inlet;
#X obj 286 401 outlet~;
#X floatatom 833 85 5 0 0 0 - - -;
#X connect 0 0 1 0;
#X connect 0 0 16 1;
#X connect 1 0 3 0;
#X connect 2 0 1 0;
#X connect 3 0 4 0;
#X connect 4 0 9 1;
#X connect 5 0 1 0;
#X connect 5 0 10 1;
#X connect 5 0 15 1;
#X connect 6 0 7 0;
#X connect 7 0 8 0;
#X connect 8 0 39 0;
#X connect 9 0 7 1;
#X connect 10 0 9 0;
#X connect 11 0 6 0;
#X connect 12 0 13 1;
#X connect 13 0 21 0;
#X connect 14 0 13 0;
#X connect 15 0 8 1;
#X connect 16 0 35 0;
#X connect 17 0 20 0;
#X connect 18 0 19 1;
#X connect 19 0 36 0;
#X connect 20 0 18 0;
#X connect 21 0 3 1;
#X connect 21 0 19 0;
#X connect 22 0 10 0;
#X connect 23 0 5 0;
#X connect 24 0 0 0;
#X connect 25 0 0 1;
#X connect 26 0 2 0;
#X connect 27 0 2 1;
#X connect 28 0 14 0;
#X connect 29 0 12 0;
#X connect 30 0 18 1;
#X connect 30 0 40 0;
#X connect 31 0 17 0;
#X connect 32 0 16 0;
#X connect 33 0 11 0;
#X connect 34 0 21 1;
#X connect 37 0 6 1;
#X connect 38 0 15 0;
#X restore 429 383 pd CHAIN_CORE_II;
#X obj 301 618 dac~ 1 2;
#X obj 337 557 *~;
#X obj 263 540 *~;
#N canvas 732 303 446 219 chainI 0;
#X obj 202 114 triangle~;
#X obj 283 49 sig~;
#X obj 27 89 lop~;
#X obj 27 131 *~;
#X obj 202 49 square~ 200;
#X obj 26 49 phasor~;
#X obj 283 20 inlet;
#X obj 202 21 inlet;
#X obj 65 22 inlet;
#X obj 26 22 inlet;
#X obj 27 185 outlet~;
#X obj 105 23 inlet;
#X obj 162 21 inlet;
#X connect 0 0 3 1;
#X connect 1 0 0 1;
#X connect 2 0 3 0;
#X connect 3 0 10 0;
#X connect 4 0 0 0;
#X connect 5 0 2 0;
#X connect 6 0 1 0;
#X connect 7 0 4 0;
#X connect 8 0 5 1;
#X connect 9 0 5 0;
#X connect 11 0 2 1;
#X connect 12 0 0 0;
#X restore 131 399 pd chainI;
#X obj 336 583 rec_file;
#X obj 887 171 knob 40 40 0 500 0 0 empty empty empty 0 -8 0 8 -262144
-1 -1 0 1;
#X obj 568 74 bng 15 250 50 0 empty empty empty 17 7 0 10 -262144 -1
-1;
#X obj 721 335 knob 40 40 0 1 0 0 empty empty empty 0 -8 0 8 -262144
-1 -1 3900 1;
#X obj 624 257 knob 40 40 0 500 0 0 empty empty empty 0 -8 0 8 -262144
-1 -1 0 1;
#X obj 566 553 *~ 0.1;
#N canvas 486 236 219 166 chainIII 0;
#X obj 84 99 line~;
#X obj 43 115 *~;
#X obj 44 145 lop~ 200;
#X obj 44 71 osc~;
#X msg 84 70 1 \, 0 200;
#X msg 44 35 220;
#X obj 44 7 inlet;
#X obj 42 182 outlet~;
#X connect 0 0 1 1;
#X connect 1 0 2 0;
#X connect 2 0 7 0;
#X connect 3 0 1 0;
#X connect 4 0 0 0;
#X connect 5 0 3 0;
#X connect 5 0 4 0;
#X connect 6 0 5 0;
#X restore 334 355 pd chainIII;
#X obj 184 307 knob 32 32 0 100 0 0 empty empty empty 0 -8 0 8 -262144
-1 -1 1900 1;
#X obj 280 417 *~;
#X obj 428 416 *~;
#N canvas 395 264 450 300 chainV 0;
#X obj 123 59 phasor~;
#X obj 53 63 osc~;
#X obj 85 93 *~;
#X obj 178 94 *~;
#X obj 61 138 *~ 0.3;
#X obj 132 140 *~ 0.3;
#X obj 211 58 triangle~;
#X obj 255 91 *~;
#X obj 215 139 *~ 0.3;
#X obj 309 58 triangle~;
#X obj 338 94 *~;
#X obj 285 138 *~ 0.3;
#X obj 133 224 outlet~;
#X obj 53 22 inlet;
#X obj 139 23 inlet;
#X obj 219 23 inlet;
#X obj 309 22 inlet;
#X obj 369 22 inlet;
#X obj 270 22 inlet;
#X obj 179 23 inlet;
#X obj 93 24 inlet;
#X connect 0 0 3 0;
#X connect 1 0 2 0;
#X connect 2 0 4 0;
#X connect 3 0 5 0;
#X connect 4 0 12 0;
#X connect 5 0 12 0;
#X connect 6 0 7 0;
#X connect 7 0 8 0;
#X connect 8 0 12 0;
#X connect 9 0 10 0;
#X connect 10 0 11 0;
#X connect 11 0 12 0;
#X connect 13 0 1 0;
#X connect 14 0 0 0;
#X connect 15 0 6 0;
#X connect 16 0 9 0;
#X connect 17 0 10 1;
#X connect 18 0 7 1;
#X connect 19 0 3 1;
#X connect 20 0 2 1;
#X restore 692 461 pd chainV;
#X obj 703 493 -~;
#X msg 626 409 60;
#X msg 675 408 120;
#X msg 726 408 240;
#X obj 565 516 *~;
#X floatatom 235 159 5 0 0 0 - - -;
#X msg 773 406 360;
#X obj 799 408 tgl 15 0 empty empty empty 17 7 0 10 -262144 -1 -1 1
1;
#X obj 752 409 tgl 15 0 empty empty empty 17 7 0 10 -262144 -1 -1 1
1;
#X obj 706 407 tgl 15 0 empty empty empty 17 7 0 10 -262144 -1 -1 1
1;
#X obj 656 408 tgl 15 0 empty empty empty 17 7 0 10 -262144 -1 -1 1
1;
#N canvas 457 86 594 345 chainVII 0;
#X obj 142 104 noise~;
#X obj 437 222 line~;
#X obj 290 289 outlet~;
#X obj 289 238 *~;
#X obj 289 175 hip~ 60;
#X obj 288 121 *~ 0.1;
#X obj 289 264 *~ 0.1;
#X obj 289 206 *~ 0.2;
#X obj 465 81 bng 15 250 50 0 empty empty empty 17 7 0 10 -262144 -1
-1;
#X msg 437 154 1 \, 0 300;
#X obj 211 42 inlet;
#X obj 288 45 inlet;
#X obj 336 45 inlet;
#X obj 437 43 inlet;
#X obj 212 82 triangle~;
#X obj 288 79 osc~;
#X obj 336 78 triangle~;
#X connect 0 0 4 0;
#X connect 0 0 5 0;
#X connect 1 0 3 1;
#X connect 3 0 6 0;
#X connect 4 0 7 0;
#X connect 5 0 4 0;
#X connect 6 0 2 0;
#X connect 7 0 3 0;
#X connect 9 0 1 0;
#X connect 10 0 14 0;
#X connect 11 0 15 0;
#X connect 12 0 16 0;
#X connect 13 0 9 0;
#X connect 13 0 8 0;
#X connect 14 0 5 0;
#X connect 15 0 5 0;
#X connect 16 0 5 0;
#X restore 612 461 pd chainVII;
#X obj 613 510 +~;
#X msg 592 409 600;
#X msg 90 496 roomsize \$1;
#X msg 91 453 damping \$1;
#X obj 93 475 hsl 60 15 0 1 0 0 empty empty empty -2 -8 0 10 -262144
-1 -1 3300 1;
#X obj 94 434 hsl 60 15 0 1 0 0 empty empty empty -2 -8 0 10 -262144
-1 -1 5700 1;
#X obj 175 476 hsl 60 15 0 1 0 0 empty empty empty -2 -8 0 10 -262144
-1 -1 3600 1;
#X obj 174 433 hsl 60 15 0 1 0 0 empty empty empty -2 -8 0 10 -262144
-1 -1 1900 1;
#X obj 175 516 hsl 60 15 0 0.5 0 0 empty empty empty -2 -8 0 10 -262144
-1 -1 4600 1;
#X msg 171 495 width \$1;
#X msg 171 452 wet \$1;
#X msg 172 534 dry \$1;
#X obj 282 441 freeverb~;
#X obj 293 523 sig~;
#X obj 296 494 hsl 128 15 0 1 0 0 empty empty empty -2 -8 0 10 -262144
-1 -1 0 1;
#X floatatom 325 524 5 0 0 0 - - -;
#X obj 262 483 +~;
#X obj 425 447 *~;
#X connect 0 0 72 0;
#X connect 1 0 72 0;
#X connect 1 0 72 4;
#X connect 2 0 72 3;
#X connect 4 0 5 0;
#X connect 5 0 6 0;
#X connect 6 0 7 0;
#X connect 7 0 12 0;
#X connect 7 0 21 0;
#X connect 8 0 0 0;
#X connect 8 0 1 0;
#X connect 8 0 2 0;
#X connect 8 0 11 0;
#X connect 8 0 86 0;
#X connect 8 0 97 0;
#X connect 8 0 92 0;
#X connect 8 0 91 0;
#X connect 11 0 72 0;
#X connect 11 0 72 2;
#X connect 12 0 8 0;
#X connect 12 0 13 0;
#X connect 12 0 75 0;
#X connect 12 0 79 0;
#X connect 12 0 89 0;
#X connect 13 0 3 0;
#X connect 13 0 19 0;
#X connect 14 0 5 1;
#X connect 15 0 12 1;
#X connect 15 0 13 1;
#X connect 16 0 12 1;
#X connect 16 0 13 1;
#X connect 17 0 12 1;
#X connect 17 0 13 1;
#X connect 18 0 12 1;
#X connect 18 0 13 1;
#X connect 19 0 68 1;
#X connect 19 0 68 0;
#X connect 21 0 22 0;
#X connect 22 0 20 0;
#X connect 23 0 21 1;
#X connect 23 0 22 1;
#X connect 24 0 21 1;
#X connect 24 0 22 1;
#X connect 25 0 21 1;
#X connect 25 0 22 1;
#X connect 26 0 21 1;
#X connect 26 0 22 1;
#X connect 27 0 12 1;
#X connect 27 0 13 1;
#X connect 28 0 21 1;
#X connect 28 0 22 1;
#X connect 29 0 73 2;
#X connect 30 0 73 3;
#X connect 31 0 73 4;
#X connect 35 0 70 1;
#X connect 39 0 42 0;
#X connect 39 0 68 5;
#X connect 39 0 68 2;
#X connect 40 0 42 0;
#X connect 40 0 68 4;
#X connect 41 0 68 8;
#X connect 41 0 68 6;
#X connect 41 0 68 3;
#X connect 42 0 68 12;
#X connect 43 0 68 10;
#X connect 43 0 68 5;
#X connect 44 0 45 0;
#X connect 44 0 46 0;
#X connect 44 0 67 0;
#X connect 45 0 67 1;
#X connect 45 0 67 2;
#X connect 46 0 67 3;
#X connect 47 0 67 2;
#X connect 48 0 67 5;
#X connect 49 0 44 0;
#X connect 49 0 47 0;
#X connect 49 0 67 4;
#X connect 50 0 44 0;
#X connect 50 0 47 0;
#X connect 50 0 67 4;
#X connect 51 0 44 0;
#X connect 51 0 47 0;
#X connect 51 0 67 4;
#X connect 52 0 44 0;
#X connect 52 0 47 0;
#X connect 52 0 67 4;
#X connect 53 0 54 0;
#X connect 53 0 55 0;
#X connect 53 1 56 0;
#X connect 53 2 57 0;
#X connect 54 0 42 0;
#X connect 54 0 43 0;
#X connect 54 0 49 0;
#X connect 54 0 40 0;
#X connect 54 0 48 0;
#X connect 54 0 41 0;
#X connect 54 0 68 9;
#X connect 54 0 68 7;
#X connect 54 0 68 5;
#X connect 58 0 59 0;
#X connect 58 0 72 5;
#X connect 60 0 61 0;
#X connect 60 0 62 0;
#X connect 61 0 78 1;
#X connect 63 0 64 0;
#X connect 63 0 65 0;
#X connect 64 0 68 13;
#X connect 66 0 67 7;
#X connect 67 0 84 1;
#X connect 68 0 82 0;
#X connect 68 1 82 1;
#X connect 68 2 88 0;
#X connect 70 0 73 1;
#X connect 70 0 73 0;
#X connect 71 0 69 0;
#X connect 71 0 69 1;
#X connect 71 0 70 0;
#X connect 72 0 81 0;
#X connect 73 0 69 0;
#X connect 73 1 69 1;
#X connect 74 0 67 6;
#X connect 75 0 39 0;
#X connect 75 0 50 0;
#X connect 75 0 49 0;
#X connect 75 0 51 0;
#X connect 75 0 52 0;
#X connect 75 0 48 0;
#X connect 75 0 41 0;
#X connect 75 0 40 0;
#X connect 75 0 38 0;
#X connect 75 0 43 0;
#X connect 76 0 68 14;
#X connect 77 0 68 11;
#X connect 78 0 112 1;
#X connect 78 0 113 1;
#X connect 79 0 81 1;
#X connect 80 0 72 1;
#X connect 81 0 108 0;
#X connect 82 0 113 0;
#X connect 83 0 84 0;
#X connect 84 0 96 1;
#X connect 85 0 83 0;
#X connect 86 0 83 2;
#X connect 86 0 95 1;
#X connect 86 0 95 3;
#X connect 87 0 83 4;
#X connect 87 0 95 2;
#X connect 88 0 78 0;
#X connect 90 0 83 6;
#X connect 91 0 83 7;
#X connect 92 0 83 5;
#X connect 93 0 83 3;
#X connect 94 0 83 1;
#X connect 95 0 96 0;
#X connect 96 0 88 1;
#X connect 97 0 95 0;
#X connect 98 0 108 0;
#X connect 99 0 108 0;
#X connect 100 0 98 0;
#X connect 101 0 99 0;
#X connect 102 0 105 0;
#X connect 103 0 106 0;
#X connect 104 0 107 0;
#X connect 105 0 108 0;
#X connect 106 0 108 0;
#X connect 107 0 108 0;
#X connect 108 0 112 0;
#X connect 109 0 71 1;
#X connect 110 0 109 0;
#X connect 110 0 111 0;
#X connect 112 0 71 0;
#X connect 113 0 108 1;
