#N canvas 493 176 481 479 10;
#X obj 97 72 f;
#X obj 124 72 + 1;
#X obj 152 71 % 20;
#X floatatom 173 48 5 0 20 0 - - -;
#X floatatom 192 85 5 0 20 0 - - -;
#X obj 87 24 bng 15 250 50 0 empty empty empty 17 7 0 10 -262144 -1
-1;
#X text 207 40 CA: set col no. (depth) \; default = 20;
#X text 227 79 CA: set row no. (length) \; default = 20;
#X obj 87 113 ca-set-row-abstrct;
#X text 102 131 I could use the list pd serialiser or...;
#X obj 377 145 struct;
#X text 100 151 For now - due to issues about arrays \; memory and
structs UPPER LIMIT = 20 for COLS and ROWS;
#X obj 7 268 tgl 10 0 empty g1 empty 17 7 0 10 -262144 -1 -1 0 1;
#X obj 17 268 tgl 10 0 empty g2 empty 17 7 0 10 -262144 -1 -1 1 1;
#X obj 37 268 tgl 10 0 empty g4 empty 17 7 0 10 -262144 -1 -1 0 1;
#X obj 47 268 tgl 10 0 empty g5 empty 17 7 0 10 -262144 -1 -1 0 1;
#X obj 57 268 tgl 10 0 empty g6 empty 17 7 0 10 -262144 -1 -1 1 1;
#X obj 27 268 tgl 10 0 empty g3 empty 17 7 0 10 -262144 -1 -1 1 1;
#X obj 67 268 tgl 10 0 empty g7 empty 17 7 0 10 -262144 -1 -1 0 1;
#X obj 77 268 tgl 10 0 empty g8 empty 17 7 0 10 -262144 -1 -1 0 1;
#X obj 97 268 tgl 10 0 empty g10 empty 17 7 0 10 -262144 -1 -1 1 1
;
#X obj 87 268 tgl 10 0 empty g9 empty 17 7 0 10 -262144 -1 -1 1 1;
#X obj 87 187 unpack 0 0 0 0 0 0 0 0 0 0;
#X floatatom 49 221 5 0 0 0 - - -;
#X obj 49 244 s g1;
#X floatatom 85 221 5 0 0 0 - - -;
#X floatatom 121 222 5 0 0 0 - - -;
#X floatatom 156 222 5 0 0 0 - - -;
#X floatatom 191 222 5 0 0 0 - - -;
#X floatatom 263 222 5 0 0 0 - - -;
#X floatatom 298 222 5 0 0 0 - - -;
#X floatatom 227 222 5 0 0 0 - - -;
#X floatatom 333 222 5 0 0 0 - - -;
#X floatatom 368 222 5 0 0 0 - - -;
#X obj 85 244 s g2;
#X obj 122 245 s g3;
#X obj 157 244 s g4;
#X obj 193 244 s g5;
#X obj 230 245 s g6;
#X obj 264 244 s g7;
#X obj 300 244 s g8;
#X obj 337 245 s g9;
#X obj 371 245 s g10;
#X text 121 261 Randomiser row could be used for \; track/sound aggrangement/synthesis.
;
#X obj 105 8 tgl 15 0 empty empty empty 17 7 0 10 -262144 -1 -1 0 1
;
#X obj 122 7 metro 4000;
#X obj 47 305 bpmclkmod;
#X text 43 375 Vary BPM on/off;
#X text 45 386 Feedback Loop on Timing;
#X msg 194 7 4000;
#X text 229 3 Set back to INIT;
#X text 104 23 For now: Manually add (not now \; but... yeah);
#X text 11 429 For struct help: --http://puredata.info/Members/ggkarman/Tutoriales/datastruct_en_02/view
\; --http://www.pd-tutorial.com/english/ch05s02.html;
#X connect 0 0 1 0;
#X connect 1 0 0 1;
#X connect 1 0 2 0;
#X connect 3 0 2 1;
#X connect 4 0 8 1;
#X connect 5 0 0 0;
#X connect 5 0 8 0;
#X connect 8 0 22 0;
#X connect 15 0 46 0;
#X connect 22 0 23 0;
#X connect 22 1 25 0;
#X connect 22 2 26 0;
#X connect 22 3 27 0;
#X connect 22 4 28 0;
#X connect 22 5 31 0;
#X connect 22 6 29 0;
#X connect 22 7 30 0;
#X connect 22 8 32 0;
#X connect 22 9 33 0;
#X connect 23 0 24 0;
#X connect 25 0 34 0;
#X connect 26 0 35 0;
#X connect 27 0 36 0;
#X connect 28 0 37 0;
#X connect 29 0 39 0;
#X connect 30 0 40 0;
#X connect 31 0 38 0;
#X connect 32 0 41 0;
#X connect 33 0 42 0;
#X connect 44 0 45 0;
#X connect 45 0 5 0;
#X connect 46 1 45 1;
#X connect 49 0 45 1;
