#N canvas 284 228 502 395 10;
#X obj 104 87 metro 100;
#X obj 104 108 f;
#X obj 131 108 + 1;
#X obj 43 72 tgl 15 0 empty empty empty 17 7 0 10 -262144 -1 -1 1 1
;
#X obj 159 136 bng 15 250 50 0 empty empty empty 17 7 0 10 -262144
-1 -1;
#X obj 180 151 random 2;
#X msg 226 177 0;
#X obj 43 162 bng 15 250 50 0 empty empty empty 17 7 0 10 -262144 -1
-1;
#X obj 118 145 sel 0;
#X text 179 136 Give me a 0 or 1;
#X text 63 70 My iterative list counter 1 lvl depth;
#X text 86 256 This "tab" (trigger) grows the list;
#X obj 180 194 list;
#X obj 180 241 t a l;
#X obj 309 211 list length;
#X obj 321 293 spigot;
#X msg 369 261 0;
#X obj 369 229 bng 15 250 50 0 empty empty empty 17 7 0 10 -262144
-1 -1;
#X obj 373 364 outlet list;
#X obj 287 364 print my_pack;
#X obj 287 329 pack 0 0 0 0;
#X obj 65 45 f;
#X obj 92 45 + 1;
#X obj 43 31 bng 15 250 50 0 empty empty empty 17 7 0 10 -262144 -1
-1;
#X text 182 110 set row no. (length) \;;
#X text 143 48 set col no. (depth) \;;
#X obj 120 44 % 4;
#X obj 159 107 % 4;
#X obj 43 8 inlet mtro;
#X floatatom 309 235 5 0 0 0 - - -;
#X obj 309 261 moses 6;
#X connect 0 0 1 0;
#X connect 1 0 2 0;
#X connect 2 0 1 1;
#X connect 2 0 27 0;
#X connect 3 0 0 0;
#X connect 4 0 5 0;
#X connect 5 0 12 0;
#X connect 6 0 12 0;
#X connect 6 0 12 1;
#X connect 7 0 3 0;
#X connect 7 0 6 0;
#X connect 8 0 7 0;
#X connect 12 0 13 0;
#X connect 12 0 14 0;
#X connect 12 0 15 0;
#X connect 13 0 12 1;
#X connect 14 0 29 0;
#X connect 15 0 17 0;
#X connect 15 0 20 0;
#X connect 15 0 20 1;
#X connect 15 0 20 2;
#X connect 15 0 20 3;
#X connect 16 0 15 1;
#X connect 17 0 16 0;
#X connect 20 0 18 0;
#X connect 20 0 19 0;
#X connect 21 0 22 0;
#X connect 22 0 21 1;
#X connect 22 0 26 0;
#X connect 23 0 21 0;
#X connect 23 0 3 0;
#X connect 27 0 4 0;
#X connect 27 0 8 0;
#X connect 28 0 23 0;
#X connect 29 0 30 0;
#X connect 30 1 15 1;
