#N canvas 0 0 429 341 10;
#X obj 281 278 dac~;
#X obj 183 189 moses 0.11;
#X msg 183 221 0;
#X obj 183 253 pack 0 50;
#X obj 183 281 line~;
#X obj 282 192 *~;
#X obj 311 191 *~;
#X obj 272 77 hip~ 3;
#X obj 318 77 hip~ 3;
#X obj 316 237 rec_file;
#X obj 51 174 bng 15 250 50 0 empty empty empty 17 7 0 10 -262144 -1
-1;
#X obj 85 174 bng 15 250 50 0 empty empty empty 17 7 0 10 -262144 -1
-1;
#X obj 17 175 bng 15 250 50 0 empty empty empty 17 7 0 10 -262144 -1
-1;
#X obj 272 34 inlet~ hpA;
#X obj 343 35 inlet~ hpB;
#X text 14 159 PRec;
#X text 48 158 Stop;
#X text 84 158 PlBck;
#X text 71 34 Volume;
#X obj 184 98 *~;
#X msg 199 34 \$1 20;
#X obj 199 68 line~;
#X obj 183 130 env~ 128;
#X obj 183 165 - 100;
#X floatatom 75 18 5 0 0 0 - - -;
#X obj 185 11 inlet~;
#X obj 18 34 vu 20 120 empty empty -1 -8 0 10 -66577 -1 1 0;
#X obj 74 52 vsl 20 100 0 127 0 0 empty empty empty 0 -9 0 10 -262144
-1 -1 0 1;
#X text 72 3 Ramp;
#X connect 1 0 2 0;
#X connect 1 1 3 0;
#X connect 2 0 3 0;
#X connect 3 0 4 0;
#X connect 4 0 5 0;
#X connect 4 0 6 0;
#X connect 5 0 0 0;
#X connect 5 0 9 0;
#X connect 6 0 0 1;
#X connect 6 0 9 1;
#X connect 7 0 5 1;
#X connect 8 0 6 1;
#X connect 9 0 0 0;
#X connect 9 1 0 1;
#X connect 10 0 9 3;
#X connect 11 0 9 4;
#X connect 12 0 9 2;
#X connect 13 0 7 0;
#X connect 14 0 8 0;
#X connect 19 0 22 0;
#X connect 20 0 21 0;
#X connect 21 0 19 1;
#X connect 22 0 23 0;
#X connect 23 0 26 0;
#X connect 24 0 20 0;
#X connect 25 0 19 0;
#X connect 27 0 1 0;
#X coords 0 -1 1 1 115 190 1 3 3;
