#N canvas 0 0 840 588 10;
#X obj 120 290 triangle~;
#X msg 21 203 20;
#X msg 83 202 40;
#X obj 205 274 sig~;
#X msg 114 202 1 1000;
#X obj 243 221 hsl 128 15 0 1 0 0 empty empty empty -2 -8 0 10 -262144
-1 -1 6350 1;
#X obj 171 502 sig~;
#X obj 174 476 hsl 128 15 0 1 0 0 empty empty empty -2 -8 0 10 -262144
-1 -1 12700 1;
#X obj 72 483 *~;
#X obj 72 528 dac~ 1 2;
#X obj 148 21 tgl 15 0 empty empty empty 17 7 0 10 -262144 -1 -1 1
1;
#X obj 148 45 metro 200;
#X obj 148 72 f;
#X obj 148 98 counter;
#X obj 70 171 bng 15 250 50 0 empty empty empty 17 7 0 10 -262144 -1
-1;
#X msg 20 54 \; pd dsp 1;
#X msg 21 21 \; pd dsp 0;
#X floatatom 239 294 5 0 0 0 - - -;
#X msg 52 202 200;
#X obj 31 288 lop~;
#X obj 70 328 *~;
#X obj 72 382 *~;
#X obj 148 134 % 10;
#X obj 161 204 / 10;
#X floatatom 211 18 5 0 0 0 - - -;
#X obj 71 415 *~;
#X obj 261 151 bng 15 250 50 0 empty empty empty 17 7 0 10 -262144
-1 -1;
#X obj 525 180 phasor~;
#X obj 533 239 *~ 256;
#X obj 579 181 osc~;
#X obj 532 267 +~;
#X obj 531 298 delay~ 100;
#X obj 471 179 square~;
#X msg 564 26 1 1000;
#X obj 387 234 lop~;
#X obj 421 351 *~;
#X obj 367 397 *~;
#X obj 436 316 triangle~;
#X msg 407 27 42;
#X msg 507 26 62;
#X msg 452 26 200;
#X obj 420 235 triangle~ 200;
#X obj 383 186 osc~;
#X obj 129 247 square~ 200;
#X obj 684 171 line~;
#X obj 620 187 *~;
#X obj 620 131 square~;
#X msg 684 130 1 \, 0 200;
#X msg 644 26 120;
#X obj 314 310 triangle~ 201;
#X obj 66 245 phasor~;
#X obj 239 366 triangle~ 200;
#X obj 497 414 line~;
#X obj 458 430 *~;
#X obj 457 464 lop~ 200;
#X obj 457 385 osc~;
#X obj 72 448 *~;
#X msg 497 384 1 \, 0 200;
#X msg 457 351 220;
#X obj 623 510 *~ 0.1;
#X obj 659 442 hsl 128 15 0 1 0 0 empty empty empty -2 -8 0 10 -262144
-1 -1 12700 1;
#X obj 656 467 line;
#X obj 669 285 hsl 128 15 0 300 0 0 empty empty empty -2 -8 0 10 -262144
-1 -1 3200 1;
#X obj 666 315 line~;
#X obj 665 388 hip~ 200;
#X obj 624 404 *~;
#X obj 665 349 osc~;
#X msg 239 69 8;
#X msg 269 69 10;
#X msg 298 69 12;
#X msg 329 69 16;
#X floatatom 710 314 5 0 0 0 - - -;
#X floatatom 693 466 5 0 0 0 - - -;
#X floatatom 160 228 5 0 0 0 - - -;
#X msg 209 69 4;
#X obj 621 249 lop~ 220;
#X obj 694 366 hsl 128 15 0 200 0 0 empty empty empty -2 -8 0 10 -262144
-1 -1 3600 1;
#X connect 0 0 20 1;
#X connect 1 0 50 0;
#X connect 2 0 43 0;
#X connect 2 0 50 0;
#X connect 3 0 0 1;
#X connect 4 0 0 0;
#X connect 5 0 3 0;
#X connect 5 0 17 0;
#X connect 6 0 8 1;
#X connect 7 0 6 0;
#X connect 8 0 9 0;
#X connect 8 0 9 1;
#X connect 10 0 11 0;
#X connect 11 0 12 0;
#X connect 12 0 13 0;
#X connect 13 0 22 0;
#X connect 14 0 1 0;
#X connect 14 0 2 0;
#X connect 14 0 4 0;
#X connect 14 0 18 0;
#X connect 17 0 49 0;
#X connect 17 0 51 0;
#X connect 18 0 19 1;
#X connect 19 0 20 0;
#X connect 20 0 21 0;
#X connect 21 0 25 0;
#X connect 22 0 14 0;
#X connect 22 0 23 0;
#X connect 22 0 26 0;
#X connect 23 0 5 0;
#X connect 23 0 73 0;
#X connect 24 0 11 1;
#X connect 25 0 56 0;
#X connect 26 0 38 0;
#X connect 26 0 40 0;
#X connect 26 0 39 0;
#X connect 26 0 33 0;
#X connect 26 0 48 0;
#X connect 26 0 58 0;
#X connect 27 0 28 0;
#X connect 27 0 51 1;
#X connect 28 0 30 0;
#X connect 29 0 28 0;
#X connect 30 0 31 0;
#X connect 31 0 37 1;
#X connect 32 0 28 0;
#X connect 32 0 41 1;
#X connect 32 0 49 1;
#X connect 33 0 37 0;
#X connect 34 0 35 0;
#X connect 35 0 36 0;
#X connect 36 0 25 1;
#X connect 37 0 35 1;
#X connect 38 0 32 0;
#X connect 38 0 42 0;
#X connect 38 0 47 0;
#X connect 39 0 41 0;
#X connect 39 0 42 0;
#X connect 39 0 47 0;
#X connect 40 0 34 1;
#X connect 40 0 27 0;
#X connect 40 0 29 0;
#X connect 41 0 37 0;
#X connect 42 0 34 0;
#X connect 43 0 0 0;
#X connect 44 0 45 1;
#X connect 45 0 75 0;
#X connect 46 0 45 0;
#X connect 47 0 44 0;
#X connect 48 0 46 0;
#X connect 48 0 32 0;
#X connect 48 0 50 0;
#X connect 49 0 36 1;
#X connect 50 0 19 0;
#X connect 51 0 21 1;
#X connect 52 0 53 1;
#X connect 53 0 54 0;
#X connect 54 0 56 1;
#X connect 55 0 53 0;
#X connect 56 0 8 0;
#X connect 57 0 52 0;
#X connect 58 0 55 0;
#X connect 58 0 57 0;
#X connect 59 0 9 0;
#X connect 59 0 9 1;
#X connect 60 0 61 0;
#X connect 60 0 72 0;
#X connect 61 0 59 1;
#X connect 62 0 63 0;
#X connect 62 0 71 0;
#X connect 63 0 66 0;
#X connect 64 0 65 1;
#X connect 65 0 59 0;
#X connect 66 0 64 0;
#X connect 67 0 22 1;
#X connect 67 0 23 1;
#X connect 68 0 22 1;
#X connect 68 0 23 1;
#X connect 69 0 22 1;
#X connect 69 0 23 1;
#X connect 70 0 22 1;
#X connect 70 0 23 1;
#X connect 74 0 22 1;
#X connect 74 0 23 1;
#X connect 75 0 30 1;
#X connect 75 0 65 0;
#X connect 76 0 64 1;
