#N canvas 374 67 945 617 10;
#X obj 477 271 line~;
#X obj 413 287 *~;
#X obj 413 231 square~;
#X obj 444 328 lop~ 200;
#X msg 475 231 1 \, 0 190;
#X msg 394 113 80;
#X msg 421 113 160;
#X msg 450 114 240;
#X msg 477 113 320;
#X obj 446 578 dac~ 1 2;
#X msg 364 113 60;
#X obj 605 204 line~;
#X obj 567 220 *~;
#X msg 605 174 1 \, 0 190;
#X obj 571 258 lop~ 200;
#X msg 511 113 120;
#X msg 540 113 220;
#X msg 570 113 320;
#X msg 599 113 420;
#X obj 567 175 osc~;
#X obj 570 296 *~ 0.8;
#X msg 331 113 40;
#X obj 211 69 bng 15 250 50 0 empty empty empty 17 7 0 10 -262144 -1
-1;
#X obj 295 67 bng 15 250 50 0 empty empty empty 17 7 0 10 -262144 -1
-1;
#X obj 571 402 lop~;
#X floatatom 619 386 5 0 0 0 - - -;
#X obj 511 67 bng 15 250 50 0 empty empty empty 17 7 0 10 -262144 -1
-1;
#X obj 386 66 bng 15 250 50 0 empty empty empty 17 7 0 10 -262144 -1
-1;
#X obj 570 66 bng 15 250 50 0 empty empty empty 17 7 0 10 -262144 -1
-1;
#X obj 252 68 bng 15 250 50 0 empty empty empty 17 7 0 10 -262144 -1
-1;
#X obj 324 66 bng 15 250 50 0 empty empty empty 17 7 0 10 -262144 -1
-1;
#X obj 356 65 bng 15 250 50 0 empty empty empty 17 7 0 10 -262144 -1
-1;
#X obj 540 67 bng 15 250 50 0 empty empty empty 17 7 0 10 -262144 -1
-1;
#X obj 599 65 bng 15 250 50 0 empty empty empty 17 7 0 10 -262144 -1
-1;
#X floatatom 274 113 5 0 0 0 - - -;
#X obj 293 203 phasor~;
#X obj 292 246 *~ 256;
#X obj 351 202 osc~;
#X obj 291 274 +~;
#X obj 290 308 delay~ 100;
#X obj 290 347 tabread4~ bd;
#X obj 289 382 s~ wavesamp;
#X obj 371 381 samphold~;
#X obj 493 351 r~ wavesamp;
#N canvas 0 0 450 300 (subpatch) 0;
#X array bd 100 float 3;
#A 0 0.224998 0.224998 0.224998 0.224998 0.224998 0.224998 0.224998
0.224998 0.224998 0.224998 0.224998 0.224998 0.224998 0.224998 0.224998
0.224998 0.224998 0.224998 0.224998 0.224998 0.224998 0.224998 0.224998
0.224998 0.224998 0.224998 0.224998 0.224998 0.224998 0.224998 0.224998
0.224998 0.224998 0.224998 0.224998 0.224998 0.224998 0.224998 0.224998
0.224998 0.224998 0.224998 0.224998 0.224998 0.224998 0.224998 0.224998
0.224998 0.224998 0.224998 0.224998 0.224998 0.224998 0.224998 0.224998
0.224998 0.224998 0.224998 0.224998 0.224998 0.224998 0.224998 0.224998
0.224998 0.224998 0.224998 0.224998 0.224998 0.224998 0.224998 0.224998
0.224998 0.224998 0.224998 0.224998 0.224998 0.224998 0.224998 0.224998
0.224998 0.224998 0.224998 0.224998 0.224998 0.224998 0.224998 0.224998
0.224998 0.224998 0.224998 0.224998 0.224998 0.224998 0.224998 0.224998
0.224998 0.224998 0.224998 0.224998 0.224998;
#X coords 0 1 99 -1 200 140 1 0 0;
#X restore 18 269 graph;
#X obj 264 437 tabwrite~ bd;
#X obj 241 203 square~;
#X msg 15 512 roomsize \$1;
#X msg 95 511 damping \$1;
#X obj 18 481 hsl 60 15 0 1 0 0 empty empty empty -2 -8 0 10 -262144
-1 -1 2500 1;
#X obj 98 481 hsl 60 15 0 1 0 0 empty empty empty -2 -8 0 10 -262144
-1 -1 4500 1;
#X obj 175 481 hsl 60 15 0 1 0 0 empty empty empty -2 -8 0 10 -262144
-1 -1 2600 1;
#X obj 255 481 hsl 60 15 0 1 0 0 empty empty empty -2 -8 0 10 -262144
-1 -1 2200 1;
#X obj 332 481 hsl 60 15 0 0.5 0 0 empty empty empty -2 -8 0 10 -262144
-1 -1 3800 1;
#X msg 172 513 width \$1;
#X msg 252 512 wet \$1;
#X msg 329 513 dry \$1;
#X obj 172 564 s rvbctrlA;
#X obj 467 491 freeverb~;
#X obj 372 413 r rvbctrlA;
#X obj 493 397 *~ 0.3;
#X obj 445 396 *~ 0.3;
#X obj 570 341 *~ 0.4;
#X obj 627 340 *~ 0.4;
#X msg 663 113 680;
#X msg 694 113 720;
#X msg 729 112 800;
#X obj 672 172 square~;
#X obj 694 62 bng 15 250 50 0 empty empty empty 17 7 0 10 -262144 -1
-1;
#X obj 663 64 bng 15 250 50 0 empty empty empty 17 7 0 10 -262144 -1
-1;
#X obj 729 64 bng 15 250 50 0 empty empty empty 17 7 0 10 -262144 -1
-1;
#X obj 557 526 sig~;
#X obj 579 497 hsl 128 15 0 0.5 0 0 empty empty empty -2 -8 0 10 -262144
-1 -1 7100 1;
#X obj 445 542 *~;
#X floatatom 593 527 5 0 0 0 - - -;
#X obj 26 167 hradio 15 1 0 8 empty empty empty 0 -8 0 10 -262144 -1
-1 7;
#X obj 24 89 f;
#X obj 24 114 counter;
#X obj 24 62 metro;
#X obj 24 37 tgl 15 0 empty empty empty 17 7 0 10 -262144 -1 -1 0 1
;
#X obj 80 183 sel 0 1 2 3 4 5 6 7;
#X obj 26 139 % 8;
#X floatatom 60 34 5 0 0 0 - - -;
#X msg 118 32 \; pd dsp 1 \;;
#X msg 117 69 \; pd dsp 0 \;;
#X obj 734 217 line~;
#X msg 734 172 1 \, 0 190;
#X obj 673 233 *~;
#X obj 674 400 lop~ 80;
#X obj 793 62 bng 15 250 50 0 empty empty empty 17 7 0 10 -262144 -1
-1;
#X obj 762 64 bng 15 250 50 0 empty empty empty 17 7 0 10 -262144 -1
-1;
#X obj 828 64 bng 15 250 50 0 empty empty empty 17 7 0 10 -262144 -1
-1;
#X msg 762 113 682;
#X msg 793 113 722;
#X msg 828 112 802;
#X obj 803 172 phasor~;
#X obj 865 216 line~;
#X msg 869 173 1 \, 0 190;
#X obj 730 315 *~;
#X obj 731 402 *~;
#X obj 787 358 osc~;
#X obj 786 280 hsl 128 15 60 1600 0 0 empty empty empty -2 -8 0 10
-262144 -1 -1 10700 1;
#X obj 785 313 line~;
#X obj 782 400 hip~ 200;
#X connect 0 0 1 1;
#X connect 1 0 3 0;
#X connect 1 0 42 0;
#X connect 2 0 1 0;
#X connect 3 0 60 0;
#X connect 3 0 61 0;
#X connect 4 0 0 0;
#X connect 5 0 2 0;
#X connect 5 0 4 0;
#X connect 6 0 2 0;
#X connect 6 0 4 0;
#X connect 7 0 2 0;
#X connect 7 0 4 0;
#X connect 8 0 2 0;
#X connect 8 0 4 0;
#X connect 10 0 2 0;
#X connect 10 0 4 0;
#X connect 11 0 12 1;
#X connect 12 0 14 0;
#X connect 13 0 11 0;
#X connect 14 0 20 0;
#X connect 14 0 98 0;
#X connect 15 0 19 0;
#X connect 15 0 13 0;
#X connect 16 0 19 0;
#X connect 16 0 13 0;
#X connect 17 0 19 0;
#X connect 17 0 13 0;
#X connect 18 0 19 0;
#X connect 18 0 13 0;
#X connect 19 0 12 0;
#X connect 20 0 62 0;
#X connect 20 0 63 0;
#X connect 21 0 2 0;
#X connect 21 0 4 0;
#X connect 22 0 21 0;
#X connect 22 0 45 0;
#X connect 22 0 46 0;
#X connect 22 0 34 0;
#X connect 23 0 5 0;
#X connect 24 0 58 0;
#X connect 24 0 58 1;
#X connect 25 0 24 1;
#X connect 26 0 15 0;
#X connect 27 0 8 0;
#X connect 28 0 17 0;
#X connect 29 0 10 0;
#X connect 29 0 45 0;
#X connect 30 0 6 0;
#X connect 31 0 7 0;
#X connect 32 0 16 0;
#X connect 33 0 18 0;
#X connect 34 0 35 0;
#X connect 34 0 37 0;
#X connect 35 0 36 0;
#X connect 35 0 42 1;
#X connect 36 0 38 0;
#X connect 37 0 36 0;
#X connect 38 0 39 0;
#X connect 39 0 40 0;
#X connect 40 0 41 0;
#X connect 42 0 38 1;
#X connect 42 0 45 0;
#X connect 43 0 60 0;
#X connect 43 0 61 0;
#X connect 46 0 36 0;
#X connect 47 0 57 0;
#X connect 48 0 57 0;
#X connect 49 0 47 0;
#X connect 50 0 48 0;
#X connect 51 0 54 0;
#X connect 52 0 55 0;
#X connect 53 0 56 0;
#X connect 54 0 57 0;
#X connect 55 0 57 0;
#X connect 56 0 57 0;
#X connect 58 0 73 0;
#X connect 59 0 58 0;
#X connect 60 0 58 1;
#X connect 61 0 58 0;
#X connect 62 0 24 0;
#X connect 63 0 24 0;
#X connect 64 0 67 0;
#X connect 64 0 86 0;
#X connect 65 0 67 0;
#X connect 65 0 86 0;
#X connect 66 0 67 0;
#X connect 66 0 86 0;
#X connect 67 0 87 0;
#X connect 68 0 65 0;
#X connect 69 0 64 0;
#X connect 70 0 66 0;
#X connect 71 0 73 1;
#X connect 72 0 71 0;
#X connect 72 0 74 0;
#X connect 73 0 9 0;
#X connect 73 0 9 1;
#X connect 75 0 80 0;
#X connect 76 0 77 0;
#X connect 77 0 81 0;
#X connect 78 0 76 0;
#X connect 79 0 78 0;
#X connect 80 0 23 0;
#X connect 80 1 29 0;
#X connect 80 2 31 0;
#X connect 80 2 28 0;
#X connect 80 3 22 0;
#X connect 80 4 26 0;
#X connect 80 5 23 0;
#X connect 80 6 33 0;
#X connect 80 7 90 0;
#X connect 81 0 75 0;
#X connect 82 0 78 1;
#X connect 85 0 87 1;
#X connect 86 0 85 0;
#X connect 87 0 88 0;
#X connect 87 0 98 1;
#X connect 88 0 58 0;
#X connect 88 0 58 1;
#X connect 89 0 93 0;
#X connect 90 0 92 0;
#X connect 91 0 94 0;
#X connect 92 0 67 0;
#X connect 92 0 95 0;
#X connect 92 0 97 0;
#X connect 93 0 67 0;
#X connect 93 0 95 0;
#X connect 93 0 97 0;
#X connect 94 0 67 0;
#X connect 94 0 95 0;
#X connect 94 0 97 0;
#X connect 95 0 87 0;
#X connect 96 0 87 1;
#X connect 97 0 96 0;
#X connect 98 0 99 0;
#X connect 99 0 58 0;
#X connect 99 0 58 1;
#X connect 100 0 103 0;
#X connect 101 0 102 0;
#X connect 102 0 100 0;
#X connect 103 0 99 1;
