#N canvas 0 0 1362 685 10;
#X obj 116 312 triangle~;
#X msg 21 203 20;
#X msg 83 202 40;
#X obj 205 274 sig~;
#X msg 116 203 1 1000;
#X obj 243 221 hsl 128 15 0 1 0 0 empty empty empty -2 -8 0 10 -262144
-1 -1 0 1;
#X obj 124 499 sig~;
#X obj 127 469 hsl 128 15 0 1 0 0 empty empty empty -2 -8 0 10 -262144
-1 -1 0 1;
#X obj 72 483 *~;
#X obj 73 609 dac~ 1 2;
#X obj 163 21 tgl 15 0 empty empty empty 17 7 0 10 -262144 -1 -1 0
1;
#X obj 163 45 metro 200;
#X obj 163 72 f;
#X obj 163 98 counter;
#X obj 72 151 bng 15 250 50 0 empty empty empty 17 7 0 10 -262144 -1
-1;
#X msg 21 55 \; pd dsp 1;
#X msg 21 21 \; pd dsp 0;
#X floatatom 241 309 5 0 0 0 - - -;
#X msg 52 202 200;
#X obj 70 286 lop~;
#X obj 70 328 *~;
#X obj 72 382 *~;
#X obj 163 134 % 10;
#X obj 163 204 / 10;
#X floatatom 214 18 5 0 0 0 - - -;
#X obj 71 415 *~;
#X obj 261 151 bng 15 250 50 0 empty empty empty 17 7 0 10 -262144
-1 -1;
#X obj 526 163 phasor~;
#X obj 532 215 *~ 256;
#X obj 580 164 osc~;
#X obj 533 250 +~;
#X obj 532 281 delay~ 100;
#X obj 472 162 square~;
#X msg 556 40 1 1000;
#X obj 382 253 lop~;
#X obj 421 351 *~;
#X obj 367 397 *~;
#X obj 437 297 triangle~;
#X msg 399 41 42;
#X msg 499 40 62;
#X msg 444 40 200;
#X obj 421 218 triangle~ 200;
#X obj 383 186 osc~;
#X obj 128 247 square~ 200;
#X obj 684 171 line~;
#X obj 622 187 *~;
#X obj 623 131 square~;
#X msg 684 130 1 \, 0 200;
#X msg 636 40 120;
#X obj 316 325 triangle~ 201;
#X obj 69 246 phasor~;
#X obj 241 367 triangle~ 200;
#X obj 498 396 line~;
#X obj 457 412 *~;
#X obj 458 442 lop~ 200;
#X obj 458 368 osc~;
#X obj 72 448 *~;
#X msg 498 367 1 \, 0 200;
#X msg 458 332 220;
#X obj 622 593 *~ 0.1;
#X obj 658 443 hsl 128 15 0 1 0 0 empty empty empty -2 -8 0 10 -262144
-1 -1 0 1;
#X obj 655 468 line;
#X obj 669 285 hsl 128 15 0 300 0 0 empty empty empty -2 -8 0 10 -262144
-1 -1 0 1;
#X obj 666 315 line~;
#X obj 665 388 hip~ 200;
#X obj 624 404 *~;
#X obj 665 349 osc~;
#X msg 239 69 8;
#X msg 269 69 10;
#X msg 298 69 12;
#X msg 329 69 16;
#X floatatom 710 314 5 0 0 0 - - -;
#X floatatom 692 467 5 0 0 0 - - -;
#X floatatom 162 228 5 0 0 0 - - -;
#X obj 241 202 hsl 128 15 0 1 0 0 empty empty empty -2 -8 0 10 -262144
-1 -1 0 1;
#X obj 351 155 % 4;
#X obj 302 172 / 4;
#X msg 264 41 8;
#X msg 294 41 10;
#X msg 323 41 12;
#X msg 354 41 16;
#X msg 209 69 4;
#X msg 234 42 4;
#X obj 623 233 lop~ 220;
#X obj 9 568 rec_file;
#X obj -12 117 bng 15 250 50 0 empty empty empty 17 7 0 10 -262144
-1 -1;
#X obj 24 117 bng 15 250 50 0 empty empty empty 17 7 0 10 -262144 -1
-1;
#X obj 60 117 bng 15 250 50 0 empty empty empty 17 7 0 10 -262144 -1
-1;
#X text -14 100 On;
#X text 57 99 Playbk;
#X text -52 101 REC;
#X obj -49 117 tgl 15 0 empty empty empty 17 7 0 10 -262144 -1 -1 0
1;
#X text 20 99 Stop;
#X text -52 88 RECORDING;
#X obj -11 526 *~;
#X obj 1025 493 sig~;
#X obj 1028 463 hsl 128 15 0 0.4 0 0 empty empty empty -2 -8 0 10 -262144
-1 -1 0 1;
#X floatatom 804 211 5 0 0 0 - - -;
#X obj 804 268 phasor~;
#X obj 879 266 phasor~;
#X text 908 206 Phase Synchronisation;
#X obj 806 374 clip~ 0 1;
#X obj 878 374 clip~ 0 1;
#X obj 859 411 +~;
#X obj 835 237 * -1;
#X obj 805 342 -~ -1;
#X obj 879 338 -~ -1;
#X obj 954 380 clip~ 0 1;
#X obj 938 428 +~;
#X obj 922 240 * -2;
#X obj 955 268 osc~;
#X obj 954 338 -~ -1;
#X obj 955 302 *~ -1;
#X obj 879 304 *~ -1;
#X msg 879 207 1;
#X obj 805 306 *~ -1;
#X obj 937 473 *~;
#X obj 987 106 line~;
#X obj 933 157 *~;
#X msg 987 67 1 \, 0 190;
#X obj 1041 174 lop~ 200;
#X msg 859 68 120;
#X msg 888 68 220;
#X msg 918 68 320;
#X msg 947 68 420;
#X obj 898 115 osc~;
#X obj 200 510 *~;
#X obj 716 -17 notein;
#X obj 716 8 mtof;
#X floatatom 670 0 5 0 0 0 - - -;
#X floatatom 752 11 5 0 0 0 - - -;
#X floatatom 792 11 5 0 0 0 - - -;
#N canvas 359 2 949 667 graph 0;
#X msg 334 44 \$1;
#X obj 331 67 gemhead;
#X obj 108 151 rotateXYZ;
#X obj 108 266 square;
#X obj 108 223 color;
#X obj 337 20 hsl 128 15 0 20 0 0 empty empty empty -2 -8 0 10 -262144
-1 -1 0 1;
#X obj 228 152 rotateXYZ;
#X obj 228 264 square;
#X obj 228 217 color;
#X obj 354 150 rotateXYZ;
#X obj 354 266 square;
#X obj 354 218 color;
#X msg 12 626 1 1 1 0;
#X msg 70 627 0 0 0 0;
#X msg 124 626 1 1 1 0;
#X msg 180 627 0 0 0 0;
#X msg 236 627 1 1 1 0;
#X msg 292 628 0 0 0 0;
#X msg 349 628 1 1 1 0;
#X msg 404 627 0 0 0 0;
#X obj 107 50 hradio 15 1 0 10 empty empty empty 0 -8 0 10 -262144
-1 -1 0;
#X msg 457 627 1 1 1 0;
#X msg 512 627 0 0 0 0;
#X obj 75 539 sel 0 1 2 3 4 5 6 7 8 9;
#X obj 73 11 inlet;
#X obj 27 79 gemwin;
#X obj 481 151 rotateXYZ;
#X obj 481 265 square;
#X obj 481 217 color;
#X obj 108 183 translateXYZ 3 0 0;
#X obj 354 180 translateXYZ -2 0 0;
#X obj 228 180 translateXYZ -1 0 0;
#X obj 481 179 translateXYZ -2.2 0 0;
#X obj 622 150 rotateXYZ;
#X obj 622 263 square;
#X obj 622 215 color;
#X obj 622 179 translateXYZ -1 0 0;
#X obj 153 272 rotateXYZ;
#X obj 153 387 square;
#X obj 153 344 color;
#X obj 153 304 translateXYZ 0 3 0;
#X obj 282 269 rotateXYZ;
#X obj 282 384 square;
#X obj 282 341 color;
#X obj 412 269 rotateXYZ;
#X obj 412 384 square;
#X obj 412 341 color;
#X floatatom 742 322 5 0 0 0 - - -;
#X floatatom 747 344 5 0 0 0 - - -;
#X obj 533 266 rotateXYZ;
#X obj 533 381 square;
#X obj 533 338 color;
#X obj 282 300 translateXYZ 1.5 0 0;
#X obj 412 298 translateXYZ 2 0 0;
#X obj 533 296 translateXYZ 1.5 0 0;
#X obj 668 267 rotateXYZ;
#X obj 668 382 square;
#X obj 668 339 color;
#X obj 206 391 rotateXYZ;
#X obj 206 506 square;
#X obj 206 463 color;
#X obj 206 423 translateXYZ -6 -6 0;
#X obj 337 389 rotateXYZ;
#X obj 337 504 square;
#X obj 337 461 color;
#X obj 337 421 translateXYZ 1 0 0;
#X obj 459 387 rotateXYZ;
#X obj 459 502 square;
#X obj 459 459 color;
#X obj 459 419 translateXYZ 2 0 0;
#X obj 586 386 rotateXYZ;
#X obj 586 501 square;
#X obj 586 458 color;
#X obj 586 417 translateXYZ 1.5 0 0;
#X obj 717 383 rotateXYZ;
#X obj 717 498 square;
#X obj 717 455 color;
#X obj 717 415 translateXYZ 1.5 0 0;
#X obj 667 296 translateXYZ 1.5 0 0;
#X obj 27 11 inlet;
#X connect 0 0 1 0;
#X connect 1 0 2 0;
#X connect 1 0 6 0;
#X connect 1 0 9 0;
#X connect 1 0 26 0;
#X connect 1 0 33 0;
#X connect 1 0 37 0;
#X connect 1 0 41 0;
#X connect 1 0 44 0;
#X connect 1 0 49 0;
#X connect 1 0 55 0;
#X connect 1 0 58 0;
#X connect 1 0 62 0;
#X connect 1 0 66 0;
#X connect 1 0 70 0;
#X connect 1 0 74 0;
#X connect 2 0 29 0;
#X connect 4 0 3 0;
#X connect 5 0 0 0;
#X connect 6 0 31 0;
#X connect 8 0 7 0;
#X connect 9 0 30 0;
#X connect 11 0 10 0;
#X connect 12 0 4 1;
#X connect 12 0 39 1;
#X connect 12 0 60 1;
#X connect 13 0 4 1;
#X connect 13 0 39 1;
#X connect 13 0 60 1;
#X connect 14 0 8 1;
#X connect 14 0 43 1;
#X connect 14 0 64 1;
#X connect 15 0 8 1;
#X connect 15 0 43 1;
#X connect 15 0 64 1;
#X connect 16 0 11 1;
#X connect 16 0 46 1;
#X connect 16 0 68 1;
#X connect 17 0 11 1;
#X connect 17 0 46 1;
#X connect 17 0 68 1;
#X connect 18 0 28 1;
#X connect 18 0 51 1;
#X connect 18 0 72 1;
#X connect 19 0 28 1;
#X connect 19 0 51 1;
#X connect 19 0 72 1;
#X connect 21 0 35 1;
#X connect 21 0 57 1;
#X connect 21 0 76 1;
#X connect 22 0 35 1;
#X connect 22 0 57 1;
#X connect 22 0 76 1;
#X connect 23 0 12 0;
#X connect 23 1 13 0;
#X connect 23 2 14 0;
#X connect 23 3 15 0;
#X connect 23 4 16 0;
#X connect 23 5 17 0;
#X connect 23 6 18 0;
#X connect 23 7 19 0;
#X connect 23 8 21 0;
#X connect 23 9 22 0;
#X connect 24 0 23 0;
#X connect 26 0 32 0;
#X connect 28 0 27 0;
#X connect 29 0 4 0;
#X connect 30 0 11 0;
#X connect 31 0 8 0;
#X connect 32 0 28 0;
#X connect 33 0 36 0;
#X connect 35 0 34 0;
#X connect 36 0 35 0;
#X connect 37 0 40 0;
#X connect 39 0 38 0;
#X connect 40 0 39 0;
#X connect 41 0 52 0;
#X connect 43 0 42 0;
#X connect 44 0 53 0;
#X connect 46 0 45 0;
#X connect 49 0 54 0;
#X connect 51 0 50 0;
#X connect 52 0 43 0;
#X connect 53 0 46 0;
#X connect 54 0 51 0;
#X connect 55 0 78 0;
#X connect 57 0 56 0;
#X connect 58 0 61 0;
#X connect 60 0 59 0;
#X connect 61 0 60 0;
#X connect 62 0 65 0;
#X connect 64 0 63 0;
#X connect 65 0 64 0;
#X connect 66 0 69 0;
#X connect 68 0 67 0;
#X connect 69 0 68 0;
#X connect 70 0 73 0;
#X connect 72 0 71 0;
#X connect 73 0 72 0;
#X connect 74 0 77 0;
#X connect 76 0 75 0;
#X connect 77 0 76 0;
#X connect 78 0 57 0;
#X connect 79 0 25 0;
#X restore 721 626 pd graph;
#X obj 771 465 hradio 15 1 0 10 empty empty empty 0 -8 0 10 -262144
-1 -1 0;
#X obj 717 577 tgl 15 0 empty empty empty 17 7 0 10 -262144 -1 -1 0
4;
#X msg 753 569 create;
#X msg 759 592 destroy;
#N canvas 12 14 1362 685 graphII 0;
#X msg 352 38 \$1;
#X obj 349 61 gemhead;
#X obj 169 150 rotateXYZ;
#X obj 165 287 square;
#X obj 168 222 color;
#X msg 294 604 1 1 1 0;
#X msg 350 605 0 0 0 0;
#X obj 724 31 knob 32 32 0 1 0 0 empty empty empty 0 -8 0 8 -262144
-1 -1 0 1;
#X obj 170 182 translateXYZ 0 0 0;
#X obj 549 152 rotateXYZ;
#X obj 546 276 square;
#X obj 549 214 color;
#X obj 682 150 rotateXYZ;
#X obj 685 271 square;
#X obj 684 215 color;
#X obj 219 283 rotateXYZ;
#X obj 222 407 square;
#X obj 221 349 color;
#X obj 733 281 rotateXYZ;
#X obj 739 410 square;
#X obj 736 346 color;
#X obj 615 282 rotateXYZ;
#X obj 616 410 square;
#X obj 613 355 color;
#X obj 668 413 rotateXYZ;
#X obj 668 534 square;
#X obj 668 483 color;
#X obj 805 415 rotateXYZ;
#X obj 804 534 square;
#X obj 805 483 color;
#X obj 926 416 rotateXYZ;
#X obj 926 537 square;
#X obj 926 484 color;
#X obj 682 179 translateXYZ 6 0 0;
#X obj 219 316 translateXYZ -6 3 0;
#X obj 736 312 translateXYZ 3 0 0;
#X obj 613 313 translateXYZ 3 0 0;
#X obj 805 451 translateXYZ 3 0 0;
#X obj 926 451 translateXYZ 3 0 0;
#X obj 668 452 translateXYZ -6 -6 0;
#X msg 406 605 1 1 1 0;
#X msg 462 606 0 0 0 0;
#X msg 518 606 1 1 1 0;
#X msg 574 607 0 0 0 0;
#X msg 631 607 1 1 1 0;
#X msg 686 606 0 0 0 0;
#X obj 355 7 hsl 128 15 0 20 0 0 empty empty empty -2 -8 0 10 -262144
-1 -1 0 1;
#X obj 549 180 translateXYZ -3 0 0;
#X floatatom 782 66 5 0 0 0 - - -;
#X obj 289 150 rotateXYZ;
#X obj 287 281 square;
#X obj 290 216 color;
#X obj 419 149 rotateXYZ;
#X obj 417 280 square;
#X obj 420 215 color;
#X obj 290 180 translateXYZ -0.5 0 0;
#X obj 420 181 translateXYZ -1 0 0;
#X obj 806 149 rotateXYZ;
#X obj 809 270 square;
#X obj 808 214 color;
#X obj 805 178 translateXYZ 5 0 0;
#X obj 484 281 rotateXYZ;
#X obj 487 405 square;
#X obj 486 347 color;
#X obj 484 313 translateXYZ -4 3 0;
#X obj 926 145 rotateXYZ;
#X obj 929 269 square;
#X obj 928 211 color;
#X obj 926 178 translateXYZ 4 0 0;
#X obj 347 281 rotateXYZ;
#X obj 350 405 square;
#X obj 349 347 color;
#X obj 347 314 translateXYZ -5 3 0;
#X obj 87 12 inlet;
#X obj 41 80 gemwin;
#X obj 41 12 inlet;
#X obj 134 486 sel 0 1 2 3 4 5 6 7 8 9;
#X obj 136 13 inlet;
#X floatatom 125 79 5 0 0 0 - - -;
#X connect 0 0 1 0;
#X connect 1 0 9 0;
#X connect 1 0 12 0;
#X connect 1 0 15 0;
#X connect 1 0 18 0;
#X connect 1 0 21 0;
#X connect 1 0 24 0;
#X connect 1 0 27 0;
#X connect 1 0 30 0;
#X connect 1 0 52 0;
#X connect 1 0 49 0;
#X connect 1 0 2 0;
#X connect 1 0 61 0;
#X connect 1 0 57 0;
#X connect 1 0 65 0;
#X connect 1 0 69 0;
#X connect 2 0 8 0;
#X connect 4 0 3 0;
#X connect 5 0 20 1;
#X connect 5 0 4 1;
#X connect 5 0 51 1;
#X connect 5 0 63 1;
#X connect 5 0 67 1;
#X connect 6 0 20 1;
#X connect 6 0 4 1;
#X connect 6 0 51 1;
#X connect 6 0 63 1;
#X connect 6 0 67 1;
#X connect 7 0 3 1;
#X connect 7 0 16 1;
#X connect 7 0 22 1;
#X connect 7 0 25 1;
#X connect 7 0 28 1;
#X connect 7 0 31 1;
#X connect 7 0 19 1;
#X connect 7 0 48 0;
#X connect 7 0 58 1;
#X connect 7 0 53 1;
#X connect 7 0 13 1;
#X connect 8 0 4 0;
#X connect 9 0 47 0;
#X connect 11 0 10 0;
#X connect 12 0 33 0;
#X connect 14 0 13 0;
#X connect 15 0 34 0;
#X connect 17 0 16 0;
#X connect 18 0 35 0;
#X connect 20 0 19 0;
#X connect 21 0 36 0;
#X connect 23 0 22 0;
#X connect 24 0 39 0;
#X connect 26 0 25 0;
#X connect 27 0 37 0;
#X connect 29 0 28 0;
#X connect 30 0 38 0;
#X connect 32 0 31 0;
#X connect 33 0 14 0;
#X connect 34 0 17 0;
#X connect 35 0 20 0;
#X connect 36 0 23 0;
#X connect 37 0 29 0;
#X connect 38 0 32 0;
#X connect 39 0 26 0;
#X connect 40 0 11 1;
#X connect 40 0 23 1;
#X connect 40 0 32 1;
#X connect 40 0 54 1;
#X connect 41 0 11 1;
#X connect 41 0 23 1;
#X connect 41 0 32 1;
#X connect 41 0 54 1;
#X connect 42 0 14 1;
#X connect 42 0 26 1;
#X connect 42 0 71 1;
#X connect 43 0 14 1;
#X connect 43 0 26 1;
#X connect 43 0 71 1;
#X connect 44 0 17 1;
#X connect 44 0 29 1;
#X connect 44 0 59 1;
#X connect 45 0 17 1;
#X connect 45 0 29 1;
#X connect 45 0 59 1;
#X connect 46 0 0 0;
#X connect 47 0 11 0;
#X connect 49 0 55 0;
#X connect 51 0 50 0;
#X connect 52 0 56 0;
#X connect 54 0 53 0;
#X connect 55 0 51 0;
#X connect 56 0 54 0;
#X connect 57 0 60 0;
#X connect 59 0 58 0;
#X connect 60 0 59 0;
#X connect 61 0 64 0;
#X connect 63 0 62 0;
#X connect 64 0 63 0;
#X connect 65 0 68 0;
#X connect 67 0 66 0;
#X connect 68 0 67 0;
#X connect 69 0 72 0;
#X connect 71 0 70 0;
#X connect 72 0 71 0;
#X connect 73 0 76 0;
#X connect 73 0 78 0;
#X connect 75 0 74 0;
#X connect 76 0 5 0;
#X connect 76 1 6 0;
#X connect 76 2 40 0;
#X connect 76 3 41 0;
#X connect 76 4 42 0;
#X connect 76 5 43 0;
#X connect 76 6 44 0;
#X connect 76 7 45 0;
#X connect 77 0 7 0;
#X restore 647 626 pd graphII;
#X obj 687 577 tgl 15 0 empty empty empty 17 7 0 10 -262144 -1 -1 0
1;
#X obj 666 525 sel 0 5 9;
#X connect 0 0 20 1;
#X connect 1 0 50 0;
#X connect 2 0 43 0;
#X connect 2 0 50 0;
#X connect 3 0 0 1;
#X connect 4 0 0 0;
#X connect 5 0 3 0;
#X connect 5 0 17 0;
#X connect 6 0 8 1;
#X connect 7 0 6 0;
#X connect 8 0 9 0;
#X connect 8 0 9 1;
#X connect 8 0 94 0;
#X connect 10 0 11 0;
#X connect 11 0 12 0;
#X connect 12 0 13 0;
#X connect 13 0 22 0;
#X connect 13 0 75 0;
#X connect 14 0 1 0;
#X connect 14 0 2 0;
#X connect 14 0 4 0;
#X connect 14 0 18 0;
#X connect 17 0 49 0;
#X connect 17 0 51 0;
#X connect 18 0 19 1;
#X connect 19 0 20 0;
#X connect 20 0 21 0;
#X connect 21 0 25 0;
#X connect 22 0 14 0;
#X connect 22 0 23 0;
#X connect 22 0 26 0;
#X connect 22 0 133 0;
#X connect 23 0 5 0;
#X connect 23 0 73 0;
#X connect 24 0 11 1;
#X connect 25 0 56 0;
#X connect 26 0 38 0;
#X connect 26 0 40 0;
#X connect 26 0 39 0;
#X connect 26 0 33 0;
#X connect 26 0 48 0;
#X connect 26 0 58 0;
#X connect 26 0 121 0;
#X connect 26 0 122 0;
#X connect 26 0 123 0;
#X connect 26 0 124 0;
#X connect 26 0 119 0;
#X connect 27 0 28 0;
#X connect 27 0 51 1;
#X connect 28 0 30 0;
#X connect 29 0 28 0;
#X connect 30 0 31 0;
#X connect 31 0 37 1;
#X connect 32 0 28 0;
#X connect 32 0 41 1;
#X connect 32 0 49 1;
#X connect 33 0 37 0;
#X connect 34 0 35 0;
#X connect 35 0 36 0;
#X connect 36 0 25 1;
#X connect 37 0 35 1;
#X connect 38 0 32 0;
#X connect 38 0 42 0;
#X connect 38 0 47 0;
#X connect 39 0 41 0;
#X connect 39 0 42 0;
#X connect 39 0 47 0;
#X connect 40 0 34 1;
#X connect 40 0 27 0;
#X connect 40 0 29 0;
#X connect 41 0 37 0;
#X connect 42 0 34 0;
#X connect 43 0 0 0;
#X connect 44 0 45 1;
#X connect 45 0 83 0;
#X connect 46 0 45 0;
#X connect 47 0 44 0;
#X connect 48 0 46 0;
#X connect 48 0 32 0;
#X connect 48 0 50 0;
#X connect 49 0 36 1;
#X connect 50 0 19 0;
#X connect 51 0 21 1;
#X connect 52 0 53 1;
#X connect 53 0 54 0;
#X connect 54 0 56 1;
#X connect 55 0 53 0;
#X connect 56 0 8 0;
#X connect 57 0 52 0;
#X connect 58 0 55 0;
#X connect 58 0 57 0;
#X connect 59 0 9 0;
#X connect 59 0 9 1;
#X connect 60 0 61 0;
#X connect 60 0 72 0;
#X connect 61 0 59 1;
#X connect 62 0 63 0;
#X connect 62 0 71 0;
#X connect 63 0 66 0;
#X connect 64 0 65 1;
#X connect 65 0 59 0;
#X connect 66 0 64 0;
#X connect 67 0 22 1;
#X connect 67 0 23 1;
#X connect 68 0 22 1;
#X connect 68 0 23 1;
#X connect 69 0 22 1;
#X connect 69 0 23 1;
#X connect 70 0 22 1;
#X connect 70 0 23 1;
#X connect 73 0 137 2;
#X connect 75 0 76 0;
#X connect 76 0 74 0;
#X connect 77 0 75 1;
#X connect 77 0 76 1;
#X connect 78 0 75 1;
#X connect 78 0 76 1;
#X connect 79 0 75 1;
#X connect 79 0 76 1;
#X connect 80 0 75 1;
#X connect 80 0 76 1;
#X connect 81 0 22 1;
#X connect 81 0 23 1;
#X connect 82 0 75 1;
#X connect 82 0 76 1;
#X connect 83 0 30 1;
#X connect 83 0 65 0;
#X connect 84 0 9 0;
#X connect 84 1 9 1;
#X connect 85 0 84 2;
#X connect 86 0 84 3;
#X connect 87 0 84 4;
#X connect 91 0 94 1;
#X connect 94 0 84 1;
#X connect 94 0 84 0;
#X connect 95 0 126 1;
#X connect 96 0 95 0;
#X connect 97 0 98 0;
#X connect 97 0 104 0;
#X connect 97 0 109 0;
#X connect 98 0 115 0;
#X connect 99 0 113 0;
#X connect 101 0 103 0;
#X connect 102 0 103 1;
#X connect 103 0 108 0;
#X connect 104 0 99 0;
#X connect 105 0 101 0;
#X connect 106 0 102 0;
#X connect 107 0 108 1;
#X connect 108 0 116 0;
#X connect 109 0 110 0;
#X connect 110 0 112 0;
#X connect 111 0 107 0;
#X connect 112 0 111 0;
#X connect 113 0 106 0;
#X connect 114 0 98 1;
#X connect 114 0 99 0;
#X connect 115 0 105 0;
#X connect 116 0 126 0;
#X connect 117 0 118 1;
#X connect 118 0 120 0;
#X connect 119 0 117 0;
#X connect 120 0 116 1;
#X connect 121 0 125 0;
#X connect 121 0 97 0;
#X connect 121 0 114 0;
#X connect 122 0 125 0;
#X connect 122 0 97 0;
#X connect 122 0 114 0;
#X connect 123 0 125 0;
#X connect 123 0 97 0;
#X connect 123 0 114 0;
#X connect 124 0 125 0;
#X connect 124 0 97 0;
#X connect 124 0 114 0;
#X connect 125 0 118 0;
#X connect 126 0 9 0;
#X connect 126 0 9 1;
#X connect 126 0 94 0;
#X connect 127 0 128 0;
#X connect 127 0 129 0;
#X connect 127 1 130 0;
#X connect 127 2 131 0;
#X connect 128 0 47 0;
#X connect 128 0 48 0;
#X connect 128 0 121 0;
#X connect 128 0 39 0;
#X connect 128 0 119 0;
#X connect 128 0 27 1;
#X connect 128 0 29 1;
#X connect 128 0 32 0;
#X connect 128 0 40 0;
#X connect 133 0 132 1;
#X connect 133 0 137 1;
#X connect 133 0 139 0;
#X connect 134 0 132 0;
#X connect 135 0 132 0;
#X connect 135 0 137 0;
#X connect 136 0 132 0;
#X connect 136 0 137 0;
#X connect 138 0 137 0;
#X connect 139 0 138 0;
#X connect 139 1 134 0;
#X connect 139 1 138 0;
#X connect 139 2 134 0;
