#N canvas 644 0 590 666 10;
#X obj 68 19 vsl 15 128 100 30000 0 0 empty empty empty 0 -9 0 10 -262144
-1 -1 12700 1;
#X obj 217 94 vsl 15 72 -36 36 0 0 empty empty empty 0 -9 0 10 -262144
-1 -1 2700 1;
#X obj 68 158 t b f;
#X obj 217 208 t b f;
#X floatatom 217 183 5 0 0 0 - - -;
#X floatatom 18 186 10 0 0 0 - - -;
#X text 65 -1 Window Width;
#X text 213 74 Transposition;
#X floatatom 106 225 10 0 0 0 - - -;
#X obj 105 250 expr (pow (2 \, ( $f2/12 ) ) - 1 ) * ( 44100/$f1 );
#X floatatom 80 282 5 0 0 0 - - -;
#X obj 150 278 / 44.1;
#X floatatom 150 305 5 0 0 0 - - -;
#X obj 36 316 phasor~;
#X obj 36 358 *~ -1;
#X obj 35 433 *~;
#X obj 303 351 +~ 0.5;
#X obj 302 374 wrap~;
#X obj 36 390 +~ 1;
#X obj 82 393 sig~;
#X obj 82 417 samphold~;
#X obj 251 442 *~ -1;
#X obj 281 517 *~;
#X obj 252 477 +~ 1;
#X obj 295 443 sig~;
#X obj 296 467 samphold~;
#X obj 45 463 vd~ b1;
#X obj 281 545 vd~ b1;
#X obj 397 490 cos~;
#X obj 336 488 sig~ 1;
#X obj 337 515 -~;
#X obj 337 541 *~ 0.5;
#X obj 281 574 *~;
#X obj 201 418 cos~;
#X obj 153 417 sig~ 1;
#X obj 153 449 -~;
#X obj 153 475 *~ 0.5;
#X obj 281 601 *~;
#X obj 46 510 *~;
#X floatatom 312 576 5 0 1 0 - - -;
#X obj 281 631 delwrite~ b1 5000;
#X obj 201 602 square~ 120;
#X obj 75 580 *~;
#X floatatom 149 514 5 0 0 0 - - -;
#X obj 135 620 dac~;
#X msg 447 19 \; pd dsp 1;
#X msg 447 57 \; pd dsp 0;
#X floatatom 197 569 5 0 0 0 - - -;
#X floatatom 212 306 5 0 0 0 - - -;
#X floatatom 274 306 5 0 0 0 - - -;
#X text 212 286 Freq;
#X text 273 285 Freq Offset;
#X obj 139 586 *~;
#X connect 0 0 2 0;
#X connect 0 0 5 0;
#X connect 1 0 4 0;
#X connect 2 0 4 0;
#X connect 2 1 8 0;
#X connect 3 0 8 0;
#X connect 3 1 9 1;
#X connect 4 0 3 0;
#X connect 8 0 9 0;
#X connect 8 0 11 0;
#X connect 9 0 10 0;
#X connect 10 0 13 0;
#X connect 11 0 12 0;
#X connect 12 0 19 0;
#X connect 12 0 24 0;
#X connect 13 0 14 0;
#X connect 13 0 16 0;
#X connect 13 0 33 0;
#X connect 13 0 20 1;
#X connect 14 0 18 0;
#X connect 15 0 26 0;
#X connect 16 0 17 0;
#X connect 17 0 21 0;
#X connect 17 0 25 1;
#X connect 17 0 28 0;
#X connect 18 0 15 0;
#X connect 19 0 20 0;
#X connect 20 0 15 1;
#X connect 21 0 23 0;
#X connect 22 0 27 0;
#X connect 22 0 42 1;
#X connect 22 0 52 1;
#X connect 23 0 22 0;
#X connect 24 0 25 0;
#X connect 25 0 22 1;
#X connect 26 0 38 0;
#X connect 27 0 32 0;
#X connect 28 0 30 1;
#X connect 29 0 30 0;
#X connect 30 0 31 0;
#X connect 31 0 32 1;
#X connect 32 0 37 0;
#X connect 33 0 35 1;
#X connect 34 0 35 0;
#X connect 35 0 36 0;
#X connect 36 0 38 1;
#X connect 37 0 40 0;
#X connect 38 0 42 0;
#X connect 38 0 52 0;
#X connect 39 0 37 1;
#X connect 41 0 40 0;
#X connect 42 0 44 0;
#X connect 47 0 41 0;
#X connect 48 0 21 1;
#X connect 48 0 14 1;
#X connect 49 0 18 1;
#X connect 49 0 23 1;
#X connect 52 0 44 1;
