#N canvas 348 104 450 300 10;
#X floatatom 209 22 5 0 0 0 - - -;
#X obj 120 73 noise~;
#X obj 120 113 *~ 0.2;
#X obj 209 52 phasor~;
#X obj 210 80 *~ 2;
#X obj 211 111 -~ 1;
#X obj 210 150 abs~;
#X obj 210 181 *~ -1;
#X obj 126 232 *~;
#X obj 175 230 *~;
#X obj 210 212 +~ 1;
#X obj 151 275 dac~;
#X msg 313 26 \; pd dsp 1;
#X msg 314 70 \; pd dsp 0;
#X connect 0 0 3 0;
#X connect 1 0 2 0;
#X connect 2 0 9 0;
#X connect 2 0 8 0;
#X connect 3 0 4 0;
#X connect 4 0 5 0;
#X connect 5 0 6 0;
#X connect 6 0 7 0;
#X connect 6 0 8 1;
#X connect 7 0 10 0;
#X connect 8 0 11 0;
#X connect 9 0 11 1;
#X connect 10 0 9 1;
