#N canvas 450 23 851 615 10;
#X obj 39 -9 tgl 15 0 empty empty empty 17 7 0 10 -262144 -1 -1 1 1
;
#X msg 61 -5 create;
#X msg 70 19 destroy;
#X obj 37 40 gemwin;
#X msg 281 12 \$1;
#X obj 278 35 gemhead;
#X obj 159 140 rotateXYZ;
#X obj 155 277 square;
#X obj 42 400 hradio 15 1 0 8 empty empty empty 0 -8 0 10 -262144 -1
-1 5;
#X obj 40 322 f;
#X obj 40 347 counter;
#X obj 40 295 metro;
#X obj 40 270 tgl 15 0 empty empty empty 17 7 0 10 -262144 -1 -1 1
1;
#X obj 158 212 color;
#X msg 353 620 1 1 1 0;
#X msg 409 621 0 0 0 0;
#X obj 41 440 sel 0 1 2 3 4 5 6 7;
#X obj 42 372 % 8;
#X obj 35 119 f;
#X obj 35 144 counter;
#X obj 35 92 metro;
#X floatatom 122 77 5 0 0 0 - - -;
#X obj 35 67 tgl 15 0 empty empty empty 17 7 0 10 -262144 -1 -1 1 1
;
#X obj 23 196 hradio 15 1 0 8 empty empty empty 0 -8 0 10 -262144 -1
-1 6;
#X obj 38 169 % 8;
#X obj 51 233 / 8;
#X obj 657 1 knob 32 32 0 1 0 0 empty empty empty 0 -8 0 8 -262144
-1 -1 2325 1;
#X obj 160 172 translateXYZ 0 0 0;
#X obj 539 142 rotateXYZ;
#X obj 536 266 square;
#X obj 539 204 color;
#X obj 672 140 rotateXYZ;
#X obj 675 261 square;
#X obj 674 205 color;
#X obj 209 273 rotateXYZ;
#X obj 212 397 square;
#X obj 211 339 color;
#X obj 723 271 rotateXYZ;
#X obj 729 400 square;
#X obj 726 336 color;
#X obj 605 272 rotateXYZ;
#X obj 606 400 square;
#X obj 603 345 color;
#X obj 658 403 rotateXYZ;
#X obj 658 524 square;
#X obj 658 473 color;
#X obj 795 405 rotateXYZ;
#X obj 794 524 square;
#X obj 795 473 color;
#X obj 916 406 rotateXYZ;
#X obj 916 527 square;
#X obj 916 474 color;
#X obj 672 169 translateXYZ 6 0 0;
#X obj 209 306 translateXYZ -6 3 0;
#X obj 726 302 translateXYZ 3 0 0;
#X obj 603 303 translateXYZ 3 0 0;
#X obj 795 441 translateXYZ 3 0 0;
#X obj 916 441 translateXYZ 3 0 0;
#X obj 658 442 translateXYZ -6 -6 0;
#X msg 465 621 1 1 1 0;
#X msg 521 622 0 0 0 0;
#X msg 577 622 1 1 1 0;
#X msg 633 623 0 0 0 0;
#X msg 690 623 1 1 1 0;
#X msg 745 622 0 0 0 0;
#X obj 284 -12 hsl 128 15 0 20 0 0 empty empty empty -2 -8 0 10 -262144
-1 -1 4500 1;
#X obj 539 170 translateXYZ -3 0 0;
#X floatatom 715 36 5 0 0 0 - - -;
#X msg 750 -7 \; pd dsp 1;
#X msg 821 -6 \; pd dsp 0;
#N canvas 178 76 986 519 MusicInterface 1;
#X obj 473 245 line~;
#X obj 416 261 *~;
#X obj 416 204 square~;
#X obj 439 292 lop~ 200;
#X msg 472 220 1 \, 0 190;
#X msg 347 91 80;
#X msg 374 91 160;
#X msg 403 92 240;
#X msg 430 91 320;
#X obj 456 533 dac~ 1 2;
#X msg 317 91 60;
#X obj 605 192 line~;
#X obj 571 208 *~;
#X msg 605 126 1 \, 0 190;
#X obj 570 247 lop~ 200;
#X msg 517 91 120;
#X msg 546 91 220;
#X msg 576 91 320;
#X msg 605 91 420;
#X obj 570 164 osc~;
#X obj 569 285 *~ 0.8;
#X msg 284 91 40;
#X obj 226 53 bng 15 250 50 0 empty empty empty 17 7 0 10 -262144 -1
-1;
#X obj 287 52 bng 15 250 50 0 empty empty empty 17 7 0 10 -262144 -1
-1;
#X obj 604 392 lop~;
#X floatatom 625 360 5 0 0 0 - - -;
#X obj 518 66 bng 15 250 50 0 empty empty empty 17 7 0 10 -262144 -1
-1;
#X obj 371 52 bng 15 250 50 0 empty empty empty 17 7 0 10 -262144 -1
-1;
#X obj 576 64 bng 15 250 50 0 empty empty empty 17 7 0 10 -262144 -1
-1;
#X obj 259 52 bng 15 250 50 0 empty empty empty 17 7 0 10 -262144 -1
-1;
#X obj 313 52 bng 15 250 50 0 empty empty empty 17 7 0 10 -262144 -1
-1;
#X obj 343 52 bng 15 250 50 0 empty empty empty 17 7 0 10 -262144 -1
-1;
#X obj 545 66 bng 15 250 50 0 empty empty empty 17 7 0 10 -262144 -1
-1;
#X obj 607 65 bng 15 250 50 0 empty empty empty 17 7 0 10 -262144 -1
-1;
#X floatatom 212 86 5 0 0 0 - - -;
#X obj 279 178 phasor~;
#X obj 278 221 *~ 256;
#X obj 337 177 osc~;
#X obj 277 249 +~;
#X obj 276 283 delay~ 100;
#X obj 276 322 tabread4~ bd;
#X obj 275 384 s~ wavesamp;
#X obj 350 353 samphold~;
#X obj 485 315 r~ wavesamp;
#N canvas 0 0 450 300 (subpatch) 0;
#X array bd 100 float 3;
#A 0 0 0 0 0 0 0 0 0 0 0 0 0 0 0 0 0 0 0 0 0 0 0 0 0 0 0 0 0 0 0 0
0 0 0 0 0 0 0 0 0 0 0 0 0 0 0 0 0 0 0 0 0 0 0 0 0 0 0 0 0 0 0 0 0 0
0 0 0 0 0 0 0 0 0 0 0 0 0 0 0 0 0 0 0 0 0 0 0 0 0 0 0 0 0 0 0 0 0 0
0;
#X coords 0 1 99 -1 200 140 1 0 0;
#X restore 3 35 graph;
#X obj 250 412 tabwrite~ bd;
#X obj 225 12 inlet;
#X obj 266 12 inlet;
#X obj 496 16 inlet;
#X obj 537 17 inlet;
#X obj 227 178 square~;
#X obj 308 12 inlet;
#X obj 349 12 inlet;
#X obj 388 11 inlet;
#X obj 428 12 inlet;
#X obj 580 18 inlet;
#X obj 621 19 inlet;
#X msg -46 483 roomsize \$1;
#X msg 40 483 damping \$1;
#X obj -43 451 hsl 60 15 0 1 0 0 empty empty empty -2 -8 0 10 -262144
-1 -1 2200 1;
#X obj 43 453 hsl 60 15 0 1 0 0 empty empty empty -2 -8 0 10 -262144
-1 -1 1000 1;
#X obj 130 451 hsl 60 15 0 1 0 0 empty empty empty -2 -8 0 10 -262144
-1 -1 2300 1;
#X obj 200 453 hsl 60 15 0 1 0 0 empty empty empty -2 -8 0 10 -262144
-1 -1 2300 1;
#X obj 297 451 hsl 60 15 0 0.5 0 0 empty empty empty -2 -8 0 10 -262144
-1 -1 4000 1;
#X msg 127 483 width \$1;
#X msg 210 483 wet \$1;
#X msg 294 483 dry \$1;
#X obj 294 531 s rvbctrlA;
#X obj 459 447 freeverb~;
#X obj 360 377 r rvbctrlA;
#X obj 485 361 *~ 0.3;
#X obj 437 360 *~ 0.3;
#X obj 569 330 *~ 0.4;
#X obj 617 328 *~ 0.4;
#X msg 700 91 680;
#X msg 731 91 720;
#X msg 766 90 800;
#X obj 729 181 square~;
#X obj 732 61 bng 15 250 50 0 empty empty empty 17 7 0 10 -262144 -1
-1;
#X obj 701 63 bng 15 250 50 0 empty empty empty 17 7 0 10 -262144 -1
-1;
#X obj 763 62 bng 15 250 50 0 empty empty empty 17 7 0 10 -262144 -1
-1;
#X obj 567 477 sig~;
#X obj 570 448 hsl 128 15 0 1 0 0 empty empty empty -2 -8 0 10 -262144
-1 -1 6900 1;
#X obj 460 493 *~;
#X floatatom 599 478 5 0 0 0 - - -;
#X connect 0 0 1 1;
#X connect 1 0 3 0;
#X connect 1 0 42 0;
#X connect 2 0 1 0;
#X connect 3 0 70 0;
#X connect 3 0 71 0;
#X connect 4 0 0 0;
#X connect 5 0 2 0;
#X connect 6 0 2 0;
#X connect 7 0 2 0;
#X connect 8 0 2 0;
#X connect 10 0 2 0;
#X connect 11 0 12 1;
#X connect 12 0 14 0;
#X connect 13 0 11 0;
#X connect 14 0 20 0;
#X connect 15 0 19 0;
#X connect 16 0 19 0;
#X connect 17 0 19 0;
#X connect 18 0 19 0;
#X connect 19 0 12 0;
#X connect 20 0 72 0;
#X connect 20 0 73 0;
#X connect 21 0 2 0;
#X connect 22 0 21 0;
#X connect 22 0 45 0;
#X connect 22 0 50 0;
#X connect 22 0 34 0;
#X connect 23 0 5 0;
#X connect 24 0 68 0;
#X connect 24 0 68 1;
#X connect 25 0 24 1;
#X connect 26 0 15 0;
#X connect 27 0 8 0;
#X connect 28 0 17 0;
#X connect 29 0 10 0;
#X connect 29 0 45 0;
#X connect 30 0 6 0;
#X connect 31 0 7 0;
#X connect 32 0 16 0;
#X connect 33 0 18 0;
#X connect 34 0 35 0;
#X connect 34 0 37 0;
#X connect 35 0 36 0;
#X connect 35 0 42 1;
#X connect 36 0 38 0;
#X connect 37 0 36 0;
#X connect 38 0 39 0;
#X connect 39 0 40 0;
#X connect 40 0 41 0;
#X connect 42 0 38 1;
#X connect 42 0 45 0;
#X connect 43 0 70 0;
#X connect 43 0 71 0;
#X connect 46 0 22 0;
#X connect 46 0 4 0;
#X connect 47 0 4 0;
#X connect 47 0 29 0;
#X connect 48 0 26 0;
#X connect 48 0 13 0;
#X connect 49 0 13 0;
#X connect 49 0 32 0;
#X connect 50 0 36 0;
#X connect 51 0 23 0;
#X connect 52 0 30 0;
#X connect 53 0 31 0;
#X connect 54 0 27 0;
#X connect 55 0 28 0;
#X connect 56 0 33 0;
#X connect 57 0 67 0;
#X connect 58 0 67 0;
#X connect 59 0 57 0;
#X connect 60 0 58 0;
#X connect 61 0 64 0;
#X connect 62 0 65 0;
#X connect 63 0 66 0;
#X connect 64 0 67 0;
#X connect 65 0 67 0;
#X connect 66 0 67 0;
#X connect 68 0 83 0;
#X connect 69 0 68 0;
#X connect 70 0 68 1;
#X connect 71 0 68 0;
#X connect 72 0 24 0;
#X connect 73 0 24 0;
#X connect 74 0 77 0;
#X connect 75 0 77 0;
#X connect 76 0 77 0;
#X connect 81 0 83 1;
#X connect 82 0 81 0;
#X connect 82 0 84 0;
#X connect 83 0 9 0;
#X connect 83 0 9 1;
#X restore 65 554 pd MusicInterface;
#X obj 279 140 rotateXYZ;
#X obj 277 271 square;
#X obj 280 206 color;
#X obj 409 139 rotateXYZ;
#X obj 407 270 square;
#X obj 410 205 color;
#X obj 280 170 translateXYZ -0.5 0 0;
#X obj 410 171 translateXYZ -1 0 0;
#X obj 796 139 rotateXYZ;
#X obj 799 260 square;
#X obj 798 204 color;
#X obj 795 168 translateXYZ 5 0 0;
#X obj 474 271 rotateXYZ;
#X obj 477 395 square;
#X obj 476 337 color;
#X obj 474 303 translateXYZ -4 3 0;
#X obj 916 135 rotateXYZ;
#X obj 919 259 square;
#X obj 918 201 color;
#X obj 916 168 translateXYZ 4 0 0;
#X obj 337 271 rotateXYZ;
#X obj 340 395 square;
#X obj 339 337 color;
#X obj 337 304 translateXYZ -5 3 0;
#X connect 0 0 3 0;
#X connect 1 0 3 0;
#X connect 2 0 3 0;
#X connect 4 0 5 0;
#X connect 5 0 28 0;
#X connect 5 0 31 0;
#X connect 5 0 34 0;
#X connect 5 0 37 0;
#X connect 5 0 40 0;
#X connect 5 0 43 0;
#X connect 5 0 46 0;
#X connect 5 0 49 0;
#X connect 5 0 74 0;
#X connect 5 0 71 0;
#X connect 5 0 6 0;
#X connect 5 0 83 0;
#X connect 5 0 79 0;
#X connect 5 0 87 0;
#X connect 5 0 91 0;
#X connect 6 0 27 0;
#X connect 8 0 16 0;
#X connect 9 0 10 0;
#X connect 10 0 17 0;
#X connect 11 0 9 0;
#X connect 12 0 11 0;
#X connect 13 0 7 0;
#X connect 14 0 39 1;
#X connect 14 0 13 1;
#X connect 14 0 73 1;
#X connect 14 0 85 1;
#X connect 14 0 89 1;
#X connect 15 0 39 1;
#X connect 15 0 13 1;
#X connect 15 0 73 1;
#X connect 15 0 85 1;
#X connect 15 0 89 1;
#X connect 16 0 14 0;
#X connect 16 0 70 0;
#X connect 16 0 70 3;
#X connect 16 1 15 0;
#X connect 16 1 70 2;
#X connect 16 2 59 0;
#X connect 16 2 70 2;
#X connect 16 3 60 0;
#X connect 16 3 70 1;
#X connect 16 4 61 0;
#X connect 16 4 70 4;
#X connect 16 4 70 0;
#X connect 16 5 62 0;
#X connect 16 5 70 3;
#X connect 16 5 70 0;
#X connect 16 6 63 0;
#X connect 16 6 70 5;
#X connect 16 6 70 4;
#X connect 16 6 70 6;
#X connect 16 7 64 0;
#X connect 16 7 70 7;
#X connect 16 7 70 8;
#X connect 16 7 70 9;
#X connect 17 0 8 0;
#X connect 18 0 19 0;
#X connect 19 0 24 0;
#X connect 20 0 18 0;
#X connect 21 0 20 1;
#X connect 21 0 11 1;
#X connect 22 0 20 0;
#X connect 23 0 25 0;
#X connect 24 0 23 0;
#X connect 25 0 26 0;
#X connect 26 0 7 1;
#X connect 26 0 35 1;
#X connect 26 0 41 1;
#X connect 26 0 44 1;
#X connect 26 0 47 1;
#X connect 26 0 50 1;
#X connect 26 0 38 1;
#X connect 26 0 67 0;
#X connect 26 0 80 1;
#X connect 26 0 75 1;
#X connect 26 0 32 1;
#X connect 27 0 13 0;
#X connect 28 0 66 0;
#X connect 30 0 29 0;
#X connect 31 0 52 0;
#X connect 33 0 32 0;
#X connect 34 0 53 0;
#X connect 36 0 35 0;
#X connect 37 0 54 0;
#X connect 39 0 38 0;
#X connect 40 0 55 0;
#X connect 42 0 41 0;
#X connect 43 0 58 0;
#X connect 45 0 44 0;
#X connect 46 0 56 0;
#X connect 48 0 47 0;
#X connect 49 0 57 0;
#X connect 51 0 50 0;
#X connect 52 0 33 0;
#X connect 53 0 36 0;
#X connect 54 0 39 0;
#X connect 55 0 42 0;
#X connect 56 0 48 0;
#X connect 57 0 51 0;
#X connect 58 0 45 0;
#X connect 59 0 30 1;
#X connect 59 0 42 1;
#X connect 59 0 51 1;
#X connect 59 0 76 1;
#X connect 60 0 30 1;
#X connect 60 0 42 1;
#X connect 60 0 51 1;
#X connect 60 0 76 1;
#X connect 61 0 33 1;
#X connect 61 0 45 1;
#X connect 61 0 93 1;
#X connect 62 0 33 1;
#X connect 62 0 45 1;
#X connect 62 0 93 1;
#X connect 63 0 36 1;
#X connect 63 0 48 1;
#X connect 63 0 81 1;
#X connect 64 0 36 1;
#X connect 64 0 48 1;
#X connect 64 0 81 1;
#X connect 65 0 4 0;
#X connect 66 0 30 0;
#X connect 71 0 77 0;
#X connect 73 0 72 0;
#X connect 74 0 78 0;
#X connect 76 0 75 0;
#X connect 77 0 73 0;
#X connect 78 0 76 0;
#X connect 79 0 82 0;
#X connect 81 0 80 0;
#X connect 82 0 81 0;
#X connect 83 0 86 0;
#X connect 85 0 84 0;
#X connect 86 0 85 0;
#X connect 87 0 90 0;
#X connect 89 0 88 0;
#X connect 90 0 89 0;
#X connect 91 0 94 0;
#X connect 93 0 92 0;
#X connect 94 0 93 0;
