#N canvas 422 185 591 426 10;
#X obj 301 73 rzero_rev~;
#X obj 298 116 rzero_rev~;
#X obj 296 159 rzero_rev~;
#X obj 296 202 rzero_rev~;
#X obj 285 241 +~;
#X obj 312 225 rpole~;
#X obj 303 181 rpole~;
#X obj 298 138 rpole~;
#X obj 299 93 rpole~;
#X obj 414 120 expr~ 0.97 - 0.6*$v1*$v1;
#X obj 441 94 expr~ abs($v1 - 0.5);
#X obj 369 58 phasor~ 0.3;
#X obj 322 257 lop~;
#X floatatom 145 45 5 0 0 0 - - -;
#X obj 441 58 osc~ 0.3;
#X obj 496 58 square~ 0.3;
#X obj 448 11 inlet sin;
#X obj 386 11 inlet saw;
#X obj 509 11 inlet sqr;
#X text 142 28 lp fltr;
#X floatatom 11 47 5 0 0 0 - - -;
#X floatatom 49 47 5 0 0 0 - - -;
#X text 11 29 Zero;
#X text 44 30 Pole;
#X obj 108 129 / 100;
#X obj 146 129 / 100;
#X obj 75 179 rzero~;
#X obj 76 204 rpole~;
#X text 10 17 SHELF;
#X text 11 66 PEAK(ing);
#X floatatom 11 93 5 0 0 0 - - -;
#X obj 212 110 * 3 24159;
#X obj 187 130 / 180;
#X obj 187 161 cos;
#X obj 223 162 sin;
#X obj 187 189 t b f;
#X obj 235 188 t b f;
#X obj 134 240 *;
#X obj 169 240 *;
#X obj 207 240 *;
#X obj 247 240 *;
#X obj 136 264 czero~;
#X obj 157 288 cpole~;
#X text 42 17 / PEAK;
#X text 12 76 angle (degrees);
#X text 139 15 A P FLTR;
#X text 69 29 /radii (%);
#X obj 297 11 inlet~ ssrcB;
#X obj 219 11 inlet~ ssrcA;
#X obj 156 318 outlet~ ch1;
#X obj 235 319 outlet~ ch2;
#X obj 323 319 outlet~ apfltr;
#X connect 0 0 8 0;
#X connect 1 0 7 0;
#X connect 2 0 6 0;
#X connect 3 0 5 0;
#X connect 4 0 12 0;
#X connect 5 0 4 1;
#X connect 6 0 3 0;
#X connect 7 0 2 0;
#X connect 8 0 1 0;
#X connect 9 0 0 1;
#X connect 9 0 1 1;
#X connect 9 0 2 1;
#X connect 9 0 3 1;
#X connect 9 0 6 1;
#X connect 9 0 5 1;
#X connect 9 0 7 1;
#X connect 9 0 8 1;
#X connect 10 0 9 0;
#X connect 11 0 10 0;
#X connect 12 0 51 0;
#X connect 13 0 12 1;
#X connect 14 0 10 0;
#X connect 15 0 10 0;
#X connect 16 0 14 0;
#X connect 17 0 11 0;
#X connect 18 0 15 0;
#X connect 20 0 24 0;
#X connect 21 0 25 0;
#X connect 24 0 26 1;
#X connect 24 0 37 0;
#X connect 24 0 38 0;
#X connect 25 0 27 1;
#X connect 25 0 39 0;
#X connect 25 0 40 0;
#X connect 26 0 27 0;
#X connect 30 0 31 0;
#X connect 31 0 32 0;
#X connect 32 0 33 0;
#X connect 32 0 34 0;
#X connect 33 0 35 0;
#X connect 34 0 36 0;
#X connect 35 0 37 0;
#X connect 35 0 39 0;
#X connect 35 1 37 1;
#X connect 35 1 39 1;
#X connect 36 0 38 0;
#X connect 36 0 40 0;
#X connect 36 1 38 1;
#X connect 36 1 40 1;
#X connect 37 0 41 2;
#X connect 38 0 41 3;
#X connect 39 0 42 2;
#X connect 40 0 42 3;
#X connect 41 0 42 0;
#X connect 41 1 42 1;
#X connect 42 0 49 0;
#X connect 42 1 50 0;
#X connect 47 0 4 0;
#X connect 48 0 41 0;
#X coords 0 -1 1 1 190 110 1 5 5;
