#N canvas 377 30 699 477 10;
#X obj 19 64 Toolkit-test;
#X obj 20 340 Toolkit-testII;
#X obj 235 268 dac_rec;
#X text 413 401 Spatial + Effcts;
#X obj 19 14 partial-bell;
#X obj 19 33 catch~ sum;
#X obj 559 264 partial_cntrl;
#X floatatom 195 290 5 0 0 0 - - -;
#X floatatom 159 290 5 0 0 0 - - -;
#X floatatom 123 290 5 0 0 0 - - -;
#X msg 361 274 \; pd dsp 1;
#X msg 431 274 \; pd dsp 0;
#X connect 0 0 1 1;
#X connect 0 0 1 0;
#X connect 0 1 6 0;
#X connect 0 2 6 1;
#X connect 1 0 2 1;
#X connect 1 1 2 2;
#X connect 1 2 2 0;
#X connect 5 0 0 0;
#X connect 7 0 1 4;
#X connect 8 0 1 3;
#X connect 9 0 1 2;
