#N canvas 733 119 544 421 10;
#X obj 158 49 pix_video;
#X obj 158 86 pix_blob 4;
#X obj 158 125 pix_film;
#X obj 223 126 f;
#X obj 158 152 pix_contrast;
#X obj 252 127 vsl 15 40 0 10 0 0 empty empty empty 0 -9 0 10 -262144
-1 -1 0 1;
#X obj 274 127 vsl 15 40 0 10 0 0 empty empty empty 0 -9 0 10 -262144
-1 -1 0 1;
#X obj 380 77 render_trigger;
#X msg 475 107 snap;
#X obj 158 257 translateXYZ;
#X obj 159 351 rotateXYZ;
#X obj 213 369 hsl 40 15 0 1 0 0 empty empty empty -2 -8 0 10 -262144
-1 -1 0 1;
#X obj 380 141 pix_snap 0 0 512 512;
#X obj 380 180 pix_texture;
#X obj 380 236 translateXYZ;
#X obj 380 278 rotateXYZ;
#X obj 380 323 rectangle 4 3;
#X obj 418 302 * 4;
#X obj 454 301 * 3;
#X obj 434 256 hsl 40 15 0 127 0 0 empty empty empty -2 -8 0 10 -262144
-1 -1 0 1;
#X obj 446 280 hsl 40 15 0 1 0 0 empty empty empty -2 -8 0 10 -262144
-1 -1 0 1;
#X obj 380 358 spigot;
#X obj 433 343 tgl 15 0 empty empty empty 17 7 0 10 -262144 -1 -1 0
1;
#X obj 178 280 tgl 15 0 empty empty empty 17 7 0 10 -262144 -1 -1 0
1;
#X obj 178 301 metro 10;
#X obj 180 324 f;
#X obj 209 324 + 1;
#X obj 408 106 gemhead 50;
#X obj 308 54 metro;
#X floatatom 335 11 5 0 0 0 - - -;
#X obj 307 7 tgl 15 0 empty empty empty 17 7 0 10 -262144 -1 -1 0 1
;
#X obj 310 76 f;
#X obj 312 107 counter;
#X obj 312 134 % 360;
#X obj 158 21 gemhead 5;
#N canvas 626 401 549 300 colorCh 0;
#X obj 45 11 inlet;
#X obj 109 58 hsl 128 15 0 1 0 0 empty empty empty -2 -8 0 10 -258113
-1 -1 0 1;
#X floatatom 106 110 5 0 0 0 - - -;
#X obj 247 57 hsl 128 15 0 1 0 0 empty empty empty -2 -8 0 10 -4034
-1 -1 0 1;
#X obj 388 57 hsl 128 15 0 1 0 0 empty empty empty -2 -8 0 10 -4160
-1 -1 0 1;
#X obj 47 171 color;
#X obj 225 154 pack f f f;
#X obj 244 106 trigger b f;
#X obj 385 107 trigger b f;
#X obj 47 228 outlet;
#X obj 103 13 inlet;
#X obj 145 30 / 20;
#X obj 243 12 inlet;
#X obj 385 29 / 20;
#X obj 185 11 inlet;
#X obj 219 30 / 20;
#X connect 0 0 5 0;
#X connect 1 0 2 0;
#X connect 1 0 6 0;
#X connect 3 0 7 0;
#X connect 4 0 8 0;
#X connect 5 0 9 0;
#X connect 6 0 5 1;
#X connect 7 0 6 0;
#X connect 7 1 6 1;
#X connect 8 0 6 0;
#X connect 8 1 6 2;
#X connect 10 0 11 0;
#X connect 11 0 1 0;
#X connect 12 0 13 0;
#X connect 13 0 4 0;
#X connect 14 0 15 0;
#X connect 15 0 3 0;
#X restore 158 199 pd colorCh;
#X obj 380 44 gemhead 25;
#X obj 379 383 cube 5;
#X obj 157 228 pix_texture;
#X obj 159 394 cube 0.34;
#X obj 312 162 % 20;
#X floatatom 302 221 5 0 0 0 - - -;
#X floatatom 468 206 5 0 0 0 - - -;
#X floatatom 428 206 5 0 0 0 - - -;
#X floatatom 391 206 5 0 0 0 - - -;
#X connect 0 0 1 0;
#X connect 1 0 2 0;
#X connect 2 0 4 0;
#X connect 2 2 3 0;
#X connect 3 0 2 1;
#X connect 4 0 35 0;
#X connect 5 0 4 1;
#X connect 6 0 4 2;
#X connect 7 0 12 0;
#X connect 7 2 8 0;
#X connect 8 0 12 0;
#X connect 9 0 10 0;
#X connect 10 0 39 0;
#X connect 11 0 39 1;
#X connect 12 0 13 0;
#X connect 13 0 14 0;
#X connect 14 0 15 0;
#X connect 15 0 16 0;
#X connect 16 0 21 0;
#X connect 17 0 16 1;
#X connect 18 0 16 2;
#X connect 19 0 15 3;
#X connect 20 0 17 0;
#X connect 20 0 18 0;
#X connect 21 0 37 0;
#X connect 22 0 21 1;
#X connect 23 0 24 0;
#X connect 24 0 25 0;
#X connect 25 0 26 0;
#X connect 25 0 10 1;
#X connect 25 0 10 2;
#X connect 26 0 25 1;
#X connect 27 0 12 0;
#X connect 28 0 31 0;
#X connect 29 0 28 1;
#X connect 30 0 28 0;
#X connect 31 0 32 0;
#X connect 32 0 33 0;
#X connect 32 0 40 0;
#X connect 33 0 15 1;
#X connect 33 0 15 2;
#X connect 33 0 10 3;
#X connect 34 0 0 0;
#X connect 35 0 38 0;
#X connect 36 0 7 0;
#X connect 38 0 9 0;
#X connect 40 0 35 1;
#X connect 40 0 35 2;
#X connect 41 0 9 3;
#X connect 42 0 14 3;
#X connect 43 0 14 2;
#X connect 44 0 14 1;
