#N canvas 458 309 327 279 10;
#X obj 42 20 tgl 10 0 empty g1 empty 17 7 0 10 -262144 -1 -1 0 1;
#X obj 52 20 tgl 10 0 empty g2 empty 17 7 0 10 -262144 -1 -1 0 1;
#X obj 72 20 tgl 10 0 empty g4 empty 17 7 0 10 -262144 -1 -1 0 1;
#X obj 82 20 tgl 10 0 empty g5 empty 17 7 0 10 -262144 -1 -1 0 1;
#X obj 92 20 tgl 10 0 empty g6 empty 17 7 0 10 -262144 -1 -1 0 1;
#X obj 62 20 tgl 10 0 empty g3 empty 17 7 0 10 -262144 -1 -1 0 1;
#X obj 102 20 tgl 10 0 empty g7 empty 17 7 0 10 -262144 -1 -1 0 1;
#X obj 112 20 tgl 10 0 empty g8 empty 17 7 0 10 -262144 -1 -1 0 1;
#X obj 132 20 tgl 10 0 empty g10 empty 17 7 0 10 -262144 -1 -1 0 1
;
#X obj 122 20 tgl 10 0 empty g9 empty 17 7 0 10 -262144 -1 -1 0 1;
#X obj 17 79 spigot;
#X obj 28 100 spigot;
#X obj 9 59 spigot;
#X obj 84 59 spigot;
#X obj 99 79 spigot;
#X obj 45 141 spigot;
#X obj 127 119 spigot;
#X obj 136 139 spigot;
#X obj 112 99 spigot;
#X obj 162 38 ca-cell-set-front;
#X obj 38 120 spigot;
#X obj 9 168 outlet g1;
#X obj 17 189 outlet g2;
#X obj 26 210 outlet g3;
#X obj 32 230 outlet g4;
#X obj 40 252 outlet g5;
#X obj 84 169 outlet g6;
#X obj 94 189 outlet g7;
#X obj 109 209 outlet g8;
#X obj 121 229 outlet g9;
#X obj 134 250 outlet g10;
#X obj 244 11 inlet timer;
#X obj 162 11 inlet binopt;
#X connect 0 0 12 0;
#X connect 0 0 12 1;
#X connect 1 0 10 1;
#X connect 1 0 10 0;
#X connect 2 0 15 0;
#X connect 2 0 15 1;
#X connect 3 0 20 0;
#X connect 3 0 20 1;
#X connect 4 0 13 0;
#X connect 4 0 13 1;
#X connect 5 0 11 1;
#X connect 5 0 11 0;
#X connect 6 0 14 0;
#X connect 6 0 14 1;
#X connect 7 0 18 0;
#X connect 7 0 18 1;
#X connect 8 0 17 0;
#X connect 8 0 17 1;
#X connect 9 0 16 0;
#X connect 9 0 16 1;
#X connect 10 0 22 0;
#X connect 11 0 23 0;
#X connect 12 0 21 0;
#X connect 13 0 26 0;
#X connect 14 0 27 0;
#X connect 15 0 25 0;
#X connect 16 0 29 0;
#X connect 17 0 30 0;
#X connect 18 0 28 0;
#X connect 20 0 24 0;
#X connect 31 0 19 1;
#X connect 32 0 19 0;
#X coords 0 -1 1 1 120 30 1 36 5;
