#N canvas 538 11 797 530 10;
#X obj 13 -188 hradio 15 1 0 2 empty empty empty 0 -8 0 10 -262144
-1 -1 1;
#N canvas 192 291 450 300 setGEM 0;
#X obj 116 30 inlet load;
#X obj 194 94 gemwin;
#X obj 28 30 inlet set/del;
#X obj 194 129 outlet;
#X obj 194 31 r lb;
#X obj 196 155 loadbang;
#X obj 196 180 s lb;
#X obj 28 60 sel 0 1;
#X msg 67 84 create;
#X msg 65 109 destroy;
#X msg 194 55 dimen 800 600;
#X connect 0 0 1 0;
#X connect 1 0 3 0;
#X connect 2 0 7 0;
#X connect 4 0 10 0;
#X connect 5 0 6 0;
#X connect 7 0 9 0;
#X connect 7 1 8 0;
#X connect 8 0 1 0;
#X connect 9 0 1 0;
#X connect 10 0 1 0;
#X restore 13 -172 pd setGEM;
#X obj 64 -188 tgl 15 0 empty empty empty 17 7 0 10 -262144 -1 -1 1
1;
#X obj 13 -154 s GEMobj;
#X obj 82 -188 tgl 15 0 empty empty empty 17 7 0 10 -262144 -1 -1 1
1;
#X msg 82 -172 lighting \$1;
#X obj 166 -36 f;
#X obj 205 -2 % 360;
#X obj 166 -1 % 20;
#X obj 36 -37 f;
#X obj 62 -3 % 30;
#X obj 89 -37 f;
#X obj 116 -37 + 10;
#X obj 123 0 % 120;
#X obj 62 -37 + 5;
#X obj 89 -148 tgl 15 0 empty empty empty 17 7 0 10 -262144 -1 -1 0
1;
#X obj 205 -36 + 1;
#X floatatom 62 28 5 0 0 0 - - -;
#X floatatom 123 28 5 0 0 0 - - -;
#X floatatom 166 28 5 0 0 0 - - -;
#X floatatom 205 29 5 0 0 0 - - -;
#X obj 89 -88 metro 500;
#X floatatom 140 -150 5 0 0 0 - - -;
#X obj 153 -65 f;
#X obj 182 -65 + 1;
#X obj 196 -149 tgl 15 0 empty empty empty 17 7 0 10 -262144 -1 -1
0 1;
#X obj 153 -88 metro 500;
#X obj 305 -167 gemhead;
#X obj 425 13 part_source 5 point;
#X obj 425 37 part_velocity;
#X msg 366 -152 speed \$1;
#X floatatom 396 -168 5 0 4 0 - - -;
#X obj 305 -4 part_color;
#X obj 456 -51 r lb;
#X obj 305 -135 part_head 200;
#X msg 395 -34 \$1 \$1 1;
#X msg 456 -21 \$1 0 1;
#X msg 599 10 -0.2 0.3 0.2 0.3;
#X msg 598 51 0.2 0.3 0.2 0.3;
#X msg 601 -59 0 -3 0 4;
#X msg 600 -16 0 -8 -3 0;
#X msg 601 -38 0 -2 0 0;
#X msg 599 30 0 0.2 0 0.6;
#X obj 504 -58 pack f f f f;
#X obj 504 -35 hsv2rgb;
#X obj 513 -106 unpack f f f;
#X obj 453 -158 t b f;
#X obj 493 -157 t b f;
#X obj 440 -123 pack f f f;
#X obj 455 -185 hsl 10 14 0 1 0 0 empty empty empty -2 -8 0 10 -258113
-1 -1 100 1;
#X obj 472 -185 hsl 10 14 0 1 0 0 empty empty empty -2 -8 0 10 -4034
-1 -1 300 1;
#X obj 490 -185 hsl 10 14 0 1 0 0 empty empty empty -2 -8 0 10 -4032
-1 -1 900 1;
#X obj 425 64 color;
#X floatatom 600 -83 5 0 0 0 - - -;
#X obj 661 -154 metro 240;
#X obj 661 -186 tgl 15 0 empty empty empty 17 7 0 10 -262144 -1 -1
1 1;
#X floatatom 687 -186 5 0 0 0 - - -;
#X obj 685 -132 loadbang;
#X msg 685 -107 20;
#X obj 600 -106 multi_counter;
#X obj 661 -129 bng 15 250 50 0 empty empty empty 17 7 0 10 -262144
-1 -1;
#X msg 604 -170 up;
#X msg 610 -151 down;
#X msg 615 -132 updown;
#X obj 330 277 cube 0.34;
#X msg 358 192 draw line;
#X msg 359 215 draw fill;
#X obj 425 116 translateXYZ;
#X obj 425 140 rotateXYZ;
#X obj 427 249 spigot;
#X obj 264 278 sphere;
#X floatatom 380 149 5 0 1 0 - - -;
#X obj 277 134 hsl 128 15 0 1 0 0 empty empty empty -2 -8 0 10 -262144
-1 -1 4233 1;
#X obj 461 229 tgl 15 0 empty empty empty 17 7 0 10 -262144 -1 -1 0
1;
#X msg 480 228 1;
#X floatatom 475 253 5 0 0 0 - - -;
#X obj 424 162 part_size;
#X obj 424 206 part_render;
#X obj 425 185 part_killold 10;
#X obj 428 277 cube 2;
#X floatatom 369 252 5 0 0 0 - - -;
#X floatatom 253 215 5 0 0 0 - - -;
#X floatatom 276 235 5 0 0 0 - - -;
#X obj 64 63 ../AudioTests/bpmclk;
#X obj 64 204 f;
#X obj 118 203 % 540;
#X obj 159 204 / 540;
#X obj 91 203 + 30;
#X obj 425 92 alpha;
#X msg 470 70 auto \$1;
#X obj 507 55 tgl 15 0 empty empty empty 17 7 0 10 -262144 -1 -1 0
1;
#X obj 463 93 tgl 15 0 empty empty empty 17 7 0 10 -262144 -1 -1 1
1;
#X obj 319 -81 expr if($f1<=0.41 \, 1 \, $f1);
#X obj 319 -104 *;
#X obj 225 -180 knob 20 20 0 20 0 0 empty empty empty 0 -8 0 8 -262144
-1 -1 1900 1;
#X obj 485 -81 /;
#X floatatom 349 -55 5 0 0 0 - - -;
#X floatatom 226 -149 5 0 0 0 - - -;
#X obj 226 -63 f;
#X obj 255 -63 + 1;
#X obj 269 -147 tgl 15 0 empty empty empty 17 7 0 10 -262144 -1 -1
0 1;
#X obj 226 -86 metro 500;
#X obj 255 -40 % 20;
#X floatatom 255 -11 5 0 0 0 - - -;
#X obj 537 -186 bng 15 250 50 0 empty empty empty 17 7 0 10 -262144
-1 -1;
#X obj 558 -186 bng 15 250 50 0 empty empty empty 17 7 0 10 -262144
-1 -1;
#X obj 579 -185 bng 15 250 50 0 empty empty empty 17 7 0 10 -262144
-1 -1;
#X connect 0 0 1 0;
#X connect 1 0 3 0;
#X connect 2 0 1 1;
#X connect 4 0 5 0;
#X connect 6 0 16 0;
#X connect 7 0 20 0;
#X connect 7 0 68 2;
#X connect 7 0 68 1;
#X connect 8 0 19 0;
#X connect 9 0 14 0;
#X connect 10 0 17 0;
#X connect 11 0 12 0;
#X connect 12 0 11 1;
#X connect 12 0 13 0;
#X connect 13 0 18 0;
#X connect 14 0 10 0;
#X connect 14 0 9 1;
#X connect 15 0 21 0;
#X connect 16 0 6 1;
#X connect 16 0 7 0;
#X connect 21 0 9 0;
#X connect 21 0 11 0;
#X connect 21 0 6 0;
#X connect 22 0 21 1;
#X connect 22 0 26 1;
#X connect 23 0 24 0;
#X connect 24 0 23 1;
#X connect 24 0 8 0;
#X connect 25 0 26 0;
#X connect 26 0 23 0;
#X connect 27 0 34 0;
#X connect 28 0 29 0;
#X connect 29 0 52 0;
#X connect 30 0 34 0;
#X connect 31 0 30 0;
#X connect 32 0 28 0;
#X connect 33 0 35 0;
#X connect 33 0 36 0;
#X connect 34 0 32 0;
#X connect 35 0 32 1;
#X connect 36 0 32 2;
#X connect 37 0 29 2;
#X connect 38 0 29 2;
#X connect 39 0 28 3;
#X connect 40 0 28 3;
#X connect 41 0 28 3;
#X connect 42 0 29 2;
#X connect 43 0 44 0;
#X connect 44 0 52 1;
#X connect 45 0 43 1;
#X connect 45 1 43 2;
#X connect 45 2 43 3;
#X connect 46 0 48 0;
#X connect 46 1 48 1;
#X connect 47 0 48 0;
#X connect 47 1 48 2;
#X connect 48 0 45 0;
#X connect 48 0 32 1;
#X connect 48 0 32 2;
#X connect 49 0 48 0;
#X connect 50 0 46 0;
#X connect 51 0 47 0;
#X connect 52 0 88 0;
#X connect 53 0 95 1;
#X connect 54 0 60 0;
#X connect 55 0 54 0;
#X connect 56 0 54 1;
#X connect 57 0 58 0;
#X connect 58 0 59 2;
#X connect 59 0 53 0;
#X connect 60 0 59 1;
#X connect 61 0 59 0;
#X connect 62 0 59 0;
#X connect 63 0 59 0;
#X connect 65 0 79 0;
#X connect 65 0 64 0;
#X connect 65 0 70 0;
#X connect 66 0 79 0;
#X connect 66 0 64 0;
#X connect 66 0 70 0;
#X connect 67 0 68 0;
#X connect 68 0 76 0;
#X connect 69 0 79 0;
#X connect 71 0 76 1;
#X connect 72 0 71 0;
#X connect 73 0 69 1;
#X connect 74 0 69 1;
#X connect 75 0 79 1;
#X connect 76 0 78 0;
#X connect 77 0 69 0;
#X connect 77 0 64 0;
#X connect 77 0 70 0;
#X connect 78 0 77 0;
#X connect 80 0 64 1;
#X connect 81 0 70 1;
#X connect 82 0 70 2;
#X connect 83 0 84 0;
#X connect 83 0 73 0;
#X connect 84 0 87 0;
#X connect 85 0 86 0;
#X connect 86 0 72 0;
#X connect 87 0 84 1;
#X connect 87 0 85 0;
#X connect 88 0 67 0;
#X connect 89 0 88 0;
#X connect 90 0 89 0;
#X connect 91 0 88 1;
#X connect 92 0 95 0;
#X connect 93 0 92 0;
#X connect 94 0 93 1;
#X connect 95 0 43 0;
#X connect 95 0 96 0;
#X connect 97 0 101 1;
#X connect 98 0 99 0;
#X connect 99 0 98 1;
#X connect 99 0 102 0;
#X connect 100 0 101 0;
#X connect 101 0 98 0;
#X connect 102 0 103 0;
#X connect 102 0 93 0;
#X connect 104 0 63 0;
#X connect 105 0 62 0;
#X connect 106 0 61 0;
