#N canvas 4 16 789 654 10;
#X obj 354 13 gemhead;
#X msg 404 6 speed \$1;
#X obj 363 240 part_color;
#X obj 478 192 r lb;
#X obj 354 87 part_head 200;
#X msg 417 209 \$1 \$1 1;
#X msg 478 223 \$1 0 1;
#X obj 536 188 pack f f f f;
#X obj 536 236 hsv2rgb;
#X obj 535 113 unpack f f f;
#X obj 480 64 t b f;
#X obj 520 65 t b f;
#X obj 455 112 pack f f f;
#X floatatom 627 142 5 0 0 0 - - -;
#X obj 679 57 metro 240;
#X obj 702 80 loadbang;
#X msg 712 114 20;
#X obj 627 115 multi_counter;
#X obj 679 80 bng 15 250 50 0 empty empty empty 17 7 0 10 -262144 -1
-1;
#X msg 562 16 up;
#X msg 592 16 down;
#X msg 627 16 updown;
#X obj 368 162 expr if($f1<=0.41 \, 1 \, $f1);
#X obj 368 123 *;
#X obj 298 129 knob 20 20 0 20 0 0 empty empty empty 0 -8 0 8 -262144
-1 -1 0 1;
#X obj 536 158 /;
#X floatatom 277 105 5 0 0 0 - - -;
#X obj 227 298 f;
#X obj 256 298 + 1;
#X obj 259 106 tgl 15 0 empty empty empty 17 7 0 10 -262144 -1 -1 0
1;
#X obj 227 275 metro 500;
#X obj 256 321 % 20;
#X text 252 123 Set hsv;
#X text 252 89 Colour Cycle;
#X obj 354 187 separator;
#X obj 486 257 r lb;
#X obj 354 305 part_color;
#X obj 354 344 part_source 5 point;
#X obj 354 368 part_velocity;
#X msg 527 302 -0.2 0.3 0.2 0.3;
#X msg 526 343 0.2 0.3 0.2 0.3;
#X msg 605 234 0 -3 0 4;
#X msg 604 277 0 -8 -3 0;
#X msg 605 255 0 -2 0 0;
#X msg 527 322 0 0.2 0 0.6;
#X obj 354 402 color;
#X obj 512 377 part_source 5 point;
#X obj 512 397 part_velocity;
#X msg 670 339 -0.2 0.3 0.2 0.3;
#X msg 669 380 0.2 0.3 0.2 0.3;
#X msg 670 359 0 0.2 0 0.6;
#X msg 425 274 \$1 \$1 0;
#X msg 486 288 \$1 1 0;
#X msg 689 314 0 -8 -2 0;
#X msg 690 292 0 -2 0 0;
#X msg 690 271 0 -3 0 3;
#X obj 276 592 cube 0.34;
#X msg 248 498 draw line;
#X msg 288 519 draw fill;
#X obj 354 448 translateXYZ;
#X obj 354 472 rotateXYZ;
#X obj 356 581 spigot;
#X obj 223 593 sphere;
#X floatatom 286 478 5 0 1 0 - - -;
#X obj 390 561 tgl 15 0 empty empty empty 17 7 0 10 -262144 -1 -1 0
1;
#X msg 409 560 1;
#X obj 353 494 part_size;
#X obj 353 538 part_render;
#X obj 354 517 part_killold 10;
#X obj 357 609 cube 2;
#X obj 354 426 alpha;
#X msg 399 409 auto \$1;
#X obj 645 414 color;
#X obj 645 459 translateXYZ;
#X obj 645 483 rotateXYZ;
#X obj 647 592 spigot;
#X obj 681 572 tgl 15 0 empty empty empty 17 7 0 10 -262144 -1 -1 0
1;
#X msg 700 571 1;
#X obj 644 505 part_size;
#X obj 644 549 part_render;
#X obj 645 528 part_killold 10;
#X obj 645 437 alpha;
#X msg 690 420 auto \$1;
#X obj 734 217 + 10;
#X obj 647 620 cube 0.12;
#X obj 11 43 hradio 15 1 0 2 empty empty empty 0 -8 0 10 -262144 -1
-1 0;
#N canvas 192 291 450 300 setGEM 0;
#X obj 116 30 inlet load;
#X obj 194 94 gemwin;
#X obj 28 30 inlet set/del;
#X obj 194 129 outlet;
#X obj 194 31 r lb;
#X obj 196 155 loadbang;
#X obj 196 180 s lb;
#X obj 28 60 sel 0 1;
#X msg 67 84 create;
#X msg 65 109 destroy;
#X msg 194 55 dimen 800 600;
#X connect 0 0 1 0;
#X connect 1 0 3 0;
#X connect 2 0 7 0;
#X connect 4 0 10 0;
#X connect 5 0 6 0;
#X connect 7 0 9 0;
#X connect 7 1 8 0;
#X connect 8 0 1 0;
#X connect 9 0 1 0;
#X connect 10 0 1 0;
#X restore 11 59 pd setGEM;
#X obj 62 43 tgl 15 0 empty empty empty 17 7 0 10 -262144 -1 -1 0 1
;
#X obj 11 77 s GEMobj;
#X obj 80 43 tgl 15 0 empty empty empty 17 7 0 10 -262144 -1 -1 0 1
;
#X msg 80 59 lighting \$1;
#X floatatom 260 42 5 0 4 0 - - -;
#X obj 167 82 hsl 14 14 0 1 0 0 empty empty empty -2 -8 0 10 -258113
-1 -1 0 1;
#X obj 197 82 hsl 14 14 0 1 0 0 empty empty empty -2 -8 0 10 -4034
-1 -1 0 1;
#X obj 228 82 hsl 14 14 0 1 0 0 empty empty empty -2 -8 0 10 -4032
-1 -1 0 1;
#X obj 167 42 tgl 15 0 empty empty empty 17 7 0 10 -262144 -1 -1 0
1;
#X floatatom 193 42 5 0 0 0 - - -;
#X obj 138 43 tgl 15 0 empty empty empty 17 7 0 10 -262144 -1 -1 0
1;
#X obj 116 43 tgl 15 0 empty empty empty 17 7 0 10 -262144 -1 -1 0
1;
#X obj 166 60 bng 15 250 50 0 empty empty empty 17 7 0 10 -262144 -1
-1;
#X obj 187 60 bng 15 250 50 0 empty empty empty 17 7 0 10 -262144 -1
-1;
#X obj 208 61 bng 15 250 50 0 empty empty empty 17 7 0 10 -262144 -1
-1;
#X text 94 80 Part Size;
#X text 256 26 Speed;
#X text 6 26 Light & Colour Seperation;
#X obj 259 71 bng 15 250 50 0 empty empty empty 17 7 0 10 -262144 -1
-1;
#X obj 286 71 bng 15 250 50 0 empty empty empty 17 7 0 10 -262144 -1
-1;
#X text 249 69 l;
#X text 276 68 f;
#X text 257 56 Draw Type;
#X text 163 26 Colour (Set);
#X obj 11 96 ../AudioTests/bpmclk;
#X obj 163 131 tgl 15 0 empty empty empty 17 7 0 10 -262144 -1 -1 0
1;
#X floatatom 200 130 5 0 0 0 - - -;
#X obj 181 131 tgl 15 0 empty empty empty 17 7 0 10 -262144 -1 -1 0
1;
#X obj 163 152 hsl 128 15 0 1 0 0 empty empty empty -2 -8 0 10 -262144
-1 -1 0 1;
#X floatatom 133 186 5 0 0 0 - - -;
#X floatatom 83 186 5 0 0 0 - - -;
#X floatatom 12 186 5 0 0 0 - - -;
#X floatatom 47 186 5 0 0 0 - - -;
#X text 10 171 Sphere Sz;
#X text 130 170 Cube1 Sz;
#X text 79 171 Cube2 Sz;
#X text 264 169 Part Point;
#X obj 266 185 bng 15 250 50 0 empty empty empty 17 7 0 10 -262144
-1 -1;
#X obj 282 185 bng 15 250 50 0 empty empty empty 17 7 0 10 -262144
-1 -1;
#X obj 298 185 bng 15 250 50 0 empty empty empty 17 7 0 10 -262144
-1 -1;
#X text 201 169 Part Veloc;
#X obj 202 186 bng 15 250 50 0 empty empty empty 17 7 0 10 -262144
-1 -1;
#X obj 218 186 bng 15 250 50 0 empty empty empty 17 7 0 10 -262144
-1 -1;
#X obj 234 186 bng 15 250 50 0 empty empty empty 17 7 0 10 -262144
-1 -1;
#X floatatom 168 186 5 0 0 0 - - -;
#X obj 268 215 bng 15 250 50 0 empty empty empty 17 7 0 10 -262144
-1 -1;
#X obj 284 215 bng 15 250 50 0 empty empty empty 17 7 0 10 -262144
-1 -1;
#X obj 300 215 bng 15 250 50 0 empty empty empty 17 7 0 10 -262144
-1 -1;
#X obj 204 216 bng 15 250 50 0 empty empty empty 17 7 0 10 -262144
-1 -1;
#X obj 220 216 bng 15 250 50 0 empty empty empty 17 7 0 10 -262144
-1 -1;
#X obj 236 216 bng 15 250 50 0 empty empty empty 17 7 0 10 -262144
-1 -1;
#X obj 167 331 f;
#X obj 257 345 % 360;
#X obj 175 366 % 20;
#X obj 29 330 f;
#X obj 55 364 % 30;
#X obj 82 330 f;
#X obj 109 330 + 10;
#X obj 116 367 % 120;
#X obj 55 330 + 5;
#X obj 206 328 + 1;
#X obj 82 279 metro 500;
#X obj 146 302 f;
#X obj 175 302 + 1;
#X obj 146 279 metro 500;
#X obj 55 442 f;
#X obj 118 442 % 540;
#X obj 159 443 / 540;
#X obj 84 442 + 30;
#X text 162 112 Part Rotate;
#X connect 0 0 4 0;
#X connect 1 0 4 0;
#X connect 2 0 46 0;
#X connect 3 0 5 0;
#X connect 3 0 6 0;
#X connect 4 0 34 0;
#X connect 5 0 2 1;
#X connect 6 0 2 2;
#X connect 7 0 8 0;
#X connect 8 0 45 1;
#X connect 8 0 72 1;
#X connect 9 0 7 1;
#X connect 9 1 7 2;
#X connect 9 2 7 3;
#X connect 10 0 12 0;
#X connect 10 1 12 1;
#X connect 11 0 12 0;
#X connect 11 1 12 2;
#X connect 12 0 9 0;
#X connect 12 0 2 1;
#X connect 12 0 2 2;
#X connect 12 0 36 2;
#X connect 12 0 36 1;
#X connect 13 0 25 1;
#X connect 14 0 18 0;
#X connect 15 0 16 0;
#X connect 16 0 17 2;
#X connect 17 0 13 0;
#X connect 18 0 17 1;
#X connect 19 0 17 0;
#X connect 20 0 17 0;
#X connect 21 0 17 0;
#X connect 22 0 25 0;
#X connect 23 0 22 0;
#X connect 24 0 23 1;
#X connect 25 0 7 0;
#X connect 26 0 30 1;
#X connect 27 0 28 0;
#X connect 28 0 27 1;
#X connect 28 0 31 0;
#X connect 29 0 30 0;
#X connect 30 0 27 0;
#X connect 31 0 23 0;
#X connect 34 0 2 0;
#X connect 34 0 36 0;
#X connect 35 0 51 0;
#X connect 35 0 52 0;
#X connect 36 0 37 0;
#X connect 37 0 38 0;
#X connect 38 0 45 0;
#X connect 39 0 38 2;
#X connect 40 0 38 2;
#X connect 41 0 37 3;
#X connect 42 0 37 3;
#X connect 43 0 37 3;
#X connect 44 0 38 2;
#X connect 46 0 47 0;
#X connect 47 0 72 0;
#X connect 48 0 47 2;
#X connect 49 0 47 2;
#X connect 50 0 47 2;
#X connect 51 0 36 1;
#X connect 52 0 36 2;
#X connect 53 0 46 3;
#X connect 54 0 46 3;
#X connect 55 0 46 3;
#X connect 57 0 69 0;
#X connect 57 0 56 0;
#X connect 57 0 62 0;
#X connect 57 0 84 0;
#X connect 58 0 69 0;
#X connect 58 0 56 0;
#X connect 58 0 62 0;
#X connect 58 0 84 0;
#X connect 59 0 60 0;
#X connect 60 0 66 0;
#X connect 61 0 69 0;
#X connect 63 0 66 1;
#X connect 64 0 61 1;
#X connect 65 0 61 1;
#X connect 66 0 68 0;
#X connect 67 0 61 0;
#X connect 67 0 56 0;
#X connect 67 0 62 0;
#X connect 68 0 67 0;
#X connect 70 0 59 0;
#X connect 71 0 70 0;
#X connect 72 0 81 0;
#X connect 73 0 74 0;
#X connect 74 0 78 0;
#X connect 75 0 84 0;
#X connect 76 0 75 1;
#X connect 77 0 75 1;
#X connect 78 0 80 0;
#X connect 79 0 75 0;
#X connect 80 0 79 0;
#X connect 81 0 73 0;
#X connect 82 0 81 0;
#X connect 83 0 78 1;
#X connect 85 0 86 0;
#X connect 86 0 88 0;
#X connect 87 0 86 1;
#X connect 89 0 90 0;
#X connect 91 0 1 0;
#X connect 92 0 12 0;
#X connect 93 0 10 0;
#X connect 94 0 11 0;
#X connect 95 0 14 0;
#X connect 96 0 14 1;
#X connect 97 0 71 0;
#X connect 97 0 82 0;
#X connect 98 0 70 1;
#X connect 98 0 81 1;
#X connect 99 0 19 0;
#X connect 100 0 20 0;
#X connect 101 0 21 0;
#X connect 105 0 57 0;
#X connect 106 0 58 0;
#X connect 111 0 152 0;
#X connect 111 0 64 0;
#X connect 111 0 76 0;
#X connect 112 0 148 0;
#X connect 113 0 148 1;
#X connect 113 0 151 1;
#X connect 114 0 151 0;
#X connect 115 0 63 0;
#X connect 115 0 83 0;
#X connect 116 0 69 1;
#X connect 117 0 56 1;
#X connect 118 0 62 1;
#X connect 119 0 62 2;
#X connect 124 0 41 0;
#X connect 125 0 43 0;
#X connect 126 0 42 0;
#X connect 128 0 39 0;
#X connect 129 0 44 0;
#X connect 130 0 40 0;
#X connect 131 0 84 1;
#X connect 132 0 55 0;
#X connect 133 0 54 0;
#X connect 134 0 53 0;
#X connect 135 0 48 0;
#X connect 136 0 50 0;
#X connect 137 0 49 0;
#X connect 138 0 147 0;
#X connect 139 0 60 1;
#X connect 139 0 60 2;
#X connect 139 0 74 1;
#X connect 139 0 74 2;
#X connect 141 0 146 0;
#X connect 143 0 144 0;
#X connect 144 0 143 1;
#X connect 144 0 145 0;
#X connect 146 0 142 0;
#X connect 146 0 141 1;
#X connect 147 0 138 1;
#X connect 147 0 139 0;
#X connect 148 0 141 0;
#X connect 148 0 143 0;
#X connect 148 0 138 0;
#X connect 149 0 150 0;
#X connect 150 0 149 1;
#X connect 150 0 140 0;
#X connect 151 0 149 0;
#X connect 152 0 155 0;
#X connect 153 0 154 0;
#X connect 154 0 115 0;
#X connect 155 0 152 1;
#X connect 155 0 153 0;
#X coords 0 -1 1 1 330 240 1 2 2;
