#N canvas 676 129 671 549 10;
#X obj 277 230 translateXYZ;
#X obj 277 324 rotateXYZ;
#X obj 298 274 metro 10;
#X obj 298 297 f;
#X obj 327 297 + 1;
#X obj 311 424 cube 0.34;
#X msg 340 324 draw line;
#X msg 341 347 draw fill;
#X obj 407 248 translateXYZ;
#X obj 407 272 rotateXYZ;
#X obj 409 381 spigot;
#X obj 278 51 f;
#X obj 310 76 % 360;
#X obj 275 77 % 20;
#X obj 139 50 f;
#X obj 165 75 % 30;
#X obj 201 50 f;
#X obj 228 50 + 10;
#X obj 228 78 % 120;
#X obj 165 50 + 5;
#X obj 190 -30 tgl 15 0 empty empty empty 17 7 0 10 -262144 -1 -1 1
1;
#X obj 310 51 + 1;
#X floatatom 165 106 5 0 0 0 - - -;
#X floatatom 228 106 5 0 0 0 - - -;
#X floatatom 275 106 5 0 0 0 - - -;
#X floatatom 310 107 5 0 0 0 - - -;
#X obj 221 134 gemhead;
#X obj 18 279 part_velocity;
#X obj 36 247 part_source 5 point;
#X obj 18 213 part_color;
#X obj 107 159 r lb;
#X obj 68 327 part_killold 20;
#X obj 67 304 part_size;
#X obj 194 343 part_render;
#X msg 18 122 speed \$1;
#X floatatom 125 106 5 0 4 0 - - -;
#X msg 169 188 0 -3 0 4;
#X msg 169 209 0 -3 0 0;
#X obj 18 151 part_head 200;
#X obj 245 425 sphere;
#X msg 169 262 -0.2 0.3 0.2 0.3;
#X msg 169 282 0 0.3 0 0.3;
#X msg 168 303 0.2 0.3 0.2 0.3;
#X msg 169 234 0 -8 -3 0;
#X obj 19 -32 hradio 15 1 0 2 empty empty empty 0 -8 0 10 -262144 -1
-1 1;
#N canvas 192 291 450 300 setGEM 0;
#X obj 116 30 inlet load;
#X obj 194 94 gemwin;
#X obj 28 30 inlet set/del;
#X obj 194 129 outlet;
#X obj 194 31 r lb;
#X obj 196 155 loadbang;
#X obj 196 180 s lb;
#X obj 28 60 sel 0 1;
#X msg 67 84 create;
#X msg 65 109 destroy;
#X msg 194 55 dimen 800 600;
#X connect 0 0 1 0;
#X connect 1 0 3 0;
#X connect 2 0 7 0;
#X connect 4 0 10 0;
#X connect 5 0 6 0;
#X connect 7 0 9 0;
#X connect 7 1 8 0;
#X connect 8 0 1 0;
#X connect 9 0 1 0;
#X connect 10 0 1 0;
#X restore 19 -16 pd setGEM;
#X obj 70 -32 tgl 15 0 empty empty empty 17 7 0 10 -262144 -1 -1 1
1;
#X text 15 -51 GEM SET;
#X obj 19 2 s GEMobj;
#N canvas 626 401 549 300 colorCh 0;
#X obj 45 11 inlet;
#X obj 109 58 hsl 128 15 0 1 0 0 empty empty empty -2 -8 0 10 -258113
-1 -1 1270 1;
#X floatatom 106 110 5 0 0 0 - - -;
#X obj 247 57 hsl 128 15 0 1 0 0 empty empty empty -2 -8 0 10 -4034
-1 -1 1905 1;
#X obj 388 57 hsl 128 15 0 1 0 0 empty empty empty -2 -8 0 10 -4160
-1 -1 1905 1;
#X obj 47 171 color;
#X obj 225 154 pack f f f;
#X obj 244 106 trigger b f;
#X obj 385 107 trigger b f;
#X obj 47 228 outlet;
#X obj 103 13 inlet;
#X obj 145 30 / 20;
#X obj 243 12 inlet;
#X obj 385 29 / 20;
#X obj 185 11 inlet;
#X obj 219 30 / 20;
#X connect 0 0 5 0;
#X connect 1 0 2 0;
#X connect 1 0 6 0;
#X connect 3 0 7 0;
#X connect 4 0 8 0;
#X connect 5 0 9 0;
#X connect 6 0 5 1;
#X connect 7 0 6 0;
#X connect 7 1 6 1;
#X connect 8 0 6 0;
#X connect 8 1 6 2;
#X connect 10 0 11 0;
#X connect 11 0 1 0;
#X connect 12 0 13 0;
#X connect 13 0 4 0;
#X connect 14 0 15 0;
#X connect 15 0 3 0;
#X restore 507 79 pd colorCh;
#X obj 273 139 gemhead;
#X obj 151 156 part_head 100;
#X obj 298 252 tgl 15 0 empty empty empty 17 7 0 10 -262144 -1 -1 1
1;
#X floatatom 134 382 5 0 1 0 - - -;
#X obj 56 352 hsl 128 15 0 1 0 0 empty empty empty -2 -8 0 10 -262144
-1 -1 7056 1;
#X obj 190 -10 metro 500;
#X obj 443 361 tgl 15 0 empty empty empty 17 7 0 10 -262144 -1 -1 1
1;
#X msg 462 360 1;
#X floatatom 253 -32 5 0 0 0 - - -;
#X floatatom 536 54 5 0 0 0 - - -;
#X obj 254 13 f;
#X obj 283 13 + 1;
#X obj 293 -29 tgl 15 0 empty empty empty 17 7 0 10 -262144 -1 -1 1
1;
#X obj 254 -10 metro 500;
#X floatatom 49 90 5 0 0 0 - - -;
#X floatatom 441 401 5 0 0 0 - - -;
#X obj 406 294 part_size;
#X obj 406 338 part_render;
#X obj 407 317 part_killold 10;
#X obj 378 198 part_source 5 point;
#X obj 360 222 part_velocity;
#X obj 409 424 cube 2;
#X msg 520 204 -0.2 0.3 0.2 0.3;
#X msg 519 245 0.2 0.3 0.2 0.3;
#X msg 46 176 \$1 \$1 1;
#X msg 107 196 \$1 1 1;
#X floatatom 503 26 5 0 0 0 - - -;
#X floatatom 542 27 5 0 0 0 - - -;
#X msg 520 111 0 -3 0 4;
#X msg 520 157 0 -8 -3 0;
#X obj 372 157 part_color;
#X obj 461 103 r lb;
#X msg 372 66 speed \$1;
#X floatatom 479 50 5 0 4 0 - - -;
#X obj 372 95 part_head 200;
#X floatatom 403 34 5 0 0 0 - - -;
#X msg 400 120 \$1 \$1 1;
#X floatatom 350 399 5 0 0 0 - - -;
#X msg 520 132 0 -2 0 0;
#X floatatom 219 379 5 0 0 0 - - -;
#X floatatom 258 367 5 0 0 0 - - -;
#X msg 461 140 \$1 0 1;
#X obj 54 409 ../AudioTests/bpmclk;
#X floatatom 259 468 5 0 0 0 - - -;
#X obj 213 468 / 540;
#X obj 307 470 f;
#X obj 363 470 % 540;
#X obj 426 470 / 540;
#X obj 336 470 + 30;
#X msg 520 224 0 0.2 0 0.6;
#X connect 0 0 1 0;
#X connect 2 0 3 0;
#X connect 3 0 4 0;
#X connect 3 0 1 1;
#X connect 3 0 1 2;
#X connect 4 0 3 1;
#X connect 6 0 71 0;
#X connect 6 0 5 0;
#X connect 6 0 39 0;
#X connect 7 0 71 0;
#X connect 7 0 5 0;
#X connect 7 0 39 0;
#X connect 8 0 9 0;
#X connect 9 0 66 0;
#X connect 10 0 71 0;
#X connect 11 0 21 0;
#X connect 12 0 25 0;
#X connect 13 0 24 0;
#X connect 14 0 19 0;
#X connect 15 0 22 0;
#X connect 16 0 17 0;
#X connect 17 0 16 1;
#X connect 17 0 18 0;
#X connect 18 0 23 0;
#X connect 19 0 15 0;
#X connect 19 0 14 1;
#X connect 20 0 55 0;
#X connect 21 0 11 1;
#X connect 21 0 12 0;
#X connect 23 0 0 1;
#X connect 23 0 0 2;
#X connect 25 0 9 2;
#X connect 25 0 9 1;
#X connect 26 0 84 0;
#X connect 27 0 32 0;
#X connect 28 0 27 0;
#X connect 29 0 28 0;
#X connect 29 0 0 0;
#X connect 30 0 74 0;
#X connect 30 0 75 0;
#X connect 31 0 33 0;
#X connect 32 0 31 0;
#X connect 34 0 38 0;
#X connect 35 0 34 0;
#X connect 36 0 28 3;
#X connect 37 0 28 3;
#X connect 38 0 29 0;
#X connect 40 0 27 2;
#X connect 41 0 27 2;
#X connect 42 0 27 2;
#X connect 43 0 28 3;
#X connect 44 0 45 0;
#X connect 45 0 48 0;
#X connect 46 0 45 1;
#X connect 50 0 51 0;
#X connect 52 0 2 0;
#X connect 53 0 66 1;
#X connect 54 0 53 0;
#X connect 55 0 14 0;
#X connect 55 0 16 0;
#X connect 55 0 11 0;
#X connect 56 0 10 1;
#X connect 57 0 10 1;
#X connect 58 0 55 1;
#X connect 58 0 63 1;
#X connect 59 0 49 3;
#X connect 60 0 61 0;
#X connect 61 0 60 1;
#X connect 61 0 13 0;
#X connect 62 0 63 0;
#X connect 63 0 60 0;
#X connect 64 0 74 0;
#X connect 65 0 71 1;
#X connect 66 0 68 0;
#X connect 67 0 10 0;
#X connect 67 0 5 0;
#X connect 67 0 39 0;
#X connect 68 0 67 0;
#X connect 69 0 70 0;
#X connect 70 0 8 0;
#X connect 72 0 70 2;
#X connect 73 0 70 2;
#X connect 74 0 29 1;
#X connect 75 0 29 2;
#X connect 76 0 49 1;
#X connect 77 0 49 2;
#X connect 78 0 69 3;
#X connect 79 0 69 3;
#X connect 80 0 69 0;
#X connect 81 0 86 0;
#X connect 81 0 91 0;
#X connect 82 0 84 0;
#X connect 83 0 82 0;
#X connect 84 0 80 0;
#X connect 85 0 86 0;
#X connect 86 0 80 1;
#X connect 87 0 5 1;
#X connect 88 0 69 3;
#X connect 89 0 39 1;
#X connect 90 0 39 2;
#X connect 91 0 80 2;
#X connect 92 0 95 0;
#X connect 92 1 94 0;
#X connect 94 0 93 0;
#X connect 95 0 98 0;
#X connect 96 0 97 0;
#X connect 97 0 54 0;
#X connect 98 0 95 1;
#X connect 98 0 96 0;
#X connect 99 0 70 2;
