#N canvas 702 201 293 300 10;
#X obj 65 54 loadbang;
#X obj 65 90 timer;
#X msg 124 55 bang;
#X msg 65 114 seed \$1;
#X msg 126 114 bang;
#X floatatom 65 178 5 0 0 0 - - -;
#X obj 65 150 random 2;
#X connect 0 0 1 0;
#X connect 1 0 3 0;
#X connect 2 0 1 1;
#X connect 3 0 6 0;
#X connect 4 0 6 0;
#X connect 6 0 5 0;
