#N canvas 728 267 360 264 10;
#X obj 92 72 t a b;
#X obj 73 99 until;
#X obj 95 128 f;
#X obj 124 127 + 1;
#X obj 151 178 outlet noStream;
#X msg 147 62 10;
#X obj 140 98 0;
#X msg 92 45 40;
#X obj 95 177 print k;
#X obj 95 153 moses \$1;
#X connect 0 0 1 0;
#X connect 0 1 6 0;
#X connect 0 1 5 0;
#X connect 1 0 2 0;
#X connect 2 0 3 0;
#X connect 2 0 9 0;
#X connect 3 0 2 1;
#X connect 5 0 6 1;
#X connect 5 0 2 1;
#X connect 6 0 2 1;
#X connect 7 0 0 0;
#X connect 7 0 9 1;
#X connect 9 0 8 0;
