#N canvas 340 321 343 228 10;
#X obj 16 31 bng 15 250 50 0 empty empty empty 17 7 0 10 -262144 -1
-1;
#X obj 218 74 t a b;
#X obj 199 101 until;
#X obj 221 130 f;
#X obj 250 129 + 1;
#X obj 219 46 \$2;
#X obj 221 154 moses \$2;
#X obj 266 100 \$1;
#X obj 219 187 outlet noStream;
#X floatatom 153 171 5 0 0 0 - - -;
#X obj 56 14 inlet;
#X connect 0 0 5 0;
#X connect 1 0 2 0;
#X connect 1 1 7 0;
#X connect 2 0 3 0;
#X connect 3 0 4 0;
#X connect 3 0 6 0;
#X connect 4 0 3 1;
#X connect 5 0 1 0;
#X connect 6 0 9 0;
#X connect 7 0 3 1;
#X connect 9 0 8 0;
#X connect 10 0 0 0;
#X coords 0 -1 1 1 40 40 1 10 10;
