#N canvas 802 2 537 318 10;
#X obj 173 79 ca-cell-wrapper;
#X obj 13 93 tgl 15 0 empty empty empty 17 7 0 10 -262144 -1 -1 1 1
;
#X obj 13 150 vid-feed-geo-test01b;
#X obj 13 9 bpmclkmodB;
#X text 184 7 Algorithmic Video Image + Tracking Transformations;
#X msg 383 82 0;
#X obj 307 41 loop-range 10 40;
#X obj 413 42 loop-range 50 110;
#X connect 0 1 2 0;
#X connect 0 2 2 1;
#X connect 0 3 2 2;
#X connect 0 4 2 1;
#X connect 0 5 2 2;
#X connect 0 6 2 6;
#X connect 0 7 2 6;
#X connect 0 8 2 7;
#X connect 0 9 2 8;
#X connect 1 0 0 0;
#X connect 3 0 1 0;
#X connect 3 1 0 1;
#X connect 5 0 2 9;
#X connect 5 0 2 10;
#X connect 6 0 2 9;
#X connect 7 0 2 10;
