#N canvas 800 1 532 272 10;
#X obj 21 22 vid-feed-geo-test01;
#X text 23 134 TODO: OSC + net connect (audio OSC / NET signal -> OSC
/ NET visual receiver). Idea is to spread memory load preventing severe
drag/delays.;
#X obj 21 -13 tgl 15 0 empty empty empty 17 7 0 10 -262144 -1 -1 1
1;
#X floatatom 38 -13 5 0 0 0 - - -;
#X obj 21 4 metro 160;
#X connect 2 0 4 0;
#X connect 3 0 4 1;
#X connect 4 0 0 0;
