#N canvas 804 3 532 272 10;
#X text 24 190 TODO: OSC + net connect (audio OSC / NET signal -> OSC
/ NET visual receiver). Idea is to spread memory load preventing severe
drag/delays.;
#X obj 22 43 tgl 15 0 empty empty empty 17 7 0 10 -262144 -1 -1 1 1
;
#X floatatom 39 43 5 0 0 0 - - -;
#X obj 22 60 metro 160;
#X obj 22 78 vid-feed-geo-test01a;
#X text 21 11 Lighting Tansparency;
#X text 20 22 ON / OFF Trigger;
#X obj 322 50 f;
#X obj 348 50 + 1;
#X obj 376 50 % 20;
#X connect 1 0 3 0;
#X connect 2 0 3 1;
#X connect 3 0 4 0;
#X connect 7 0 8 0;
#X connect 8 0 7 1;
#X connect 8 0 9 0;
