#N canvas 802 2 537 452 10;
#X obj 206 22 ca-cell-wrapper;
#X obj 13 100 tgl 15 0 empty empty empty 17 7 0 10 -262144 -1 -1 0
1;
#X obj 10 122 vid-feed-geo-test01b;
#X obj 13 22 bpmclkmodB;
#X text 11 -2 Algorithmic Video Image + Tracking Transformations;
#X obj 74 228 wvshpr_cbyv-loop-range;
#X msg 12 229 \; pd dsp 1;
#X msg 12 265 \; pd dsp 0;
#X obj 361 228 rand-seqr-range 20 120;
#X connect 0 1 2 0;
#X connect 0 2 2 1;
#X connect 0 3 2 2;
#X connect 0 4 2 1;
#X connect 0 5 2 2;
#X connect 0 6 2 6;
#X connect 0 7 2 6;
#X connect 0 8 2 7;
#X connect 0 9 2 8;
#X connect 1 0 0 0;
#X connect 3 0 1 0;
#X connect 3 1 0 1;
#X connect 5 0 2 9;
#X connect 8 0 2 11;
#X connect 8 1 2 10;
