#N canvas 97 144 634 481 10;
#X declare -lib mrpeach;
#X obj 40 182 tgl 10 0 empty g1 empty 17 7 0 10 -262144 -1 -1 0 1;
#X obj 50 182 tgl 10 0 empty g2 empty 17 7 0 10 -262144 -1 -1 1 1;
#X obj 70 182 tgl 10 0 empty g4 empty 17 7 0 10 -262144 -1 -1 0 1;
#X obj 80 182 tgl 10 0 empty g5 empty 17 7 0 10 -262144 -1 -1 1 1;
#X obj 90 182 tgl 10 0 empty g6 empty 17 7 0 10 -262144 -1 -1 1 1;
#X obj 60 182 tgl 10 0 empty g3 empty 17 7 0 10 -262144 -1 -1 0 1;
#X obj 100 182 tgl 10 0 empty g7 empty 17 7 0 10 -262144 -1 -1 0 1
;
#X obj 110 182 tgl 10 0 empty g8 empty 17 7 0 10 -262144 -1 -1 1 1
;
#X obj 130 182 tgl 10 0 empty g10 empty 17 7 0 10 -262144 -1 -1 0 1
;
#X obj 120 182 tgl 10 0 empty g9 empty 17 7 0 10 -262144 -1 -1 0 1
;
#X obj 21 262 spigot;
#X obj 40 296 spigot;
#X obj 9 227 spigot;
#X obj 90 227 spigot;
#X obj 110 262 spigot;
#X obj 73 365 spigot;
#X obj 144 328 spigot;
#X obj 168 364 spigot;
#X obj 126 295 spigot;
#X obj 56 329 spigot;
#X obj 153 10 ../ca-cell-set-front;
#X msg 328 359 disconnect;
#X obj 22 183 tgl 15 0 empty empty empty 17 7 0 10 -262144 -1 -1 0
1;
#X msg 295 129 timetagoffset -1;
#X msg 318 151 bufsize 100;
#X obj 283 10 import mrpeach;
#X floatatom 321 284 5 0 0 0 - - -;
#X msg 198 286 3333;
#X msg 235 287 8081;
#X msg 263 336 connect 127.0.0.1 \$1;
#X msg 272 312 connect 0.0.0.0 \$1;
#X text 277 88 Need to see this with list append CA option data;
#X obj 77 132 bng 15 250 50 0 empty empty empty 17 7 0 10 -4034 -1
-1;
#X obj 77 113 bng 15 250 50 0 empty empty empty 17 7 0 10 -262144 -1
-1;
#X obj 100 113 bng 15 250 50 0 empty empty empty 17 7 0 10 -262144
-1 -1;
#X obj 121 132 bng 15 250 50 0 empty empty empty 17 7 0 10 -258113
-1 -1;
#X text 60 134 CN;
#X text 97 134 DCN;
#X obj 77 162 bng 15 250 50 0 empty empty empty 17 7 0 10 -4034 -1
-1;
#X obj 102 162 bng 15 250 50 0 empty empty empty 17 7 0 10 -4034 -1
-1;
#X text 66 146 3333;
#X text 94 146 8081;
#X obj 120 162 bng 15 250 50 0 empty empty empty 17 7 0 10 -99865 -1
-1;
#X obj 46 45 knob 32 32 50 500 0 0 empty empty empty 0 -8 0 8 -262144
-1 -1 0 1;
#X obj 21 45 tgl 15 0 empty empty empty 17 7 0 10 -262144 -1 -1 0 1
;
#X obj 21 63 bng 15 250 50 0 empty empty empty 17 7 0 10 -262144 -1
-1;
#X obj 122 113 tgl 15 0 empty empty empty 17 7 0 10 -262144 -1 -1 0
1;
#X text 66 96 toff;
#X text 93 96 bfsz;
#X text 120 96 ttg;
#X text 18 27 Set Counter (BPM);
#X text 6 209 g1;
#X text 13 241 g2;
#X text 29 276 g3;
#X text 45 310 g4;
#X text 61 343 g5;
#X text 92 209 g6;
#X text 97 241 g7;
#X text 116 275 g8;
#X text 134 309 g9;
#X text 150 343 g10;
#X text 20 167 SIG;
#X obj 149 59 metro;
#X obj 149 144 moses 160;
#X obj 149 105 counter 50 500;
#X obj 149 169 t f b;
#X obj 21 150 bng 15 250 50 0 empty empty empty 17 7 0 10 -262144 -1
-1;
#X obj 149 192 moses 1;
#X floatatom 21 131 5 0 0 0 - - -;
#X text 82 38 50-500;
#X text 18 116 COUNT;
#X floatatom 21 102 5 0 0 0 - - -;
#X text 18 87 CTIME;
#X obj 159 80 expr 60000 / $f1;
#X text 264 30 *** There are a few points of redundancy within the
code as I require it for debugging purposes. These will go when debugging
is done - I may even bundle it in as a Debug Template. ***;
#X obj 150 386 bng 15 250 50 0 empty empty empty 17 7 0 10 -262144
-1 -1;
#X msg 336 173 typetags \$1;
#X obj 198 443 zl;
#X msg 90 405 mode join;
#X obj 198 401 t b b;
#X obj 5 445 pack f f f f f f f f f f;
#X obj 283 426 print zl;
#X msg 198 425 send /Start;
#X obj 283 388 udpsend;
#X obj 282 262 packOSC;
#X text 73 85 UDPosc Conn;
#X obj 154 29 loadbang;
#X connect 0 0 12 0;
#X connect 0 0 12 1;
#X connect 1 0 10 1;
#X connect 1 0 10 0;
#X connect 2 0 15 0;
#X connect 2 0 15 1;
#X connect 3 0 19 0;
#X connect 3 0 19 1;
#X connect 4 0 13 0;
#X connect 4 0 13 1;
#X connect 5 0 11 1;
#X connect 5 0 11 0;
#X connect 6 0 14 0;
#X connect 6 0 14 1;
#X connect 7 0 18 0;
#X connect 7 0 18 1;
#X connect 8 0 17 0;
#X connect 8 0 17 1;
#X connect 9 0 16 0;
#X connect 9 0 16 1;
#X connect 10 0 80 1;
#X connect 11 0 80 2;
#X connect 12 0 80 0;
#X connect 13 0 75 0;
#X connect 13 0 80 5;
#X connect 14 0 80 6;
#X connect 15 0 80 4;
#X connect 16 0 80 8;
#X connect 17 0 80 9;
#X connect 18 0 80 7;
#X connect 19 0 80 3;
#X connect 21 0 83 0;
#X connect 23 0 84 0;
#X connect 24 0 84 0;
#X connect 27 0 29 0;
#X connect 28 0 29 0;
#X connect 29 0 83 0;
#X connect 30 0 83 0;
#X connect 32 0 29 0;
#X connect 33 0 23 0;
#X connect 34 0 24 0;
#X connect 35 0 21 0;
#X connect 38 0 27 0;
#X connect 39 0 28 0;
#X connect 42 0 30 0;
#X connect 43 0 73 0;
#X connect 43 0 20 0;
#X connect 44 0 62 0;
#X connect 45 0 64 1;
#X connect 46 0 76 0;
#X connect 62 0 64 0;
#X connect 63 0 65 0;
#X connect 63 0 68 0;
#X connect 63 1 45 0;
#X connect 64 0 63 0;
#X connect 65 0 67 0;
#X connect 65 1 66 0;
#X connect 73 0 62 1;
#X connect 73 0 20 1;
#X connect 73 0 71 0;
#X connect 75 0 79 0;
#X connect 75 0 78 0;
#X connect 76 0 84 0;
#X connect 77 0 84 0;
#X connect 78 0 77 0;
#X connect 79 0 82 0;
#X connect 79 1 80 0;
#X connect 80 0 77 1;
#X connect 82 0 77 0;
#X connect 83 0 22 0;
#X connect 84 0 83 0;
#X connect 84 1 26 0;
#X connect 86 0 43 0;
#X coords 0 -1 1 1 130 200 1 15 5;
