#N canvas 618 26 710 572 10;
#X declare -lib mrpeach;
#X obj 549 286 unpack 0 0 0 0 0;
#X floatatom 529 242 5 0 0 0 - - -;
#X floatatom 549 317 5 0 0 0 - - -;
#X floatatom 572 341 5 0 0 0 - - -;
#X floatatom 595 317 5 0 0 0 - - -;
#X floatatom 618 341 5 0 0 0 - - -;
#X floatatom 642 316 5 0 0 0 - - -;
#X obj 519 263 print unpacked;
#X msg 480 379 verbosity \$1;
#X floatatom 409 514 5 0 0 0 - - -;
#X floatatom 494 469 5 0 0 0 - - -;
#X floatatom 426 491 5 0 0 0 - - -;
#X floatatom 444 469 5 0 0 0 - - -;
#X floatatom 460 450 5 0 0 0 - - -;
#X floatatom 478 488 5 0 0 0 - - -;
#X obj 465 164 import mrpeach;
#X obj 465 263 pipelist;
#X floatatom 501 449 5 0 0 0 - - -;
#X obj 409 423 unpack f f f f f f f f f f;
#X obj 465 406 routeOSC /Start;
#X floatatom 531 470 5 0 0 0 - - -;
#X floatatom 540 450 5 0 0 0 - - -;
#X floatatom 578 440 5 0 0 0 - - -;
#X obj 477 9 tgl 15 0 empty empty empty 17 7 0 10 -4034 -1 -1 0 1;
#X obj 14 225 pix_video;
#X obj 14 255 pix_blob 4;
#X obj 14 282 pix_film;
#X obj 79 283 f;
#X obj 14 309 pix_contrast;
#X obj 220 78 vsl 15 40 0 10 0 0 empty empty empty 0 -9 0 10 -262144
-1 -1 900 1;
#X obj 241 78 vsl 15 40 0 10 0 0 empty empty empty 0 -9 0 10 -262144
-1 -1 3500 1;
#X obj 276 238 render_trigger;
#X msg 386 272 snap;
#X obj 14 414 translateXYZ;
#X obj 14 494 rotateXYZ;
#X obj 272 105 hsl 40 15 0 2 0 0 empty empty empty -2 -8 0 10 -262144
-1 -1 2700 1;
#X obj 301 306 pix_snap 0 0 512 512;
#X obj 301 346 pix_texture;
#X obj 301 401 translateXYZ;
#X obj 288 456 rotateXYZ;
#X obj 331 79 hsl 40 15 0 360 0 0 empty empty empty -2 -8 0 10 -262144
-1 -1 0 1;
#X obj 414 80 hsl 40 15 0 360 0 0 empty empty empty -2 -8 0 10 -262144
-1 -1 700 1;
#X obj 311 483 spigot;
#X obj 387 112 tgl 15 0 empty empty empty 17 7 0 10 -262144 -1 -1 1
1;
#X obj 268 87 tgl 15 0 empty empty empty 17 7 0 10 -262144 -1 -1 1
1;
#X obj 28 438 metro 10;
#X obj 31 461 f;
#X obj 60 461 + 1;
#X obj 154 239 metro;
#X floatatom 349 111 5 0 0 0 - - -;
#X obj 330 112 tgl 15 0 empty empty empty 17 7 0 10 -262144 -1 -1 1
1;
#X obj 156 261 f;
#X obj 184 281 % 360;
#N canvas 648 390 549 300 colorCh 0;
#X obj 45 11 inlet;
#X obj 109 58 hsl 128 15 0 1 0 0 empty empty empty -2 -8 0 10 -258113
-1 -1 12700 1;
#X floatatom 106 110 5 0 0 0 - - -;
#X obj 247 57 hsl 128 15 0 1 0 0 empty empty empty -2 -8 0 10 -4034
-1 -1 11723 1;
#X obj 388 57 hsl 128 15 0 1 0 0 empty empty empty -2 -8 0 10 -4160
-1 -1 12700 1;
#X obj 47 171 color;
#X obj 225 154 pack f f f;
#X obj 244 106 trigger b f;
#X obj 385 107 trigger b f;
#X obj 47 228 outlet;
#X obj 103 13 inlet;
#X obj 145 30 / 20;
#X obj 243 12 inlet;
#X obj 385 29 / 20;
#X obj 185 11 inlet;
#X obj 219 30 / 20;
#X connect 0 0 5 0;
#X connect 1 0 2 0;
#X connect 1 0 6 0;
#X connect 3 0 7 0;
#X connect 4 0 8 0;
#X connect 5 0 9 0;
#X connect 6 0 5 1;
#X connect 7 0 6 0;
#X connect 7 1 6 1;
#X connect 8 0 6 0;
#X connect 8 1 6 2;
#X connect 10 0 11 0;
#X connect 11 0 1 0;
#X connect 12 0 13 0;
#X connect 13 0 4 0;
#X connect 14 0 15 0;
#X connect 15 0 3 0;
#X restore 14 356 pd colorCh;
#X obj 251 281 % 20;
#X obj 13 385 pix_texture;
#X obj 117 528 cube 0.34;
#X msg 218 434 draw line;
#X msg 220 457 draw fill;
#X obj 328 48 hsl 128 15 0 50 0 0 empty empty empty -2 -8 0 10 -262144
-1 -1 2400 1;
#X msg 397 238 set \$1;
#X obj 333 271 gemhead;
#X obj 14 153 gemhead 5;
#X obj 311 524 cube 5;
#X floatatom 460 48 5 0 0 0 - - -;
#X floatatom 459 78 5 0 0 0 - - -;
#X floatatom 377 78 5 0 0 0 - - -;
#X obj 15 175 repeat 20;
#X obj 15 201 t a b;
#X obj 53 201 f;
#X obj 80 200 + 1;
#X obj 107 201 % 20;
#X obj 99 86 knob 20 20 0 20 0 0 empty empty empty 0 -8 0 8 -262144
-1 -1 1800 1;
#X obj 141 86 knob 20 20 0 20 0 0 empty empty empty 0 -8 0 8 -262144
-1 -1 1500 1;
#X obj 165 86 knob 20 20 0 20 0 0 empty empty empty 0 -8 0 8 -262144
-1 -1 1000 1;
#X obj 189 86 knob 20 20 0 20 0 0 empty empty empty 0 -8 0 8 -262144
-1 -1 500 1;
#X obj 18 95 hradio 15 1 0 2 empty empty empty 0 -8 0 10 -262144 -1
-1 0;
#N canvas 192 291 450 300 setGEM 0;
#X obj 116 30 inlet load;
#X obj 194 94 gemwin;
#X obj 28 30 inlet set/del;
#X obj 194 129 outlet;
#X obj 194 31 r lb;
#X obj 196 155 loadbang;
#X obj 196 180 s lb;
#X obj 28 60 sel 0 1;
#X msg 67 84 create;
#X msg 65 109 destroy;
#X msg 194 55 dimen 680 600;
#X connect 0 0 1 0;
#X connect 1 0 3 0;
#X connect 2 0 7 0;
#X connect 4 0 10 0;
#X connect 5 0 6 0;
#X connect 7 0 9 0;
#X connect 7 1 8 0;
#X connect 8 0 1 0;
#X connect 9 0 1 0;
#X connect 10 0 1 0;
#X restore 18 111 pd setGEM;
#X obj 61 95 tgl 15 0 empty empty empty 17 7 0 10 -262144 -1 -1 0 1
;
#X text 16 79 GEM SET;
#X obj 77 95 tgl 15 0 empty empty empty 17 7 0 10 -262144 -1 -1 0 1
;
#X msg 77 111 lighting \$1;
#X floatatom 107 219 5 0 0 0 - - -;
#X obj 407 112 hsl 50 15 0 25 0 0 empty empty empty -2 -8 0 10 -262144
-1 -1 500 1;
#X text 96 69 Rpt;
#X text 96 45 Video;
#X text 142 55 Translate;
#X text 138 68 X;
#X text 160 68 Y;
#X text 185 68 Z;
#X text 213 117 Contrast;
#X text 283 84 (R);
#X text 326 96 XYZ rotn spd;
#X text 432 96 Cube2 Size;
#X text 405 96 View;
#X text 263 117 Cube1 Size;
#X text 319 63 Cube2 R Z-axis;
#X text 408 63 Cube2 R X-axis;
#X text 312 31 Set Cube2 GEM rendering (trig);
#X obj 268 36 hsl 40 15 0 20 0 0 empty empty empty -2 -8 0 10 -262144
-1 -1 3900 1;
#X text 210 50 Cube1 Set B (RGB);
#X obj 76 511 alpha;
#X obj 79 54 tgl 15 0 empty empty empty 17 7 0 10 -262144 -1 -1 0 1
;
#X obj 78 76 tgl 15 0 empty empty empty 17 7 0 10 -262144 -1 -1 0 1
;
#X msg 116 435 auto \$1;
#X text 40 35 Lighting;
#X floatatom 462 112 5 0 0 0 - - -;
#X obj 212 36 hsl 40 15 0 20 0 0 empty empty empty -2 -8 0 10 -262144
-1 -1 3600 1;
#X obj 157 36 hsl 40 15 0 20 0 0 empty empty empty -2 -8 0 10 -262144
-1 -1 3900 1;
#X text 143 32 R;
#X text 200 31 G;
#X text 256 32 B;
#X obj 184 261 + 1;
#X obj 118 70 tgl 15 0 empty empty empty 17 7 0 10 -262144 -1 -1 0
1;
#X obj 221 240 metro;
#X obj 223 262 f;
#X obj 251 262 + 1;
#X text 107 55 Auto;
#X obj 125 156 bng 15 250 50 0 empty empty empty 17 7 0 10 -262144
-1 -1;
#X text 42 55 Alpha;
#X obj 464 189 udpreceive 3333;
#X obj 529 216 route received from;
#X obj 465 216 unpackOSC;
#X text 429 11 UDP chk;
#X obj 164 114 bng 15 250 50 0 empty empty empty 17 7 0 10 -262144
-1 -1;
#X obj 195 114 bng 15 250 50 0 empty empty empty 17 7 0 10 -262144
-1 -1;
#X text 179 111 df;
#X text 150 111 dl;
#X obj 305 209 gemhead 25;
#X connect 0 0 2 0;
#X connect 0 1 3 0;
#X connect 0 2 4 0;
#X connect 0 3 5 0;
#X connect 0 4 6 0;
#X connect 8 0 19 0;
#X connect 10 0 113 0;
#X connect 13 0 118 0;
#X connect 14 0 103 0;
#X connect 16 0 19 0;
#X connect 17 0 44 0;
#X connect 18 0 9 0;
#X connect 18 1 11 0;
#X connect 18 2 12 0;
#X connect 18 3 13 0;
#X connect 18 4 14 0;
#X connect 18 5 10 0;
#X connect 18 6 17 0;
#X connect 18 7 20 0;
#X connect 18 8 21 0;
#X connect 18 9 22 0;
#X connect 19 0 18 0;
#X connect 20 0 50 0;
#X connect 21 0 43 0;
#X connect 23 0 8 0;
#X connect 24 0 25 0;
#X connect 25 0 26 0;
#X connect 26 0 28 0;
#X connect 26 2 27 0;
#X connect 27 0 26 1;
#X connect 28 0 53 0;
#X connect 29 0 28 1;
#X connect 30 0 28 2;
#X connect 31 0 36 0;
#X connect 31 2 32 0;
#X connect 32 0 36 0;
#X connect 33 0 34 0;
#X connect 34 0 101 0;
#X connect 35 0 56 1;
#X connect 36 0 37 0;
#X connect 37 0 38 0;
#X connect 38 0 39 0;
#X connect 39 0 42 0;
#X connect 40 0 39 3;
#X connect 40 0 66 0;
#X connect 41 0 65 0;
#X connect 41 0 39 1;
#X connect 42 0 63 0;
#X connect 43 0 42 1;
#X connect 44 0 45 0;
#X connect 45 0 46 0;
#X connect 46 0 47 0;
#X connect 46 0 34 1;
#X connect 46 0 34 2;
#X connect 47 0 46 1;
#X connect 48 0 51 0;
#X connect 49 0 48 1;
#X connect 49 0 114 1;
#X connect 50 0 48 0;
#X connect 51 0 112 0;
#X connect 52 0 34 3;
#X connect 53 0 55 0;
#X connect 54 0 72 0;
#X connect 55 0 33 0;
#X connect 57 0 56 0;
#X connect 57 0 63 0;
#X connect 58 0 56 0;
#X connect 58 0 63 0;
#X connect 59 0 60 0;
#X connect 59 0 64 0;
#X connect 60 0 61 0;
#X connect 61 0 36 0;
#X connect 62 0 67 0;
#X connect 67 0 68 0;
#X connect 68 0 24 0;
#X connect 68 1 69 0;
#X connect 69 0 70 0;
#X connect 70 0 69 1;
#X connect 70 0 71 0;
#X connect 71 0 82 0;
#X connect 72 0 67 1;
#X connect 72 0 71 1;
#X connect 76 0 77 0;
#X connect 78 0 77 1;
#X connect 80 0 81 0;
#X connect 81 0 77 1;
#X connect 83 0 106 0;
#X connect 99 0 53 3;
#X connect 101 0 56 0;
#X connect 102 0 104 0;
#X connect 103 0 101 1;
#X connect 104 0 101 0;
#X connect 106 0 63 1;
#X connect 107 0 53 2;
#X connect 108 0 53 1;
#X connect 112 0 51 1;
#X connect 112 0 52 0;
#X connect 113 0 114 0;
#X connect 114 0 115 0;
#X connect 115 0 116 0;
#X connect 116 0 115 1;
#X connect 116 0 54 0;
#X connect 118 0 80 0;
#X connect 120 0 122 0;
#X connect 120 1 121 0;
#X connect 121 0 1 0;
#X connect 121 1 0 0;
#X connect 122 0 16 0;
#X connect 122 0 7 0;
#X connect 122 1 16 1;
#X connect 124 0 57 0;
#X connect 125 0 58 0;
#X connect 128 0 31 0;
#X coords 0 -1 1 1 490 135 1 10 2;
