#N canvas 493 36 750 608 10;
#X declare -lib mrpeach;
#X msg 567 431 connect localhost 1000;
#X msg 586 453 disconnect;
#X obj 567 493 netsend;
#X obj 572 540 netreceive 1000;
#X obj 572 571 print;
#X msg 659 453 send hello;
#X text 565 407 NET;
#X text 559 23 OSC;
#X msg 593 70 disconnect;
#X obj 564 123 sendOSC;
#X msg 603 92 send hello there;
#X obj 565 191 print;
#X floatatom 620 140 5 0 0 0 - - -;
#X floatatom 532 140 5 0 0 0 - - -;
#X msg 564 46 connect localhost 10001;
#X obj 565 166 dumpOSC 10001;
#X obj 617 22 import mrpeach;
#X text 611 3 Required for UDP;
#X msg 576 247 disconnect;
#X obj 565 301 sendOSC;
#X floatatom 621 318 5 0 0 0 - - -;
#X floatatom 533 318 5 0 0 0 - - -;
#X msg 565 224 connect localhost 10002;
#X msg 612 284 send /test/freq;
#X floatatom 657 251 5 0 0 0 - - -;
#X obj 699 267 ftom;
#X obj 568 373 print;
#X obj 568 348 dumpOSC 10002;
#X text 203 -4 OSC REF: http://write.flossmanuals.net/pure-data/osc/
;
#X obj 612 374 routeOSC;
#X obj 692 306 packOSC;
#X obj 41 25 knob 32 32 50 500 0 0 empty empty empty 0 -8 0 8 -262144
-1 -1 0 1;
#X obj 15 24 tgl 15 0 empty empty empty 17 7 0 10 -262144 -1 -1 0 1
;
#X obj 299 40 metro;
#X obj 15 45 bng 15 250 50 0 empty empty empty 17 7 0 10 -262144 -1
-1;
#N canvas 0 0 450 300 (subpatch) 0;
#X array Cbyv-tab 100 float 1;
#A 0 0.685704 0.671418 0.671418 0.657133 0.657133 0.028571 0 0 0 0
0.114284 0.242853 0.528563 0.799988 0.799988 0.785702 0.771417 0.742846
0.72856 0 0 0 0 -0.714275 -0.714275 -0.72856 -0.72856 -0.72856 -0.742846
-0.742846 -0.742846 -0.742846 0.414279 -0.57142 -0.657133 -0.728561
-0.742846 -0.742846 -0.749989 -0.757132 -0.771417 -0.771417 -0.771417
0.28571 0.299995 0.314281 0.328566 -0.685704 -0.714275 -0.742846 -0.757132
-0.771417 -0.771417 -0.771417 -0.771417 -0.657133 -0.371423 0.15714
0.628562 0.642847 0.657133 0.660704 -0.514278 -0.542849 -0.578563 -0.614277
-0.628562 -0.671419 -0.69999 0.528563 0.671418 0.671418 0.676775 -0.771417
-0.799988 -0.814274 -0.814274 -0.814274 -0.814274 0.614276 0.642847
0.657133 0.661895 0.666656 0.685704 0.695227 0.704751 0.714275 -0.242853
-0.271425 -0.299996 -0.299996 -0.314281 0.628562 0.628562 -0.185712
-0.185712 -0.185712 -0.185712 -0.0285711;
#X coords 0 1 99 -1 200 140 1;
#X restore 84 37 graph;
#X obj 299 98 moses 160;
#X floatatom 15 93 5 0 0 0 - - -;
#X obj 17 127 knob 24 24 80 128 0 0 empty empty empty 0 -8 0 8 -262144
-1 -1 0 1;
#X obj 46 125 knob 30 30 120 180 0 0 empty empty empty 0 -8 0 8 -262144
-1 -1 0 1;
#X text 39 60 25-500;
#X text 12 9 Set Counter;
#X floatatom 15 164 5 0 0 0 - - -;
#X floatatom 47 164 5 0 0 0 - - -;
#X text 13 79 Counter Out;
#X text 203 9 Draw Waveform;
#X text 14 112 *;
#X text 44 109 +;
#X obj 299 67 counter 50 250;
#X obj 22 237 osc~ 220;
#X obj 21 345 *~;
#X obj 52 286 / 100;
#X obj 52 307 pack 0 50;
#X obj 52 329 line~;
#X obj 21 369 *~ 128;
#X obj 20 393 +~ 140;
#X obj 20 416 tabread~ Cbyv-tab;
#X obj 19 442 hip~ 25;
#X obj 19 465 env~;
#X obj 321 261 packOSC;
#X msg 322 305 connect 127.0.0.1 9998;
#X msg 346 323 disconnect;
#X obj 346 360 udpsend;
#X floatatom 359 284 5 0 0 0 - - -;
#X msg 297 182 send /220/100/50/128/140/25;
#X obj 346 392 tgl 15 0 empty empty empty 17 7 0 10 -262144 -1 -1 0
1;
#X text 367 387 On(1) = connected;
#X obj 488 190 tgl 15 0 empty empty empty 17 7 0 10 -262144 -1 -1 0
1;
#X msg 379 205 \; typetags \$1 \; timetagoffset -1 \; bufsize 100 \;
;
#X obj 239 415 udpreceive 9997;
#X obj 326 461 route received from;
#X obj 381 485 unpack 0 0 0 0 0;
#X floatatom 326 488 5 0 0 0 - - -;
#X floatatom 381 508 5 0 0 0 - - -;
#X floatatom 404 528 5 0 0 0 - - -;
#X floatatom 427 549 5 0 0 0 - - -;
#X floatatom 450 571 5 0 0 0 - - -;
#X floatatom 474 527 5 0 0 0 - - -;
#X obj 239 441 unpackOSC;
#X obj 239 469 pipelist;
#X floatatom 458 458 5 0 0 0 - - -;
#X text 416 439 delay (msec);
#X obj 145 443 print unpacked;
#X obj 263 493 tgl 15 0 empty empty empty 17 7 0 10 -262144 -1 -1 0
1;
#X msg 263 518 verbosity \$1;
#X obj 263 547 routeOSC /f /f /f /f /f /f;
#X obj 228 580 print match_1;
#X text 43 517 Maybe use unpack after pipelist ?;
#X connect 0 0 2 0;
#X connect 1 0 2 0;
#X connect 3 0 4 0;
#X connect 5 0 2 0;
#X connect 8 0 9 0;
#X connect 9 0 13 0;
#X connect 9 1 12 0;
#X connect 10 0 9 0;
#X connect 14 0 9 0;
#X connect 15 0 11 0;
#X connect 18 0 19 0;
#X connect 19 0 21 0;
#X connect 19 1 20 0;
#X connect 22 0 19 0;
#X connect 23 0 19 0;
#X connect 24 0 25 0;
#X connect 25 0 23 0;
#X connect 27 0 26 0;
#X connect 31 0 33 1;
#X connect 32 0 33 0;
#X connect 33 0 48 0;
#X connect 34 0 48 1;
#X connect 36 0 37 0;
#X connect 36 1 34 0;
#X connect 38 0 42 0;
#X connect 39 0 43 0;
#X connect 48 0 36 0;
#X connect 49 0 50 0;
#X connect 50 0 54 0;
#X connect 51 0 52 0;
#X connect 52 0 53 0;
#X connect 53 0 50 1;
#X connect 54 0 55 0;
#X connect 55 0 56 0;
#X connect 56 0 57 0;
#X connect 57 0 58 0;
#X connect 59 0 62 0;
#X connect 59 1 63 0;
#X connect 60 0 62 0;
#X connect 61 0 62 0;
#X connect 62 0 65 0;
#X connect 64 0 59 0;
#X connect 67 0 68 0;
#X connect 68 0 59 0;
#X connect 69 0 78 0;
#X connect 69 0 82 0;
#X connect 69 1 70 0;
#X connect 70 0 72 0;
#X connect 70 1 71 0;
#X connect 71 0 73 0;
#X connect 71 1 74 0;
#X connect 71 2 75 0;
#X connect 71 3 76 0;
#X connect 71 4 77 0;
#X connect 78 0 79 0;
#X connect 78 1 80 0;
#X connect 78 1 79 1;
#X connect 79 0 85 0;
#X connect 83 0 84 0;
#X connect 84 0 85 0;
#X connect 85 0 86 0;
