#N canvas 712 293 485 329 10;
#X declare -lib mrpeach;
#X obj 13 9 import mrpeach;
#X obj 176 128 unpack 0 0 0 0 0;
#X floatatom 256 46 5 0 0 0 - - -;
#X floatatom 176 159 5 0 0 0 - - -;
#X floatatom 199 183 5 0 0 0 - - -;
#X floatatom 222 159 5 0 0 0 - - -;
#X floatatom 245 183 5 0 0 0 - - -;
#X floatatom 269 158 5 0 0 0 - - -;
#X msg 155 208 verbosity \$1;
#X obj 54 245 print delayed;
#X obj 110 105 pipelist;
#X obj 110 58 unpackOSCstream;
#X obj 155 186 tgl 15 0 empty empty empty 17 7 0 10 -262144 -1 -1 1
1;
#X obj 140 281 print i;
#X obj 140 245 routeOSC;
#X obj 110 29 tcpreceive 3334;
#X obj 188 105 print mesg;
#X connect 1 0 3 0;
#X connect 1 1 4 0;
#X connect 1 2 5 0;
#X connect 1 3 6 0;
#X connect 1 4 7 0;
#X connect 8 0 14 0;
#X connect 10 0 9 0;
#X connect 10 0 14 0;
#X connect 11 0 10 0;
#X connect 11 1 10 1;
#X connect 12 0 8 0;
#X connect 14 0 13 0;
#X connect 15 0 11 0;
#X connect 15 0 16 0;
#X connect 15 1 1 0;
#X connect 15 2 2 0;
