#N canvas 784 171 485 329 10;
#X declare -lib mrpeach;
#X obj 13 9 import mrpeach;
#X msg 155 208 verbosity \$1;
#X obj 54 245 print delayed;
#X obj 110 105 pipelist;
#X obj 155 186 tgl 15 0 empty empty empty 17 7 0 10 -262144 -1 -1 1
1;
#X obj 140 281 print i;
#X obj 140 245 routeOSC;
#X obj 188 105 print mesg;
#X obj 110 29 udpreceive 3334;
#X obj 110 58 unpackOSC;
#X obj 298 292 route received from;
#X obj 353 316 unpack 0 0 0 0 0;
#X floatatom 298 319 5 0 0 0 - - -;
#X floatatom 353 337 5 0 0 0 - - -;
#X floatatom 376 356 5 0 0 0 - - -;
#X floatatom 399 337 5 0 0 0 - - -;
#X floatatom 422 356 5 0 0 0 - - -;
#X floatatom 446 336 5 0 0 0 - - -;
#X connect 1 0 6 0;
#X connect 3 0 2 0;
#X connect 3 0 6 0;
#X connect 4 0 1 0;
#X connect 6 0 5 0;
#X connect 8 0 7 0;
#X connect 8 0 9 0;
#X connect 8 1 10 0;
#X connect 9 0 3 0;
#X connect 9 1 3 1;
#X connect 10 0 12 0;
#X connect 10 1 11 0;
#X connect 11 0 13 0;
#X connect 11 1 14 0;
#X connect 11 2 15 0;
#X connect 11 3 16 0;
#X connect 11 4 17 0;
