#N canvas 464 224 600 359 10;
#X obj 440 -144 vsl 15 128 0 0.5 0 0 empty empty empty 0 -9 0 10 -262144
-1 -1 0 1;
#X obj 332 -72 phasor~;
#X obj 395 -72 osc~;
#X floatatom 332 -103 5 0 0 0 - - -;
#X floatatom 395 -102 5 0 0 0 - - -;
#X obj 376 -13 *~;
#X obj 377 38 *~;
#X obj 394 -43 +~ 1;
#X obj 406 -13 line~;
#X floatatom 217 13 5 0 0 0 - - -;
#X obj 371 82 dac~;
#X obj 217 -26 snapshot~;
#X obj 217 -68 metro;
#X obj 217 -106 tgl 15 0 empty empty empty 17 7 0 10 -262144 -1 -1
0 1;
#X floatatom 252 -104 5 0 0 0 - - -;
#X obj 162 125 sendOSC;
#X msg 68 47 connect localhost 8000;
#X obj 217 43 prepend send /sinosc;
#X connect 0 0 8 0;
#X connect 1 0 5 0;
#X connect 2 0 7 0;
#X connect 3 0 1 0;
#X connect 4 0 2 0;
#X connect 5 0 6 0;
#X connect 6 0 10 0;
#X connect 6 0 10 1;
#X connect 7 0 5 1;
#X connect 7 0 11 0;
#X connect 8 0 6 1;
#X connect 9 0 17 0;
#X connect 11 0 9 0;
#X connect 12 0 11 0;
#X connect 13 0 12 0;
#X connect 14 0 12 1;
#X connect 16 0 15 0;
#X connect 17 0 15 0;
