#N canvas 101 48 581 313 10;
#X declare -lib mrpeach;
#X text 13 169 Ths is the 'client OSC send' patch information/numbers
over to the AUDIO component of the wvshpr-cbyv-loop-range patch. This
is part of a architecture de-coupling. Looking to de-couple the audio
from the visual arch via OSC/Net protocols. By having a network distibuted
architecture I am hoping to significantly reduce the load. Currently
\, with both audio and visual components within the same patch "package"
load is running at over 300% !!!;
#X text 15 268 3 layers arch: 1)VISUAL \, 2)AUDIO \, 3)Network;
#X msg 421 198 disconnect;
#X floatatom 422 154 5 0 0 0 - - -;
#X obj 406 267 tgl 15 0 empty empty empty 17 7 0 10 -262144 -1 -1 1
1;
#X text 427 262 On(1) = connected;
#X obj 476 78 tgl 15 0 empty empty empty 17 7 0 10 -262144 -1 -1 1
1;
#X msg 327 36 timetagoffset -1;
#X msg 362 61 bufsize 100;
#X msg 384 93 typetags \$1;
#X obj 12 12 import mrpeach;
#X obj 384 131 packOSC;
#X obj 406 235 udpsend;
#X msg 283 8 send /Start 220 100 50 128 140 15;
#X msg 382 180 connect 127.0.0.1 3333;
#X text 16 81 UDP - Interop ability with udp OSC to "talk" with Processing
(JAVA). Tested SEND. Need to test RECV.;
#X text 20 112 TCP (oscSTREAM) - Interop inability with tcpsend. Means
that Processing uses strict UDP/SLIP arch for dealing with OSC interop
communications.;
#X connect 2 0 12 0;
#X connect 6 0 9 0;
#X connect 7 0 11 0;
#X connect 8 0 11 0;
#X connect 9 0 11 0;
#X connect 11 0 12 0;
#X connect 11 1 3 0;
#X connect 12 0 4 0;
#X connect 13 0 11 0;
#X connect 14 0 12 0;
