#N canvas 779 99 461 456 10;
#X declare -lib mrpeach;
#X text 10 301 Ths is the 'client OSC send' patch information/numbers
over to the AUDIO component of the wvshpr-cbyv-loop-range patch. This
is part of a architecture de-coupling. Looking to de-couple the audio
from the visual arch via OSC/Net protocols. By having a network distibuted
architecture I am hoping to significantly reduce the load. Currently
\, with both audio and visual components within the same patch "package"
load is running at over 300% !!!;
#X text 11 413 3 layers arch: 1)VISUAL \, 2)AUDIO \, 3)Network;
#X msg 246 217 disconnect;
#X floatatom 365 147 5 0 0 0 - - -;
#X obj 15 137 tgl 15 0 empty empty empty 17 7 0 10 -262144 -1 -1 0
1;
#X obj 70 152 tgl 15 0 empty empty empty 17 7 0 10 -262144 -1 -1 0
1;
#X msg 244 55 timetagoffset -1;
#X msg 267 77 bufsize 100;
#X msg 285 99 typetags \$1;
#X msg 206 194 connect 127.0.0.1 9999;
#X obj 212 8 import mrpeach;
#X obj 327 124 packOSC;
#X obj 230 127 packOSCstream;
#X obj 41 45 knob 32 32 50 500 0 0 empty empty empty 0 -8 0 8 -262144
-1 -1 400 1;
#X obj 15 44 tgl 15 0 empty empty empty 17 7 0 10 -262144 -1 -1 0 1
;
#X obj 129 80 metro;
#X obj 15 65 bng 15 250 50 0 empty empty empty 17 7 0 10 -262144 -1
-1;
#X obj 129 131 moses 160;
#X floatatom 16 107 5 0 0 0 - - -;
#X obj 366 383 knob 24 24 80 128 0 0 empty empty empty 0 -8 0 8 -262144
-1 -1 0 1;
#X obj 395 381 knob 30 30 120 180 0 0 empty empty empty 0 -8 0 8 -262144
-1 -1 0 1;
#X text 12 29 Set Counter;
#X floatatom 364 420 5 0 0 0 - - -;
#X floatatom 396 420 5 0 0 0 - - -;
#X text 14 91 Counter Out;
#X text 363 368 *;
#X text 393 365 +;
#X obj 129 107 counter 50 500;
#X text 39 78 50-500;
#X floatatom 305 150 5 0 0 0 - - -;
#X obj 129 167 t f b;
#X text 85 224 comment;
#X obj 230 250 tcpsend;
#X text 202 33 comment;
#X obj 156 275 bng 15 250 50 0 empty empty empty 17 7 0 10 -262144
-1 -1;
#X obj 10 205 moses 1;
#X msg 9 229 /Start 220 100 50 128 140 15 \$1;
#X obj 10 264 print i;
#X obj 32 179 bng 15 250 50 0 empty empty empty 17 7 0 10 -262144 -1
-1;
#X obj 33 152 bng 15 250 50 0 empty empty empty 17 7 0 10 -262144 -1
-1;
#X obj 52 152 bng 15 250 50 0 empty empty empty 17 7 0 10 -262144 -1
-1;
#X text 14 164 TCPnet Conn;
#X obj 70 179 bng 15 250 50 0 empty empty empty 17 7 0 10 -262144 -1
-1;
#X text 16 181 CN;
#X text 49 181 DCN;
#X text 13 121 On(1) = conn;
#X msg 212 29 send /Start 220 100 50 128 140 25 \$1;
#X connect 2 0 32 0;
#X connect 5 0 8 0;
#X connect 6 0 12 0;
#X connect 7 0 12 0;
#X connect 8 0 12 0;
#X connect 9 0 32 0;
#X connect 11 1 3 0;
#X connect 12 0 32 0;
#X connect 12 1 29 0;
#X connect 13 0 15 1;
#X connect 14 0 15 0;
#X connect 15 0 27 0;
#X connect 16 0 27 1;
#X connect 17 0 18 0;
#X connect 17 0 30 0;
#X connect 17 1 16 0;
#X connect 19 0 22 0;
#X connect 20 0 23 0;
#X connect 27 0 17 0;
#X connect 30 0 35 0;
#X connect 30 1 34 0;
#X connect 32 0 4 0;
#X connect 35 1 36 0;
#X connect 35 1 46 0;
#X connect 36 0 37 0;
#X connect 38 0 9 0;
#X connect 39 0 7 0;
#X connect 40 0 6 0;
#X connect 42 0 2 0;
#X connect 46 0 12 0;
#X coords 0 -1 1 1 80 190 1 10 10;
