#N canvas 223 53 1031 563 10;
#X obj 524 287 line~;
#X obj 469 304 *~;
#X obj 468 196 square~;
#X obj 470 338 lop~ 200;
#X msg 524 212 1 \, 0 190;
#X obj 471 376 *~ 0.2;
#X msg 403 82 80;
#X msg 430 82 160;
#X msg 459 83 240;
#X msg 486 82 320;
#X obj 615 534 dac~ 1 2;
#X obj 514 375 *~ 0.2;
#X msg 373 82 60;
#X obj 633 183 line~;
#X obj 599 199 *~;
#X msg 633 117 1 \, 0 190;
#X obj 599 272 lop~ 200;
#X msg 545 82 120;
#X msg 574 82 220;
#X msg 604 82 320;
#X msg 633 82 420;
#X obj 598 155 osc~;
#X obj 598 310 *~ 0.8;
#X obj 566 374 *~ 0.4;
#X obj 613 373 *~ 0.4;
#X floatatom 690 93 5 0 0 0 - - -;
#X obj 690 162 phasor~;
#X obj 690 273 clip~ 0 1;
#X obj 764 272 clip~ 0 1;
#X obj 745 305 +~;
#X obj 721 131 * -1;
#X obj 691 236 -~ -1;
#X obj 764 237 -~ -1;
#X obj 691 200 *~ -2;
#X obj 765 198 *~ -2;
#X msg 765 122 0;
#X obj 694 330 noise~;
#X obj 812 425 line~;
#X obj 744 441 *~;
#X obj 746 348 *~ 0.1;
#X obj 744 467 *~ 0.1;
#X obj 744 409 *~ 0.2;
#X msg 812 375 1 \, 0 300;
#X msg 690 69 600;
#X msg 340 82 40;
#X obj 342 58 bng 15 250 50 0 empty empty empty 17 7 0 10 -262144 -1
-1;
#X obj 403 57 bng 15 250 50 0 empty empty empty 17 7 0 10 -262144 -1
-1;
#X obj 639 455 lop~;
#X floatatom 660 423 5 0 0 0 - - -;
#X obj 546 57 bng 15 250 50 0 empty empty empty 17 7 0 10 -262144 -1
-1;
#X floatatom 824 83 5 0 0 0 - - -;
#X text 862 81 Phase Synchronisation;
#X obj 824 251 clip~ 0 1;
#X obj 898 250 clip~ 0 1;
#X obj 879 283 +~;
#X obj 855 109 * -1;
#X obj 825 214 -~ -1;
#X obj 898 215 -~ -1;
#X obj 825 178 *~ -2;
#X obj 899 176 *~ -2;
#X msg 899 100 0;
#X obj 828 308 noise~;
#X obj 951 426 line~;
#X obj 881 443 *~;
#X obj 881 411 *~ 0.2;
#X msg 951 345 1 \, 0 300;
#X obj 879 326 *~ 0.3;
#X msg 847 51 900;
#X obj 690 47 bng 15 250 50 0 empty empty empty 17 7 0 10 -262144 -1
-1;
#X obj 487 57 bng 15 250 50 0 empty empty empty 17 7 0 10 -262144 -1
-1;
#X obj 604 55 bng 15 250 50 0 empty empty empty 17 7 0 10 -262144 -1
-1;
#X obj 375 57 bng 15 250 50 0 empty empty empty 17 7 0 10 -262144 -1
-1;
#X obj 429 57 bng 15 250 50 0 empty empty empty 17 7 0 10 -262144 -1
-1;
#X obj 459 57 bng 15 250 50 0 empty empty empty 17 7 0 10 -262144 -1
-1;
#X obj 824 140 osc~;
#X obj 899 138 square~;
#X obj 765 160 square~;
#X obj 745 383 hip~ 50;
#X obj 573 57 bng 15 250 50 0 empty empty empty 17 7 0 10 -262144 -1
-1;
#X obj 635 56 bng 15 250 50 0 empty empty empty 17 7 0 10 -262144 -1
-1;
#X floatatom 331 130 5 0 0 0 - - -;
#X obj 335 169 phasor~;
#X obj 334 212 *~ 256;
#X obj 393 168 osc~;
#X obj 333 240 +~;
#X obj 332 274 delay~ 100;
#X obj 332 313 tabread4~ bd;
#X obj 331 375 s~ wavesamp;
#X obj 406 344 samphold~;
#X obj 395 408 r~ wavesamp;
#N canvas 0 0 450 300 (subpatch) 0;
#X array bd 100 float 3;
#A 0 -0.686056 -0.686056 -0.686056 -0.686056 -0.686056 -0.686056 -0.686056
-0.686056 -0.686056 -0.686056 -0.686056 -0.686056 -0.686056 -0.686056
-0.686056 -0.686056 -0.686056 -0.686056 -0.686056 -0.686056 -0.686056
-0.686056 -0.686056 -0.686056 -0.686056 -0.686056 -0.686056 -0.686056
-0.686056 -0.686056 -0.686056 -0.686056 -0.686056 -0.686056 -0.686056
-0.686056 -0.686056 -0.686056 -0.686056 -0.686056 -0.686056 -0.686056
-0.686056 -0.686056 -0.686056 -0.686056 -0.686056 -0.686056 -0.686056
-0.686056 -0.686056 -0.686056 -0.686056 -0.686056 -0.686056 -0.686056
-0.686056 -0.686056 -0.686056 -0.686056 -0.686056 -0.686056 -0.686056
-0.686056 -0.686056 -0.686056 -0.686056 -0.686056 -0.686056 -0.686056
-0.686056 -0.686056 -0.686056 -0.686056 -0.686056 -0.686056 -0.686056
-0.686056 -0.686056 -0.686056 -0.686056 -0.686056 -0.686056 -0.686056
-0.686056 -0.686056 -0.686056 -0.686056 -0.686056 -0.686056 -0.686056
-0.686056 -0.686056 -0.686056 -0.686056 -0.686056 -0.686056 -0.686056
-0.686056 -0.686056;
#X coords 0 1 99 -1 200 140 1 0 0;
#X restore 78 90 graph;
#X msg 224 1 \; pd dsp 1 \;;
#X msg 149 1 \; pd dsp 0 \;;
#X obj 791 25 bng 15 250 50 0 empty empty empty 17 7 0 10 -262144 -1
-1;
#X obj 847 24 bng 15 250 50 0 empty empty empty 17 7 0 10 -262144 -1
-1;
#X obj 306 403 tabwrite~ bd;
#X obj -12 253 hradio 15 1 0 16 empty empty empty 0 -8 0 10 -262144
-1 -1 12;
#X obj -12 85 metro 200;
#X obj -12 61 tgl 15 0 empty empty empty 17 7 0 10 -262144 -1 -1 1
1;
#X floatatom 39 58 5 0 0 0 - - -;
#X obj -12 109 bng 15 250 50 0 empty empty empty 17 7 0 10 -262144
-1 -1;
#X obj -12 133 f;
#X obj -12 160 counter;
#X floatatom 16 221 5 0 0 0 - - -;
#X obj -12 190 % 16;
#X obj -12 428 sel 0 1 2 3 4 5 6 7 8 9 10 11 12 13 14 15 16;
#X obj 138 44 hsl 150 15 0 150 0 0 empty empty empty -2 -8 0 10 -262144
-1 -1 7300 1;
#X obj 23 190 % 128;
#X obj 14 504 s o1;
#X obj 65 504 s o2;
#X obj 114 503 s o3;
#X obj 165 504 s o4;
#X obj 214 505 s o5;
#X obj 265 505 s o6;
#X obj 881 380 lop~ 500;
#X obj 881 469 *~ 0.5;
#X obj 282 239 +~;
#X obj 246 272 delay~ 100;
#X obj 312 466 tabwrite~ hh;
#X obj 766 327 samphold~;
#X obj 283 170 phasor~;
#N canvas 0 0 450 300 (subpatch) 0;
#X array hh 100 float 3;
#A 0 2 2 2 2 2 2 2 2 2 2 2 2 2 2 2 2 2 2 2 2 2 2 2 2 2 2 2 2 2 2 2
2 2 2 2 2 2 2 2 2 2 2 2 2 2 2 2 2 2 2 2 2 2 2 2 2 2 2 2 2 2 2 2 2 2
2 2 2 2 2 2 2 2 2 2 2 2 2 2 2 2 2 2 2 2 2 2 2 2 2 2 2 2 2 2 2 2 2 2
2;
#X coords 0 1 99 -1 200 140 1;
#X restore 9 284 graph;
#X obj 914 284 r~ hh;
#X obj 245 373 s~ hh;
#X obj 245 315 tabread4~ hh;
#X msg 789 50 1000;
#X obj 432 9 r r1;
#X obj 503 9 r r2;
#X connect 0 0 1 1;
#X connect 1 0 3 0;
#X connect 1 0 88 0;
#X connect 2 0 1 0;
#X connect 3 0 5 0;
#X connect 3 0 11 0;
#X connect 4 0 0 0;
#X connect 5 0 10 0;
#X connect 6 0 2 0;
#X connect 7 0 2 0;
#X connect 8 0 2 0;
#X connect 9 0 2 0;
#X connect 11 0 10 1;
#X connect 12 0 2 0;
#X connect 13 0 14 1;
#X connect 14 0 16 0;
#X connect 15 0 13 0;
#X connect 16 0 22 0;
#X connect 17 0 21 0;
#X connect 18 0 21 0;
#X connect 19 0 21 0;
#X connect 20 0 21 0;
#X connect 21 0 14 0;
#X connect 22 0 23 0;
#X connect 22 0 24 0;
#X connect 23 0 47 0;
#X connect 24 0 47 0;
#X connect 25 0 26 0;
#X connect 25 0 30 0;
#X connect 26 0 33 0;
#X connect 27 0 29 0;
#X connect 28 0 29 1;
#X connect 29 0 39 0;
#X connect 30 0 76 0;
#X connect 31 0 27 0;
#X connect 32 0 28 0;
#X connect 33 0 31 0;
#X connect 34 0 32 0;
#X connect 35 0 26 1;
#X connect 35 0 76 0;
#X connect 36 0 39 0;
#X connect 36 0 77 0;
#X connect 37 0 38 1;
#X connect 38 0 40 0;
#X connect 39 0 77 0;
#X connect 40 0 10 0;
#X connect 40 0 10 1;
#X connect 41 0 38 0;
#X connect 42 0 37 0;
#X connect 43 0 25 0;
#X connect 44 0 2 0;
#X connect 45 0 44 0;
#X connect 45 0 80 0;
#X connect 45 0 95 0;
#X connect 46 0 6 0;
#X connect 47 0 10 1;
#X connect 47 0 10 0;
#X connect 48 0 47 1;
#X connect 49 0 17 0;
#X connect 50 0 55 0;
#X connect 50 0 74 0;
#X connect 52 0 54 0;
#X connect 53 0 54 1;
#X connect 54 0 66 0;
#X connect 54 0 119 0;
#X connect 55 0 75 0;
#X connect 56 0 52 0;
#X connect 57 0 53 0;
#X connect 58 0 56 0;
#X connect 59 0 57 0;
#X connect 60 0 74 1;
#X connect 60 0 75 0;
#X connect 61 0 66 0;
#X connect 61 0 114 0;
#X connect 62 0 63 1;
#X connect 63 0 115 0;
#X connect 64 0 63 0;
#X connect 65 0 62 0;
#X connect 66 0 114 0;
#X connect 67 0 50 0;
#X connect 68 0 43 0;
#X connect 69 0 9 0;
#X connect 70 0 19 0;
#X connect 71 0 12 0;
#X connect 71 0 95 0;
#X connect 72 0 7 0;
#X connect 73 0 8 0;
#X connect 74 0 58 0;
#X connect 75 0 59 0;
#X connect 76 0 34 0;
#X connect 77 0 41 0;
#X connect 78 0 18 0;
#X connect 79 0 20 0;
#X connect 80 0 81 0;
#X connect 80 0 83 0;
#X connect 80 0 120 0;
#X connect 81 0 82 0;
#X connect 81 0 88 1;
#X connect 82 0 84 0;
#X connect 83 0 82 0;
#X connect 84 0 85 0;
#X connect 85 0 86 0;
#X connect 86 0 87 0;
#X connect 88 0 84 1;
#X connect 88 0 95 0;
#X connect 89 0 5 0;
#X connect 89 0 11 0;
#X connect 93 0 125 0;
#X connect 93 0 118 0;
#X connect 94 0 67 0;
#X connect 94 0 118 0;
#X connect 96 0 105 0;
#X connect 97 0 100 0;
#X connect 98 0 97 0;
#X connect 99 0 97 1;
#X connect 100 0 101 0;
#X connect 101 0 102 0;
#X connect 102 0 104 0;
#X connect 102 0 107 0;
#X connect 104 0 96 0;
#X connect 104 0 103 0;
#X connect 105 0 4 0;
#X connect 105 0 108 0;
#X connect 105 0 45 0;
#X connect 105 1 93 0;
#X connect 105 2 49 0;
#X connect 105 2 15 0;
#X connect 105 3 4 0;
#X connect 105 3 109 0;
#X connect 105 5 78 0;
#X connect 105 5 15 0;
#X connect 105 6 4 0;
#X connect 105 6 110 0;
#X connect 105 6 46 0;
#X connect 105 7 68 0;
#X connect 105 7 42 0;
#X connect 105 8 15 0;
#X connect 105 9 4 0;
#X connect 105 9 111 0;
#X connect 105 9 72 0;
#X connect 105 11 79 0;
#X connect 105 11 15 0;
#X connect 105 12 4 0;
#X connect 105 12 112 0;
#X connect 105 13 94 0;
#X connect 105 13 65 0;
#X connect 105 14 49 0;
#X connect 105 14 15 0;
#X connect 105 15 4 0;
#X connect 105 15 113 0;
#X connect 105 15 69 0;
#X connect 106 0 99 0;
#X connect 114 0 64 0;
#X connect 115 0 10 0;
#X connect 115 0 10 1;
#X connect 116 0 117 0;
#X connect 117 0 124 0;
#X connect 119 0 118 0;
#X connect 119 0 116 1;
#X connect 120 0 116 0;
#X connect 120 0 119 1;
#X connect 122 0 66 0;
#X connect 124 0 123 0;
#X connect 125 0 50 0;
