#N canvas 568 66 722 566 10;
#X obj 39 -9 tgl 15 0 empty empty empty 17 7 0 10 -262144 -1 -1 0 1
;
#X msg 61 -5 create;
#X msg 70 19 destroy;
#X obj 37 40 gemwin;
#X msg 160 36 \$1;
#X obj 202 22 hsl 128 15 0 20 0 0 empty empty empty -2 -8 0 10 -262144
-1 -1 0 1;
#X obj 160 75 gemhead;
#X obj 160 138 rotateXYZ;
#X obj 159 215 translateXYZ;
#X floatatom 168 168 5 0 0 0 - - -;
#X floatatom 257 166 5 0 0 0 - - -;
#X obj 253 216 translateXYZ;
#X floatatom 201 53 5 0 0 0 - - -;
#X obj 253 274 square;
#X obj 159 279 square;
#X obj 42 400 hradio 15 1 0 8 empty empty empty 0 -8 0 10 -262144 -1
-1 0;
#X obj 40 322 f;
#X obj 40 347 counter;
#X obj 40 295 metro;
#X floatatom 87 269 5 0 0 0 - - -;
#X obj 40 270 tgl 15 0 empty empty empty 17 7 0 10 -262144 -1 -1 0
1;
#X obj 159 249 color;
#X floatatom 203 168 5 0 0 0 - - -;
#X floatatom 296 165 5 0 0 0 - - -;
#X floatatom 346 164 5 0 0 0 - - -;
#X obj 342 214 translateXYZ;
#X obj 342 272 square;
#X floatatom 385 163 5 0 0 0 - - -;
#X obj 249 135 rotateXYZ;
#X obj 338 134 rotateXYZ;
#X obj 254 246 color;
#X obj 341 244 color;
#X floatatom 441 163 5 0 0 0 - - -;
#X obj 437 213 translateXYZ;
#X obj 437 271 square;
#X floatatom 480 162 5 0 0 0 - - -;
#X obj 433 133 rotateXYZ;
#X obj 436 243 color;
#X floatatom 538 162 5 0 0 0 - - -;
#X obj 534 212 translateXYZ;
#X obj 534 270 square;
#X floatatom 577 161 5 0 0 0 - - -;
#X obj 530 132 rotateXYZ;
#X obj 533 242 color;
#X floatatom 633 161 5 0 0 0 - - -;
#X obj 629 211 translateXYZ;
#X obj 629 269 square;
#X floatatom 672 160 5 0 0 0 - - -;
#X obj 625 131 rotateXYZ;
#X obj 628 241 color;
#X floatatom 441 341 5 0 0 0 - - -;
#X obj 437 391 translateXYZ;
#X obj 436 449 square;
#X floatatom 480 340 5 0 0 0 - - -;
#X obj 433 311 rotateXYZ;
#X obj 436 421 color;
#X floatatom 539 340 5 0 0 0 - - -;
#X obj 534 390 translateXYZ;
#X obj 534 448 square;
#X floatatom 577 339 5 0 0 0 - - -;
#X obj 530 310 rotateXYZ;
#X obj 533 420 color;
#X floatatom 633 339 5 0 0 0 - - -;
#X obj 629 389 translateXYZ;
#X obj 629 447 square;
#X floatatom 672 338 5 0 0 0 - - -;
#X obj 625 309 rotateXYZ;
#X obj 628 419 color;
#X msg 42 482 1 1 1 0;
#X msg 98 483 0 0 0 0;
#X msg 164 484 1 1 1 0;
#X msg 223 484 0 0 0 0;
#X msg 295 486 1 1 1 0;
#X msg 361 486 0 0 0 0;
#X msg 421 488 1 1 1 0;
#X msg 477 486 0 0 0 0;
#X obj 41 440 sel 0 1 2 3 4 5 6 7;
#X obj 42 372 % 8;
#X obj 375 63 knob 32 32 0 1 0 0 empty empty empty 0 -8 0 8 -262144
-1 -1 0 1;
#X obj 463 64 knob 32 32 0 1 0 0 empty empty empty 0 -8 0 8 -262144
-1 -1 0 1;
#X obj 557 61 knob 32 32 0 1 0 0 empty empty empty 0 -8 0 8 -262144
-1 -1 0 1;
#X obj 458 -5 knob 32 32 0 1 0 0 empty empty empty 0 -8 0 8 -262144
-1 -1 0 1;
#X obj 35 119 f;
#X obj 35 144 counter;
#X obj 35 92 metro;
#X floatatom 82 66 5 0 0 0 - - -;
#X obj 35 67 tgl 15 0 empty empty empty 17 7 0 10 -262144 -1 -1 0 1
;
#X obj 23 196 hradio 15 1 0 8 empty empty empty 0 -8 0 10 -262144 -1
-1 0;
#X obj 38 169 % 8;
#X obj 24 243 sel 0 1 2 3 4 5 6 7 8;
#X floatatom 549 34 5 0 0 0 - - -;
#X obj 29 221 / 8;
#X connect 0 0 3 0;
#X connect 1 0 3 0;
#X connect 2 0 3 0;
#X connect 4 0 6 0;
#X connect 4 0 12 0;
#X connect 5 0 4 0;
#X connect 6 0 7 0;
#X connect 6 0 28 0;
#X connect 6 0 29 0;
#X connect 6 0 36 0;
#X connect 6 0 42 0;
#X connect 6 0 48 0;
#X connect 6 0 54 0;
#X connect 6 0 60 0;
#X connect 6 0 66 0;
#X connect 7 0 8 0;
#X connect 8 0 21 0;
#X connect 9 0 8 1;
#X connect 10 0 11 1;
#X connect 11 0 30 0;
#X connect 15 0 76 0;
#X connect 16 0 17 0;
#X connect 17 0 77 0;
#X connect 18 0 16 0;
#X connect 19 0 18 1;
#X connect 20 0 18 0;
#X connect 21 0 14 0;
#X connect 22 0 8 2;
#X connect 23 0 11 2;
#X connect 24 0 25 1;
#X connect 25 0 31 0;
#X connect 27 0 25 2;
#X connect 28 0 11 0;
#X connect 29 0 25 0;
#X connect 30 0 13 0;
#X connect 31 0 26 0;
#X connect 32 0 33 1;
#X connect 33 0 37 0;
#X connect 35 0 33 2;
#X connect 36 0 33 0;
#X connect 37 0 34 0;
#X connect 38 0 39 1;
#X connect 39 0 43 0;
#X connect 41 0 39 2;
#X connect 42 0 39 0;
#X connect 43 0 40 0;
#X connect 44 0 45 1;
#X connect 45 0 49 0;
#X connect 47 0 45 2;
#X connect 48 0 45 0;
#X connect 49 0 46 0;
#X connect 50 0 51 1;
#X connect 51 0 55 0;
#X connect 53 0 51 2;
#X connect 54 0 51 0;
#X connect 55 0 52 0;
#X connect 56 0 57 1;
#X connect 57 0 61 0;
#X connect 59 0 57 2;
#X connect 60 0 57 0;
#X connect 61 0 58 0;
#X connect 62 0 63 1;
#X connect 63 0 67 0;
#X connect 65 0 63 2;
#X connect 66 0 63 0;
#X connect 67 0 64 0;
#X connect 68 0 21 1;
#X connect 68 0 43 1;
#X connect 70 0 30 1;
#X connect 70 0 55 1;
#X connect 70 0 61 1;
#X connect 72 0 31 1;
#X connect 72 0 67 1;
#X connect 74 0 37 1;
#X connect 74 0 49 1;
#X connect 76 0 68 0;
#X connect 76 1 69 0;
#X connect 76 2 70 0;
#X connect 76 3 71 0;
#X connect 76 4 72 0;
#X connect 76 5 73 0;
#X connect 76 6 74 0;
#X connect 76 7 75 0;
#X connect 77 0 15 0;
#X connect 78 0 14 1;
#X connect 78 0 13 1;
#X connect 78 0 26 1;
#X connect 79 0 34 1;
#X connect 79 0 40 1;
#X connect 79 0 46 1;
#X connect 80 0 52 1;
#X connect 80 0 58 1;
#X connect 80 0 64 1;
#X connect 81 0 78 0;
#X connect 81 0 79 0;
#X connect 81 0 80 0;
#X connect 81 0 90 0;
#X connect 82 0 83 0;
#X connect 83 0 88 0;
#X connect 84 0 82 0;
#X connect 85 0 84 1;
#X connect 86 0 84 0;
#X connect 87 0 91 0;
#X connect 88 0 87 0;
#X connect 91 0 81 0;
